<svg width="487" height="152" viewBox="0 0 487 152" fill="none" xmlns="http://www.w3.org/2000/svg">
<path d="M468.674 73.68L463.683 85.776C462.915 87.6 462.051 88.56 460.611 88.56C460.323 88.56 460.035 88.56 459.747 88.464C444.291 85.392 438.915 76.944 438.435 52.656L431.235 52.272C430.179 52.176 429.315 51.216 429.315 50.16L430.467 34.224C430.563 33.168 431.427 32.304 432.579 32.304L438.723 32.688C438.915 29.04 439.107 25.104 439.395 20.976C439.491 19.824 439.683 18 442.179 18H442.563L460.707 18.864C462.339 18.96 463.107 19.92 463.107 21.552C462.915 25.584 462.627 29.808 462.339 33.84L468.963 34.224C470.019 34.224 470.883 35.184 470.883 36.336L469.731 52.272C469.635 53.232 468.866 54.096 467.81 54.096H467.619L461.283 53.808C461.283 62.544 462.435 69.168 466.659 70.992C467.715 71.472 468.867 71.856 468.867 72.912C468.867 73.104 468.771 73.392 468.674 73.68Z" fill="#D9D9D9"/>
<path d="M398.164 106.723L397.139 106.467C395.09 105.956 394.251 105.352 394.087 103.629L392.683 91.8016C392.659 91.4989 392.636 91.1962 392.682 91.0099C393.03 89.6127 394.94 89.8909 396.058 90.1696C401.577 91.4467 404.835 89.4888 405.392 87.2533C405.694 86.0423 404.855 84.25 403.969 82.2482L402.151 78.8267C399.213 73.1474 398.535 68.724 399.418 65.1844C402.042 54.6586 418.619 52.8553 430.821 55.8977C434.454 56.8034 435.293 57.4083 435.527 59.2475L437.024 71.0978C437.118 71.5169 437.048 71.7963 436.978 72.0758C436.723 73.1004 435.605 73.2175 434.395 72.9156L434.022 72.8227C428.433 71.4292 425.826 72.758 425.362 74.621C424.967 76.2045 425.923 78.3227 428.487 83.1175C431.611 88.8432 432.428 93.4994 431.546 97.039C428.805 108.031 410.646 109.835 398.164 106.723Z" fill="#D9D9D9"/>
<path d="M392.627 86.008L373.811 84.952C369.203 86.392 364.691 87.16 360.467 87.16C347.123 87.16 336.755 79.672 335.891 61.816C335.603 55.576 335.411 43.672 335.315 37.528C335.315 33.592 336.659 32.824 337.811 32.728C337.907 32.536 352.787 31.48 354.419 31.48C356.339 31.48 357.107 32.44 357.203 33.592C357.779 40.024 357.971 45.208 358.547 56.632C358.931 64.888 361.811 67.768 365.843 67.768C367.763 67.768 370.067 67.096 372.467 65.944L374.195 32.92C374.291 31.768 375.251 31 376.307 31L395.411 32.056C396.563 32.056 397.331 33.016 397.331 34.168L394.739 84.088C394.643 85.24 393.683 86.008 392.627 86.008Z" fill="#D9D9D9"/>
<path d="M342.188 85.7434L339.612 98.559C339.24 100.503 338.501 101.641 337.092 101.941C337.092 101.941 328.837 102.812 322.461 98.6714C317.821 102.7 312.654 105.172 307.49 106.27C291.808 109.603 275.825 100.438 272.612 85.3199C270.177 73.8638 274.745 56.11 293.338 52.158C297.376 51.2998 301.593 51.2866 305.233 51.7888L301.574 26.2637C301.329 24.6474 302.631 23.3891 304.51 22.9899L320.814 19.8186C323.444 19.2597 324.454 20.3208 324.734 21.6354L324.794 21.9171C324.865 23.1778 330.184 62.9737 331.561 69.4529C333.198 77.1529 335.542 82.6414 339.751 83.5133C340.884 83.7633 342.017 84.0132 342.196 84.8584C342.256 85.1401 342.316 85.4218 342.188 85.7434ZM312.68 85.4398C311.125 81.3539 309.691 76.4569 308.414 70.4472C306.982 68.7887 304.073 68.0329 301.256 68.6317C295.622 69.8293 293.151 75.7524 294.269 81.0109C295.387 86.2694 300.007 89.9983 306.017 88.7209C308.083 88.2818 310.31 87.2194 312.68 85.4398Z" fill="#D9D9D9"/>
<path d="M258.324 105.519L239.216 102.834C238.17 102.687 237.435 101.711 237.582 100.665L248.497 22.9964C248.658 21.8556 249.634 21.1203 250.679 21.2672L269.787 23.9527C270.833 24.0997 271.569 25.0755 271.408 26.2163L260.493 103.885C260.346 104.931 259.37 105.666 258.324 105.519Z" fill="#D9D9D9"/>
<path d="M200.51 107.032L199.484 106.509C180.067 96.616 177.071 78.3894 183.696 65.3878C189.928 53.1561 205.105 44.7275 224.607 54.6644C245.82 65.473 237.129 84.856 235.691 87.6788C233.686 91.6134 230.405 94.0357 224.487 93.1751C219.769 92.4953 212.96 90.211 208.425 88.1158C207.056 87.4184 206.934 86.6018 207.115 85.401C207.526 82.0553 208.734 75.6673 208.908 75.3252C209.388 74.3843 210.29 74.3053 211.533 74.6152C216.504 75.8551 217.19 75.9891 217.8 74.7916C218.192 74.0218 217.961 70.4565 214.369 68.626C210.263 66.534 205.011 68.3833 202.309 73.6865C199.215 79.7596 200.176 88.8689 210.868 94.3168C211.467 94.6219 212.151 94.9705 212.793 95.1901L212.964 95.2772C214.162 95.8874 215.224 97.3981 214.483 98.8523C214.047 99.7076 208.859 104.391 206.095 106.645C204.713 107.665 202.991 108.296 200.51 107.032Z" fill="#D9D9D9"/>
<path d="M178.699 94.248L164.683 101.64C163.531 102.312 162.667 102.6 161.899 102.6C160.939 102.6 160.075 102.12 159.019 100.968L149.419 89.832C144.811 93.384 139.723 96.84 135.979 99.432C134.923 100.104 134.059 100.584 133.099 100.584C132.523 100.584 131.851 100.392 131.179 99.816L119.851 90.696C118.795 89.832 118.315 88.968 118.315 88.2C118.315 87.528 118.603 86.856 119.371 86.184C122.635 83.304 128.875 77.928 134.539 72.648L121.771 57.768C121.003 56.904 120.715 56.136 120.715 55.464C120.715 54.504 121.483 53.64 122.635 53.064L137.131 45.576C137.899 45.192 138.571 45 139.243 45C140.491 45 141.643 45.672 142.507 46.728L151.723 57.48L161.707 47.4C162.379 46.728 163.051 46.248 163.915 46.248C164.683 46.248 165.547 46.632 166.603 47.496L179.179 57.48C180.043 58.152 180.427 58.728 180.427 59.4C180.427 62.664 169.099 73.608 167.179 75.432L179.563 89.736C180.235 90.504 180.523 91.176 180.523 91.848C180.523 92.808 179.851 93.672 178.699 94.248Z" fill="#D9D9D9"/>
<path d="M108.013 109.922L89.0896 106.538L88.9025 106.495C87.8736 106.257 87.3196 105.243 87.4636 104.192L95.642 58.0987C95.9012 56.9762 96.8439 56.3071 97.9879 56.4727L116.912 59.8564L117.099 59.8996C118.034 60.1155 118.682 61.1517 118.466 62.0871L110.266 108.274L110.223 108.461C110.007 109.397 108.97 110.044 108.013 109.922ZM123.914 45.3149C122.165 52.8916 114.566 57.64 106.99 55.8907C99.3193 54.1199 94.571 46.521 96.3202 38.9443C98.091 31.2741 105.69 26.5258 113.36 28.2966C120.937 30.0458 125.685 37.6447 123.914 45.3149Z" fill="#D9D9D9"/>
<path d="M61.2421 110.931L42.8389 116.506C41.9368 116.834 40.8294 116.317 40.4682 115.325L40.4025 115.145L18.0721 42.5651C17.8012 41.5399 18.3176 40.4325 19.2197 40.1042L19.4001 40.0385L34.7607 35.3672C38.1145 32.5119 41.821 30.3456 45.6099 28.9665C61.4869 23.1878 79.9429 29.5469 85.9187 45.9653C91.8945 62.3836 84.0332 76.9933 66.9835 83.199C63.1946 84.578 59.299 85.3829 55.5672 85.5152L62.5701 108.405C62.8739 109.52 62.3247 110.537 61.2421 110.931ZM44.6975 50.0373L50.272 68.4406C52.6178 68.7106 55.4965 68.4801 58.0224 67.5607C58.7441 67.298 67.4043 64.146 63.7926 54.2228C61.5271 47.9983 55.2601 45.3756 48.9453 47.6739C47.502 48.1993 46.0669 49.0281 44.6975 50.0373Z" fill="#D9D9D9"/>
<path d="M468.674 73.68L463.683 85.776C462.915 87.6 462.051 88.56 460.611 88.56C460.323 88.56 460.035 88.56 459.747 88.464C444.291 85.392 438.915 76.944 438.435 52.656L431.235 52.272C430.179 52.176 429.315 51.216 429.315 50.16L430.467 34.224C430.563 33.168 431.427 32.304 432.579 32.304L438.723 32.688C438.915 29.04 439.107 25.104 439.395 20.976C439.491 19.824 439.683 18 442.179 18H442.563L460.707 18.864C462.339 18.96 463.107 19.92 463.107 21.552C462.915 25.584 462.627 29.808 462.339 33.84L468.963 34.224C470.019 34.224 470.883 35.184 470.883 36.336L469.731 52.272C469.635 53.232 468.866 54.096 467.81 54.096H467.619L461.283 53.808C461.283 62.544 462.435 69.168 466.659 70.992C467.715 71.472 468.867 71.856 468.867 72.912C468.867 73.104 468.771 73.392 468.674 73.68Z" fill="#D9D9D9"/>
<path d="M398.164 106.723L397.139 106.467C395.09 105.956 394.251 105.352 394.087 103.629L392.683 91.8016C392.659 91.4989 392.636 91.1962 392.682 91.0099C393.03 89.6127 394.94 89.8909 396.058 90.1696C401.577 91.4467 404.835 89.4888 405.392 87.2533C405.694 86.0423 404.855 84.25 403.969 82.2482L402.151 78.8267C399.213 73.1474 398.535 68.724 399.418 65.1844C402.042 54.6586 418.619 52.8553 430.821 55.8977C434.454 56.8034 435.293 57.4083 435.527 59.2475L437.024 71.0978C437.118 71.5169 437.048 71.7963 436.978 72.0758C436.723 73.1004 435.605 73.2175 434.395 72.9156L434.022 72.8227C428.433 71.4292 425.826 72.758 425.362 74.621C424.967 76.2045 425.923 78.3227 428.487 83.1175C431.611 88.8432 432.428 93.4994 431.546 97.039C428.805 108.031 410.646 109.835 398.164 106.723Z" fill="#D9D9D9"/>
<path d="M392.627 86.008L373.811 84.952C369.203 86.392 364.691 87.16 360.467 87.16C347.123 87.16 336.755 79.672 335.891 61.816C335.603 55.576 335.411 43.672 335.315 37.528C335.315 33.592 336.659 32.824 337.811 32.728C337.907 32.536 352.787 31.48 354.419 31.48C356.339 31.48 357.107 32.44 357.203 33.592C357.779 40.024 357.971 45.208 358.547 56.632C358.931 64.888 361.811 67.768 365.843 67.768C367.763 67.768 370.067 67.096 372.467 65.944L374.195 32.92C374.291 31.768 375.251 31 376.307 31L395.411 32.056C396.563 32.056 397.331 33.016 397.331 34.168L394.739 84.088C394.643 85.24 393.683 86.008 392.627 86.008Z" fill="#D9D9D9"/>
<path d="M342.188 85.7434L339.612 98.559C339.24 100.503 338.501 101.641 337.092 101.941C337.092 101.941 328.837 102.812 322.461 98.6714C317.821 102.7 312.654 105.172 307.49 106.27C291.808 109.603 275.825 100.438 272.612 85.3199C270.177 73.8638 274.745 56.11 293.338 52.158C297.376 51.2998 301.593 51.2866 305.233 51.7888L301.574 26.2637C301.329 24.6474 302.631 23.3891 304.51 22.9899L320.814 19.8186C323.444 19.2597 324.454 20.3208 324.734 21.6354L324.794 21.9171C324.865 23.1778 330.184 62.9737 331.561 69.4529C333.198 77.1529 335.542 82.6414 339.751 83.5133C340.884 83.7633 342.017 84.0132 342.196 84.8584C342.256 85.1401 342.316 85.4218 342.188 85.7434ZM312.68 85.4398C311.125 81.3539 309.691 76.4569 308.414 70.4472C306.982 68.7887 304.073 68.0329 301.256 68.6317C295.622 69.8293 293.151 75.7524 294.269 81.0109C295.387 86.2694 300.007 89.9983 306.017 88.7209C308.083 88.2818 310.31 87.2194 312.68 85.4398Z" fill="#D9D9D9"/>
<path d="M258.324 105.519L239.216 102.834C238.17 102.687 237.435 101.711 237.582 100.665L248.497 22.9964C248.658 21.8556 249.634 21.1203 250.679 21.2672L269.787 23.9527C270.833 24.0997 271.569 25.0755 271.408 26.2163L260.493 103.885C260.346 104.931 259.37 105.666 258.324 105.519Z" fill="#D9D9D9"/>
<path d="M200.51 107.032L199.484 106.509C180.067 96.616 177.071 78.3894 183.696 65.3878C189.928 53.1561 205.105 44.7275 224.607 54.6644C245.82 65.473 237.129 84.856 235.691 87.6788C233.686 91.6134 230.405 94.0357 224.487 93.1751C219.769 92.4953 212.96 90.211 208.425 88.1158C207.056 87.4184 206.934 86.6018 207.115 85.401C207.526 82.0553 208.734 75.6673 208.908 75.3252C209.388 74.3843 210.29 74.3053 211.533 74.6152C216.504 75.8551 217.19 75.9891 217.8 74.7916C218.192 74.0218 217.961 70.4565 214.369 68.626C210.263 66.534 205.011 68.3833 202.309 73.6865C199.215 79.7596 200.176 88.8689 210.868 94.3168C211.467 94.6219 212.151 94.9705 212.793 95.1901L212.964 95.2772C214.162 95.8874 215.224 97.3981 214.483 98.8523C214.047 99.7076 208.859 104.391 206.095 106.645C204.713 107.665 202.991 108.296 200.51 107.032Z" fill="#D9D9D9"/>
<path d="M178.699 94.248L164.683 101.64C163.531 102.312 162.667 102.6 161.899 102.6C160.939 102.6 160.075 102.12 159.019 100.968L149.419 89.832C144.811 93.384 139.723 96.84 135.979 99.432C134.923 100.104 134.059 100.584 133.099 100.584C132.523 100.584 131.851 100.392 131.179 99.816L119.851 90.696C118.795 89.832 118.315 88.968 118.315 88.2C118.315 87.528 118.603 86.856 119.371 86.184C122.635 83.304 128.875 77.928 134.539 72.648L121.771 57.768C121.003 56.904 120.715 56.136 120.715 55.464C120.715 54.504 121.483 53.64 122.635 53.064L137.131 45.576C137.899 45.192 138.571 45 139.243 45C140.491 45 141.643 45.672 142.507 46.728L151.723 57.48L161.707 47.4C162.379 46.728 163.051 46.248 163.915 46.248C164.683 46.248 165.547 46.632 166.603 47.496L179.179 57.48C180.043 58.152 180.427 58.728 180.427 59.4C180.427 62.664 169.099 73.608 167.179 75.432L179.563 89.736C180.235 90.504 180.523 91.176 180.523 91.848C180.523 92.808 179.851 93.672 178.699 94.248Z" fill="#D9D9D9"/>
<path d="M108.013 109.922L89.0896 106.538L88.9025 106.495C87.8736 106.257 87.3196 105.243 87.4636 104.192L95.642 58.0987C95.9012 56.9762 96.8439 56.3071 97.9879 56.4727L116.912 59.8564L117.099 59.8996C118.034 60.1155 118.682 61.1517 118.466 62.0871L110.266 108.274L110.223 108.461C110.007 109.397 108.97 110.044 108.013 109.922ZM123.914 45.3149C122.165 52.8916 114.566 57.64 106.99 55.8907C99.3193 54.1199 94.571 46.521 96.3202 38.9443C98.091 31.2741 105.69 26.5258 113.36 28.2966C120.937 30.0458 125.685 37.6447 123.914 45.3149Z" fill="#D9D9D9"/>
<path d="M61.2421 110.931L42.8389 116.506C41.9368 116.834 40.8294 116.317 40.4682 115.325L40.4025 115.145L18.0721 42.5651C17.8012 41.5399 18.3176 40.4325 19.2197 40.1042L19.4001 40.0385L34.7607 35.3672C38.1145 32.5119 41.821 30.3456 45.6099 28.9665C61.4869 23.1878 79.9429 29.5469 85.9187 45.9653C91.8945 62.3836 84.0332 76.9933 66.9835 83.199C63.1946 84.578 59.299 85.3829 55.5672 85.5152L62.5701 108.405C62.8739 109.52 62.3247 110.537 61.2421 110.931ZM44.6975 50.0373L50.272 68.4406C52.6178 68.7106 55.4965 68.4801 58.0224 67.5607C58.7441 67.298 67.4043 64.146 63.7926 54.2228C61.5271 47.9983 55.2601 45.3756 48.9453 47.6739C47.502 48.1993 46.0669 49.0281 44.6975 50.0373Z" fill="#D9D9D9"/>
<path d="M222.516 35.6484C222.254 35.6805 222.008 35.7896 221.808 35.9617C221.608 36.1338 221.464 36.3614 221.393 36.6155C221.323 36.8696 221.329 37.1389 221.412 37.3893C221.495 37.6398 221.649 37.8601 221.857 38.0225C222.065 38.1848 222.316 38.2819 222.579 38.3015C222.842 38.321 223.105 38.2621 223.335 38.1323C223.564 38.0024 223.75 37.8074 223.869 37.5719C223.988 37.3364 224.034 37.071 224.002 36.8093C223.958 36.4583 223.778 36.1388 223.499 35.9211C223.22 35.7034 222.867 35.6053 222.516 35.6484ZM221.866 30.3548C221.604 30.387 221.358 30.496 221.158 30.6681C220.958 30.8403 220.814 31.0678 220.743 31.3219C220.673 31.576 220.679 31.8453 220.762 32.0958C220.845 32.3462 221 32.5665 221.207 32.7289C221.415 32.8912 221.666 32.9883 221.929 33.0079C222.192 33.0274 222.455 32.9685 222.685 32.8387C222.914 32.7088 223.1 32.5138 223.219 32.2783C223.338 32.0429 223.384 31.7775 223.352 31.5157C223.309 31.1647 223.128 30.8452 222.849 30.6275C222.57 30.4098 222.217 30.3117 221.866 30.3548ZM227.159 29.7048C226.898 29.737 226.651 29.846 226.451 30.0182C226.252 30.1903 226.107 30.4178 226.037 30.6719C225.966 30.926 225.973 31.1954 226.056 31.4458C226.138 31.6962 226.293 31.9166 226.501 32.0789C226.709 32.2413 226.96 32.3384 227.223 32.3579C227.486 32.3775 227.749 32.3186 227.978 32.1887C228.208 32.0589 228.394 31.8639 228.512 31.6284C228.631 31.3929 228.677 31.1275 228.645 30.8657C228.602 30.5148 228.421 30.1953 228.143 29.9776C227.864 29.7598 227.51 29.6618 227.159 29.7048ZM237.073 33.861C237.424 33.8179 237.744 33.6371 237.961 33.3585C238.179 33.0798 238.277 32.7261 238.234 32.3751C238.191 32.0241 238.01 31.7046 237.731 31.4869C237.453 31.2692 237.099 31.1711 236.748 31.2142L234.101 31.5392L233.776 28.8924L236.423 28.5674C236.774 28.5243 237.094 28.3435 237.311 28.0649C237.529 27.7862 237.627 27.4325 237.584 27.0815C237.541 26.7305 237.36 26.411 237.081 26.1933C236.803 25.9756 236.449 25.8775 236.098 25.9206L233.213 26.2748C232.947 25.7441 232.567 25.2791 232.099 24.9137C231.631 24.5482 231.088 24.2915 230.509 24.162L230.155 21.277C230.111 20.926 229.931 20.6065 229.652 20.3888C229.373 20.1711 229.02 20.073 228.669 20.1161C228.318 20.1592 227.998 20.34 227.78 20.6186C227.563 20.8973 227.465 21.251 227.508 21.602L227.833 24.2488L225.186 24.5738L224.861 21.927C224.818 21.576 224.637 21.2565 224.358 21.0388C224.08 20.8211 223.726 20.723 223.375 20.7661C223.024 20.8092 222.705 20.9899 222.487 21.2686C222.269 21.5472 222.171 21.901 222.214 22.252L222.539 24.8987L219.892 25.2237L219.567 22.5769C219.524 22.226 219.344 21.9065 219.065 21.6888C218.786 21.471 218.432 21.3729 218.081 21.416C217.73 21.4591 217.411 21.6399 217.193 21.9186C216.976 22.1972 216.877 22.5509 216.921 22.9019L217.275 25.7869C216.744 26.0527 216.279 26.4332 215.914 26.901C215.548 27.3687 215.291 27.9119 215.162 28.4912L212.277 28.8455C211.926 28.8886 211.606 29.0693 211.389 29.348C211.171 29.6266 211.073 29.9804 211.116 30.3314C211.159 30.6823 211.34 31.0018 211.619 31.2195C211.897 31.4373 212.251 31.5354 212.602 31.4923L215.249 31.1673L215.574 33.8141L212.927 34.1391C212.576 34.1821 212.256 34.3629 212.039 34.6416C211.821 34.9202 211.723 35.274 211.766 35.6249C211.809 35.9759 211.99 36.2954 212.269 36.5131C212.547 36.7308 212.901 36.8289 213.252 36.7858L215.899 36.4609L216.224 39.1076L213.577 39.4326C213.226 39.4757 212.906 39.6565 212.689 39.9351C212.471 40.2138 212.373 40.5675 212.416 40.9185C212.459 41.2695 212.64 41.589 212.919 41.8067C213.197 42.0244 213.551 42.1225 213.902 42.0794L216.787 41.7252C217.053 42.256 217.433 42.7209 217.901 43.0864C218.369 43.4518 218.912 43.7086 219.491 43.838L219.845 46.723C219.889 47.074 220.069 47.3935 220.348 47.6112C220.627 47.8289 220.98 47.927 221.331 47.8839C221.682 47.8408 222.002 47.6601 222.22 47.3814C222.437 47.1028 222.535 46.749 222.492 46.398L222.167 43.7513L224.814 43.4263L225.139 46.0731C225.182 46.4241 225.363 46.7435 225.642 46.9613C225.92 47.179 226.274 47.2771 226.625 47.234C226.976 47.1909 227.295 47.0101 227.513 46.7315C227.731 46.4528 227.829 46.0991 227.786 45.7481L227.461 43.1013L230.108 42.7763L230.433 45.4231C230.476 45.7741 230.656 46.0936 230.935 46.3113C231.214 46.529 231.568 46.6271 231.919 46.584C232.269 46.5409 232.589 46.3601 232.807 46.0815C233.024 45.8028 233.122 45.4491 233.079 45.0981L232.725 42.2131C233.256 41.9473 233.721 41.5668 234.086 41.0991C234.452 40.6313 234.709 40.0881 234.838 39.5088L237.723 39.1546C238.074 39.1115 238.393 38.9307 238.611 38.652C238.829 38.3734 238.927 38.0197 238.884 37.6687C238.841 37.3177 238.66 36.9982 238.381 36.7805C238.103 36.5628 237.749 36.4647 237.398 36.5078L234.751 36.8328L234.426 34.186L237.073 33.861ZM232.267 38.4811C232.31 38.8321 232.212 39.1859 231.994 39.4645C231.777 39.7432 231.457 39.9239 231.106 39.967L220.519 41.267C220.168 41.3101 219.814 41.212 219.535 40.9942C219.257 40.7765 219.076 40.457 219.033 40.1061L217.733 29.5189C217.69 29.1679 217.788 28.8142 218.006 28.5355C218.223 28.2569 218.543 28.0761 218.894 28.033L229.481 26.7331C229.832 26.69 230.186 26.7881 230.464 27.0058C230.743 27.2235 230.924 27.543 230.967 27.894L232.267 38.4811ZM227.809 34.9984C227.548 35.0306 227.301 35.1396 227.101 35.3117C226.902 35.4839 226.757 35.7114 226.687 35.9655C226.616 36.2196 226.623 36.4889 226.706 36.7394C226.788 36.9898 226.943 37.2101 227.151 37.3725C227.359 37.5349 227.61 37.6319 227.873 37.6515C228.136 37.671 228.399 37.6122 228.628 37.4823C228.858 37.3524 229.044 37.1574 229.162 36.922C229.281 36.6865 229.327 36.4211 229.295 36.1593C229.252 35.8083 229.071 35.4889 228.793 35.2711C228.514 35.0534 228.16 34.9553 227.809 34.9984Z" fill="#D9D9D9"/>
<path d="M215.229 99.1082L207.095 117.379C206.879 117.864 206.864 118.414 207.055 118.909C207.245 119.405 207.624 119.804 208.108 120.02L226.379 128.154C226.864 128.37 227.414 128.385 227.909 128.194C228.405 128.004 228.804 127.625 229.02 127.141L237.154 108.87C237.37 108.385 237.385 107.835 237.194 107.34C237.004 106.844 236.625 106.445 236.141 106.229L217.87 98.0946C217.385 97.8789 216.835 97.8644 216.34 98.0545C215.844 98.2446 215.445 98.6237 215.229 99.1082ZM223.745 119.319C223.825 119.139 223.958 118.986 224.125 118.88C224.292 118.775 224.487 118.721 224.685 118.726C224.882 118.731 225.074 118.795 225.236 118.909C225.397 119.023 225.521 119.183 225.592 119.368C225.663 119.552 225.678 119.754 225.634 119.947C225.59 120.14 225.49 120.315 225.347 120.451C225.203 120.587 225.023 120.678 224.828 120.711C224.633 120.745 224.432 120.72 224.252 120.639C224.01 120.532 223.82 120.332 223.725 120.084C223.63 119.837 223.637 119.561 223.745 119.319ZM208.922 118.193L210.549 114.538L221.669 119.489C221.613 120.195 221.808 120.897 222.22 121.473C222.632 122.048 223.234 122.459 223.92 122.634C224.606 122.808 225.332 122.734 225.968 122.426C226.605 122.117 227.112 121.593 227.4 120.947C227.688 120.3 227.738 119.573 227.541 118.893C227.345 118.213 226.914 117.624 226.325 117.231C225.737 116.838 225.028 116.666 224.325 116.745C223.622 116.824 222.969 117.149 222.482 117.662L219.048 116.134L226.97 113.093L232.073 115.365L227.193 126.327L208.922 118.193ZM235.327 108.056L232.887 113.538L227.406 111.097C227.286 111.044 227.156 111.014 227.025 111.011C226.894 111.007 226.763 111.03 226.64 111.077L216.465 114.983L211.362 112.711L212.989 109.057L215.73 110.277C215.85 110.331 215.979 110.36 216.11 110.364C216.242 110.367 216.372 110.345 216.495 110.298L219.136 109.284C219.425 109.625 219.788 109.896 220.197 110.077C220.739 110.319 221.341 110.394 221.926 110.293C222.51 110.193 223.052 109.921 223.483 109.513C223.913 109.104 224.213 108.577 224.344 107.999C224.475 107.42 224.431 106.815 224.218 106.261C224.006 105.708 223.634 105.229 223.149 104.887C222.664 104.544 222.089 104.353 221.496 104.338C220.903 104.322 220.319 104.483 219.817 104.799C219.315 105.116 218.918 105.574 218.677 106.116C218.494 106.525 218.406 106.969 218.42 107.417L216.165 108.282L213.803 107.23L217.056 99.9217L235.327 108.056ZM220.504 106.93C220.584 106.749 220.717 106.596 220.884 106.491C221.051 106.385 221.246 106.332 221.444 106.337C221.641 106.342 221.833 106.406 221.995 106.52C222.156 106.634 222.28 106.794 222.351 106.978C222.422 107.163 222.437 107.364 222.393 107.557C222.349 107.75 222.249 107.926 222.106 108.062C221.962 108.198 221.782 108.289 221.587 108.322C221.392 108.356 221.192 108.331 221.011 108.25C220.769 108.142 220.579 107.943 220.484 107.695C220.389 107.447 220.396 107.172 220.504 106.93Z" fill="#D9D9D9"/>
<path d="M416.476 28.2766L416.345 33.7603L420.381 37.4759L414.897 37.3454L411.181 41.3808L411.312 35.897L407.277 32.1814L412.76 32.3119L416.476 28.2766ZM419.323 21.23L411.618 29.6215L400.23 29.3344L408.621 37.039L408.334 48.4273L416.039 40.0358L427.427 40.3229L419.036 32.6183L419.323 21.23Z" fill="#D9D9D9"/>
<path d="M299 22H300.333M295.667 13.3333L297 12M287 10V8.66667M278.333 13.3333L277 12M275 22H273.667M284.333 35.3333H289.667M468.674 73.68L463.683 85.776C462.915 87.6 462.051 88.56 460.611 88.56C460.323 88.56 460.035 88.56 459.747 88.464C444.291 85.392 438.915 76.944 438.435 52.656L431.235 52.272C430.179 52.176 429.315 51.216 429.315 50.16L430.467 34.224C430.563 33.168 431.427 32.304 432.579 32.304L438.723 32.688C438.915 29.04 439.107 25.104 439.395 20.976C439.491 19.824 439.683 18 442.179 18H442.563L460.707 18.864C462.339 18.96 463.107 19.92 463.107 21.552C462.915 25.584 462.627 29.808 462.339 33.84L468.963 34.224C470.019 34.224 470.883 35.184 470.883 36.336L469.731 52.272C469.635 53.232 468.866 54.096 467.81 54.096H467.619L461.283 53.808C461.283 62.544 462.435 69.168 466.659 70.992C467.715 71.472 468.867 71.856 468.867 72.912C468.867 73.104 468.771 73.392 468.674 73.68ZM398.164 106.723L397.139 106.467C395.09 105.956 394.251 105.352 394.087 103.629L392.683 91.8016C392.659 91.4989 392.636 91.1962 392.682 91.0099C393.03 89.6127 394.94 89.8909 396.058 90.1696C401.577 91.4467 404.835 89.4888 405.392 87.2533C405.694 86.0423 404.855 84.25 403.969 82.2482L402.151 78.8267C399.213 73.1474 398.535 68.724 399.418 65.1844C402.042 54.6586 418.619 52.8553 430.821 55.8977C434.454 56.8034 435.293 57.4083 435.527 59.2475L437.024 71.0978C437.118 71.5169 437.048 71.7963 436.978 72.0758C436.723 73.1004 435.605 73.2175 434.395 72.9156L434.022 72.8227C428.433 71.4292 425.826 72.758 425.362 74.621C424.967 76.2045 425.923 78.3227 428.487 83.1175C431.611 88.8432 432.428 93.4994 431.546 97.039C428.805 108.031 410.646 109.835 398.164 106.723ZM392.627 86.008L373.811 84.952C369.203 86.392 364.691 87.16 360.467 87.16C347.123 87.16 336.755 79.672 335.891 61.816C335.603 55.576 335.411 43.672 335.315 37.528C335.315 33.592 336.659 32.824 337.811 32.728C337.907 32.536 352.787 31.48 354.419 31.48C356.339 31.48 357.107 32.44 357.203 33.592C357.779 40.024 357.971 45.208 358.547 56.632C358.931 64.888 361.811 67.768 365.843 67.768C367.763 67.768 370.067 67.096 372.467 65.944L374.195 32.92C374.291 31.768 375.251 31 376.307 31L395.411 32.056C396.563 32.056 397.331 33.016 397.331 34.168L394.739 84.088C394.643 85.24 393.683 86.008 392.627 86.008ZM342.188 85.7434L339.612 98.559C339.24 100.503 338.501 101.641 337.092 101.941C337.092 101.941 328.837 102.812 322.461 98.6714C317.821 102.7 312.654 105.172 307.49 106.27C291.808 109.603 275.825 100.438 272.612 85.3199C270.177 73.8638 274.745 56.11 293.338 52.158C297.376 51.2998 301.593 51.2866 305.233 51.7888L301.574 26.2637C301.329 24.6474 302.631 23.3891 304.51 22.9899L320.814 19.8186C323.444 19.2597 324.454 20.3208 324.734 21.6354L324.794 21.9171C324.865 23.1778 330.184 62.9737 331.561 69.4529C333.198 77.1529 335.542 82.6414 339.751 83.5133C340.884 83.7633 342.017 84.0132 342.196 84.8584C342.256 85.1401 342.316 85.4218 342.188 85.7434ZM312.68 85.4398C311.125 81.3539 309.691 76.4569 308.414 70.4472C306.982 68.7887 304.073 68.0329 301.256 68.6317C295.622 69.8293 293.151 75.7524 294.269 81.0109C295.387 86.2694 300.007 89.9983 306.017 88.7209C308.083 88.2818 310.31 87.2194 312.68 85.4398ZM258.324 105.519L239.216 102.834C238.17 102.687 237.435 101.711 237.582 100.665L248.497 22.9964C248.658 21.8556 249.634 21.1203 250.679 21.2672L269.787 23.9527C270.833 24.0997 271.569 25.0755 271.408 26.2163L260.493 103.885C260.346 104.931 259.37 105.666 258.324 105.519ZM200.51 107.032L199.484 106.509C180.067 96.616 177.071 78.3894 183.696 65.3878C189.928 53.1561 205.105 44.7275 224.607 54.6644C245.82 65.473 237.129 84.856 235.691 87.6788C233.686 91.6134 230.405 94.0357 224.487 93.1751C219.769 92.4953 212.96 90.211 208.425 88.1158C207.056 87.4184 206.934 86.6018 207.115 85.401C207.526 82.0553 208.734 75.6673 208.908 75.3252C209.388 74.3843 210.29 74.3053 211.533 74.6152C216.504 75.8551 217.19 75.9891 217.8 74.7916C218.192 74.0218 217.961 70.4565 214.369 68.626C210.263 66.534 205.011 68.3833 202.309 73.6865C199.215 79.7596 200.176 88.8689 210.868 94.3168C211.467 94.6219 212.151 94.9705 212.793 95.1901L212.964 95.2772C214.162 95.8874 215.224 97.3981 214.483 98.8523C214.047 99.7076 208.859 104.391 206.095 106.645C204.713 107.665 202.991 108.296 200.51 107.032ZM178.699 94.248L164.683 101.64C163.531 102.312 162.667 102.6 161.899 102.6C160.939 102.6 160.075 102.12 159.019 100.968L149.419 89.832C144.811 93.384 139.723 96.84 135.979 99.432C134.923 100.104 134.059 100.584 133.099 100.584C132.523 100.584 131.851 100.392 131.179 99.816L119.851 90.696C118.795 89.832 118.315 88.968 118.315 88.2C118.315 87.528 118.603 86.856 119.371 86.184C122.635 83.304 128.875 77.928 134.539 72.648L121.771 57.768C121.003 56.904 120.715 56.136 120.715 55.464C120.715 54.504 121.483 53.64 122.635 53.064L137.131 45.576C137.899 45.192 138.571 45 139.243 45C140.491 45 141.643 45.672 142.507 46.728L151.723 57.48L161.707 47.4C162.379 46.728 163.051 46.248 163.915 46.248C164.683 46.248 165.547 46.632 166.603 47.496L179.179 57.48C180.043 58.152 180.427 58.728 180.427 59.4C180.427 62.664 169.099 73.608 167.179 75.432L179.563 89.736C180.235 90.504 180.523 91.176 180.523 91.848C180.523 92.808 179.851 93.672 178.699 94.248ZM108.013 109.922L89.0896 106.538L88.9025 106.495C87.8736 106.257 87.3196 105.243 87.4636 104.192L95.642 58.0987C95.9012 56.9762 96.8439 56.3071 97.9879 56.4727L116.912 59.8564L117.099 59.8996C118.034 60.1155 118.682 61.1517 118.466 62.0871L110.266 108.274L110.223 108.461C110.007 109.397 108.97 110.044 108.013 109.922ZM123.914 45.3149C122.165 52.8916 114.566 57.64 106.99 55.8907C99.3193 54.1199 94.571 46.521 96.3202 38.9443C98.091 31.2741 105.69 26.5258 113.36 28.2966C120.937 30.0458 125.685 37.6447 123.914 45.3149ZM61.2421 110.931L42.8389 116.506C41.9368 116.834 40.8294 116.317 40.4682 115.325L40.4025 115.145L18.0721 42.5651C17.8012 41.5399 18.3176 40.4325 19.2197 40.1042L19.4001 40.0385L34.7607 35.3672C38.1145 32.5119 41.821 30.3456 45.6099 28.9665C61.4869 23.1878 79.9429 29.5469 85.9187 45.9653C91.8945 62.3836 84.0332 76.9933 66.9835 83.199C63.1946 84.578 59.299 85.3829 55.5672 85.5152L62.5701 108.405C62.8739 109.52 62.3247 110.537 61.2421 110.931ZM44.6975 50.0373L50.272 68.4406C52.6178 68.7106 55.4965 68.4801 58.0224 67.5607C58.7441 67.298 67.4043 64.146 63.7926 54.2228C61.5271 47.9983 55.2601 45.3756 48.9453 47.6739C47.502 48.1993 46.0669 49.0281 44.6975 50.0373ZM137.849 23.1654C137.55 22.56 136.69 22.6828 136.634 23.3378L135.181 40.2004C135.132 40.7567 135.742 41.1583 136.192 40.8664L144.006 35.7918C144.325 35.5848 144.766 35.7229 144.945 36.0879L148.419 43.101C148.716 43.7059 149.575 43.5838 149.632 42.9281L151.085 26.0656C151.134 25.5092 150.524 25.1076 150.074 25.3995L142.26 30.4741C141.941 30.6811 141.5 30.543 141.321 30.178L137.849 23.1654ZM443.566 85.2955C443.527 84.6214 442.688 84.3984 442.38 84.9794L434.454 99.9336C434.191 100.427 434.596 101.035 435.124 100.942L444.3 99.3239C444.674 99.2579 445.026 99.5573 445.049 99.9635L445.506 107.776C445.543 108.449 446.382 108.672 446.691 108.091L454.617 93.137C454.879 92.644 454.474 92.0357 453.946 92.1288L444.771 93.7467C444.396 93.8127 444.044 93.5133 444.022 93.1071L443.566 85.2955ZM222.516 35.6484C222.254 35.6805 222.008 35.7896 221.808 35.9617C221.608 36.1338 221.464 36.3614 221.393 36.6155C221.323 36.8696 221.329 37.1389 221.412 37.3893C221.495 37.6398 221.649 37.8601 221.857 38.0225C222.065 38.1848 222.316 38.2819 222.579 38.3015C222.842 38.321 223.105 38.2621 223.335 38.1323C223.564 38.0024 223.75 37.8074 223.869 37.5719C223.988 37.3364 224.034 37.071 224.002 36.8093C223.958 36.4583 223.778 36.1388 223.499 35.9211C223.22 35.7034 222.867 35.6053 222.516 35.6484ZM221.866 30.3548C221.604 30.387 221.358 30.496 221.158 30.6681C220.958 30.8403 220.814 31.0678 220.743 31.3219C220.673 31.576 220.679 31.8453 220.762 32.0958C220.845 32.3462 221 32.5665 221.207 32.7289C221.415 32.8912 221.666 32.9883 221.929 33.0079C222.192 33.0274 222.455 32.9685 222.685 32.8387C222.914 32.7088 223.1 32.5138 223.219 32.2783C223.338 32.0429 223.384 31.7775 223.352 31.5157C223.309 31.1647 223.128 30.8452 222.849 30.6275C222.57 30.4098 222.217 30.3117 221.866 30.3548ZM227.159 29.7048C226.898 29.737 226.651 29.846 226.451 30.0182C226.252 30.1903 226.107 30.4178 226.037 30.6719C225.966 30.926 225.973 31.1954 226.056 31.4458C226.138 31.6962 226.293 31.9166 226.501 32.0789C226.709 32.2413 226.96 32.3384 227.223 32.3579C227.486 32.3775 227.749 32.3186 227.978 32.1887C228.208 32.0589 228.394 31.8639 228.512 31.6284C228.631 31.3929 228.677 31.1275 228.645 30.8657C228.602 30.5148 228.421 30.1953 228.143 29.9776C227.864 29.7598 227.51 29.6618 227.159 29.7048ZM237.073 33.861C237.424 33.8179 237.744 33.6371 237.961 33.3585C238.179 33.0798 238.277 32.7261 238.234 32.3751C238.191 32.0241 238.01 31.7046 237.731 31.4869C237.453 31.2692 237.099 31.1711 236.748 31.2142L234.101 31.5392L233.776 28.8924L236.423 28.5674C236.774 28.5243 237.094 28.3435 237.311 28.0649C237.529 27.7862 237.627 27.4325 237.584 27.0815C237.541 26.7305 237.36 26.411 237.081 26.1933C236.803 25.9756 236.449 25.8775 236.098 25.9206L233.213 26.2748C232.947 25.7441 232.567 25.2791 232.099 24.9137C231.631 24.5482 231.088 24.2915 230.509 24.162L230.155 21.277C230.111 20.926 229.931 20.6065 229.652 20.3888C229.373 20.1711 229.02 20.073 228.669 20.1161C228.318 20.1592 227.998 20.34 227.78 20.6186C227.563 20.8973 227.465 21.251 227.508 21.602L227.833 24.2488L225.186 24.5738L224.861 21.927C224.818 21.576 224.637 21.2565 224.358 21.0388C224.08 20.8211 223.726 20.723 223.375 20.7661C223.024 20.8092 222.705 20.9899 222.487 21.2686C222.269 21.5472 222.171 21.901 222.214 22.252L222.539 24.8987L219.892 25.2237L219.567 22.5769C219.524 22.226 219.344 21.9065 219.065 21.6888C218.786 21.471 218.432 21.3729 218.081 21.416C217.73 21.4591 217.411 21.6399 217.193 21.9186C216.976 22.1972 216.877 22.5509 216.921 22.9019L217.275 25.7869C216.744 26.0527 216.279 26.4332 215.914 26.901C215.548 27.3687 215.291 27.9119 215.162 28.4912L212.277 28.8455C211.926 28.8886 211.606 29.0693 211.389 29.348C211.171 29.6266 211.073 29.9804 211.116 30.3314C211.159 30.6823 211.34 31.0018 211.619 31.2195C211.897 31.4373 212.251 31.5354 212.602 31.4923L215.249 31.1673L215.574 33.8141L212.927 34.1391C212.576 34.1821 212.256 34.3629 212.039 34.6416C211.821 34.9202 211.723 35.274 211.766 35.6249C211.809 35.9759 211.99 36.2954 212.269 36.5131C212.547 36.7308 212.901 36.8289 213.252 36.7858L215.899 36.4609L216.224 39.1076L213.577 39.4326C213.226 39.4757 212.906 39.6565 212.689 39.9351C212.471 40.2138 212.373 40.5675 212.416 40.9185C212.459 41.2695 212.64 41.589 212.919 41.8067C213.197 42.0244 213.551 42.1225 213.902 42.0794L216.787 41.7252C217.053 42.256 217.433 42.7209 217.901 43.0864C218.369 43.4518 218.912 43.7086 219.491 43.838L219.845 46.723C219.889 47.074 220.069 47.3935 220.348 47.6112C220.627 47.8289 220.98 47.927 221.331 47.8839C221.682 47.8408 222.002 47.6601 222.22 47.3814C222.437 47.1028 222.535 46.749 222.492 46.398L222.167 43.7513L224.814 43.4263L225.139 46.0731C225.182 46.4241 225.363 46.7435 225.642 46.9613C225.92 47.179 226.274 47.2771 226.625 47.234C226.976 47.1909 227.295 47.0101 227.513 46.7315C227.731 46.4528 227.829 46.0991 227.786 45.7481L227.461 43.1013L230.108 42.7763L230.433 45.4231C230.476 45.7741 230.656 46.0936 230.935 46.3113C231.214 46.529 231.568 46.6271 231.919 46.584C232.269 46.5409 232.589 46.3601 232.807 46.0815C233.024 45.8028 233.122 45.4491 233.079 45.0981L232.725 42.2131C233.256 41.9473 233.721 41.5668 234.086 41.0991C234.452 40.6313 234.709 40.0881 234.838 39.5088L237.723 39.1546C238.074 39.1115 238.393 38.9307 238.611 38.652C238.829 38.3734 238.927 38.0197 238.884 37.6687C238.841 37.3177 238.66 36.9982 238.381 36.7805C238.103 36.5628 237.749 36.4647 237.398 36.5078L234.751 36.8328L234.426 34.186L237.073 33.861ZM232.267 38.4811C232.31 38.8321 232.212 39.1859 231.994 39.4645C231.777 39.7432 231.457 39.9239 231.106 39.967L220.519 41.267C220.168 41.3101 219.814 41.212 219.535 40.9942C219.257 40.7765 219.076 40.457 219.033 40.1061L217.733 29.5189C217.69 29.1679 217.788 28.8142 218.006 28.5355C218.223 28.2569 218.543 28.0761 218.894 28.033L229.481 26.7331C229.832 26.69 230.186 26.7881 230.464 27.0058C230.743 27.2235 230.924 27.543 230.967 27.894L232.267 38.4811ZM227.809 34.9984C227.548 35.0306 227.301 35.1396 227.101 35.3117C226.902 35.4839 226.757 35.7114 226.687 35.9655C226.616 36.2196 226.623 36.4889 226.706 36.7394C226.788 36.9898 226.943 37.2101 227.151 37.3725C227.359 37.5349 227.61 37.6319 227.873 37.6515C228.136 37.671 228.399 37.6122 228.628 37.4823C228.858 37.3524 229.044 37.1574 229.162 36.922C229.281 36.6865 229.327 36.4211 229.295 36.1593C229.252 35.8083 229.071 35.4889 228.793 35.2711C228.514 35.0534 228.16 34.9553 227.809 34.9984ZM215.229 99.1082L207.095 117.379C206.879 117.864 206.864 118.414 207.055 118.909C207.245 119.405 207.624 119.804 208.108 120.02L226.379 128.154C226.864 128.37 227.414 128.385 227.909 128.194C228.405 128.004 228.804 127.625 229.02 127.141L237.154 108.87C237.37 108.385 237.385 107.835 237.194 107.34C237.004 106.844 236.625 106.445 236.141 106.229L217.87 98.0946C217.385 97.8789 216.835 97.8644 216.34 98.0545C215.844 98.2446 215.445 98.6237 215.229 99.1082ZM223.745 119.319C223.825 119.139 223.958 118.986 224.125 118.88C224.292 118.775 224.487 118.721 224.685 118.726C224.882 118.731 225.074 118.795 225.236 118.909C225.397 119.023 225.521 119.183 225.592 119.368C225.663 119.552 225.678 119.754 225.634 119.947C225.59 120.14 225.49 120.315 225.347 120.451C225.203 120.587 225.023 120.678 224.828 120.711C224.633 120.745 224.432 120.72 224.252 120.639C224.01 120.532 223.82 120.332 223.725 120.084C223.63 119.837 223.637 119.561 223.745 119.319ZM208.922 118.193L210.549 114.538L221.669 119.489C221.613 120.195 221.808 120.897 222.22 121.473C222.632 122.048 223.234 122.459 223.92 122.634C224.606 122.808 225.332 122.734 225.968 122.426C226.605 122.117 227.112 121.593 227.4 120.947C227.688 120.3 227.738 119.573 227.541 118.893C227.345 118.213 226.914 117.624 226.325 117.231C225.737 116.838 225.028 116.666 224.325 116.745C223.622 116.824 222.969 117.149 222.482 117.662L219.048 116.134L226.97 113.093L232.073 115.365L227.193 126.327L208.922 118.193ZM235.327 108.056L232.887 113.538L227.406 111.097C227.286 111.044 227.156 111.014 227.025 111.011C226.894 111.007 226.763 111.03 226.64 111.077L216.465 114.983L211.362 112.711L212.989 109.057L215.73 110.277C215.85 110.331 215.979 110.36 216.11 110.364C216.242 110.367 216.372 110.345 216.495 110.298L219.136 109.284C219.425 109.625 219.788 109.896 220.197 110.077C220.739 110.319 221.341 110.394 221.926 110.293C222.51 110.193 223.052 109.921 223.483 109.513C223.913 109.104 224.213 108.577 224.344 107.999C224.475 107.42 224.431 106.815 224.218 106.261C224.006 105.708 223.634 105.229 223.149 104.887C222.664 104.544 222.089 104.353 221.496 104.338C220.903 104.322 220.319 104.483 219.817 104.799C219.315 105.116 218.918 105.574 218.677 106.116C218.494 106.525 218.406 106.969 218.42 107.417L216.165 108.282L213.803 107.23L217.056 99.9217L235.327 108.056ZM220.504 106.93C220.584 106.749 220.717 106.596 220.884 106.491C221.051 106.385 221.246 106.332 221.444 106.337C221.641 106.342 221.833 106.406 221.995 106.52C222.156 106.634 222.28 106.794 222.351 106.978C222.422 107.163 222.437 107.364 222.393 107.557C222.349 107.75 222.249 107.926 222.106 108.062C221.962 108.198 221.782 108.289 221.587 108.322C221.392 108.356 221.192 108.331 221.011 108.25C220.769 108.142 220.579 107.943 220.484 107.695C220.389 107.447 220.396 107.172 220.504 106.93ZM293.667 22C293.666 20.7982 293.341 19.6187 292.725 18.5866C292.11 17.5544 291.226 16.7079 290.169 16.1366C289.112 15.5653 287.919 15.2905 286.719 15.3412C285.518 15.3919 284.353 15.7663 283.348 16.4247C282.342 17.0831 281.534 18.0011 281.007 19.0815C280.481 20.1619 280.256 21.3645 280.357 22.5621C280.458 23.7597 280.881 24.9078 281.581 25.8847C282.281 26.8617 283.232 27.6313 284.333 28.112V31.3333H289.667V28.112C290.856 27.593 291.868 26.7383 292.578 25.6526C293.289 24.5669 293.667 23.2975 293.667 22ZM71.581 106.458L92.0428 111.182C93.119 111.431 93.7901 112.505 93.5416 113.581L88.8176 134.043C88.5692 135.119 87.4953 135.79 86.419 135.542L65.9572 130.818C64.881 130.569 64.2099 129.495 64.4584 128.419L69.1824 107.957C69.4308 106.881 70.5047 106.21 71.581 106.458ZM85.8206 122.575C84.9509 126.342 81.1922 128.69 77.4253 127.821C73.6584 126.951 71.3097 123.192 72.1794 119.425C73.0491 115.658 76.8077 113.31 80.5747 114.179C84.3416 115.049 86.6902 118.808 85.8206 122.575ZM67.8706 109.194C68.4087 109.318 68.7442 109.855 68.62 110.393L67.9451 113.316C67.8209 113.854 67.2839 114.19 66.7458 114.066C66.2077 113.941 65.8722 113.404 65.9964 112.866L66.6712 109.943C66.7955 109.405 67.3324 109.07 67.8706 109.194ZM94.1786 115.267C94.7167 115.392 95.0522 115.929 94.928 116.467L94.2531 119.39C94.1289 119.928 93.5919 120.264 93.0538 120.139C92.5157 120.015 92.1801 119.478 92.3044 118.94L92.9792 116.017C93.1035 115.479 93.6404 115.143 94.1786 115.267ZM64.9462 121.861C65.4843 121.985 65.8199 122.522 65.6956 123.06L65.0208 125.983C64.8965 126.521 64.3596 126.857 63.8214 126.732C63.2833 126.608 62.9478 126.071 63.072 125.533L63.7469 122.61C63.8711 122.072 64.4081 121.736 64.9462 121.861ZM91.2542 127.934C91.7923 128.059 92.1278 128.595 92.0036 129.134L91.3288 132.057C91.2045 132.595 90.6676 132.93 90.1294 132.806C89.5913 132.682 89.2558 132.145 89.38 131.607L90.0549 128.684C90.1791 128.146 90.7161 127.81 91.2542 127.934ZM354.252 94.6688L374.438 88.8804C375.5 88.576 376.607 89.1899 376.912 90.2517L382.7 110.438C383.005 111.5 382.391 112.607 381.329 112.912L361.143 118.7C360.081 119.005 358.973 118.391 358.669 117.329L352.88 97.1426C352.576 96.0808 353.19 94.9733 354.252 94.6688ZM374.519 101.861C375.585 105.577 373.436 109.454 369.72 110.519C366.004 111.585 362.127 109.436 361.062 105.72C359.996 102.004 362.145 98.1272 365.861 97.0615C369.577 95.9959 373.454 98.1447 374.519 101.861ZM352.333 98.8601C352.864 98.7079 353.417 99.0149 353.57 99.5457L354.396 102.43C354.549 102.96 354.242 103.514 353.711 103.666C353.18 103.819 352.626 103.512 352.474 102.981L351.647 100.097C351.495 99.5661 351.802 99.0124 352.333 98.8601ZM378.287 91.4179C378.818 91.2657 379.371 91.5727 379.524 92.1035L380.35 94.9873C380.503 95.5182 380.196 96.072 379.665 96.2242C379.134 96.3765 378.58 96.0695 378.428 95.5386L377.601 92.6548C377.449 92.1239 377.756 91.5701 378.287 91.4179ZM355.916 111.357C356.447 111.204 357.001 111.511 357.153 112.042L357.98 114.926C358.132 115.457 357.825 116.011 357.294 116.163C356.763 116.315 356.209 116.008 356.057 115.477L355.23 112.593C355.078 112.063 355.385 111.509 355.916 111.357ZM381.87 103.914C382.401 103.762 382.955 104.069 383.107 104.6L383.934 107.484C384.086 108.015 383.779 108.568 383.248 108.721C382.717 108.873 382.163 108.566 382.011 108.035L381.184 105.151C381.032 104.62 381.339 104.067 381.87 103.914ZM416.476 28.2766L416.345 33.7603L420.381 37.4759L414.897 37.3454L411.181 41.3808L411.312 35.897L407.277 32.1814L412.76 32.3119L416.476 28.2766ZM419.323 21.23L411.618 29.6215L400.23 29.3344L408.621 37.039L408.334 48.4273L416.039 40.0358L427.427 40.3229L419.036 32.6183L419.323 21.23Z" stroke="#A2DAFF" stroke-width="26.3" stroke-linejoin="round"/>
<path d="M79 43.5V88.5L72 23H55L27 30L10 43.5L38.5 114.5H50L66 134L94 136.5L109 104.5L178 101L209.5 117.5L233.5 126L245 107.5L274.5 101H331.5L361.5 114.5L415 101L451 111.5L470 46L458.5 17.5L390 30L335 26.5L321.5 17.5H256L245 30L221 17.5L209.5 23L212.5 43.5L183 57L154 43.5L150.5 30L142.5 23L128 30H109L79 43.5Z" fill="#A2DAFF"/>
<path d="M468.674 73.68L463.683 85.776C462.915 87.6 462.051 88.56 460.611 88.56C460.323 88.56 460.035 88.56 459.747 88.464C444.291 85.392 438.915 76.944 438.435 52.656L431.235 52.272C430.179 52.176 429.315 51.216 429.315 50.16L430.467 34.224C430.563 33.168 431.427 32.304 432.579 32.304L438.723 32.688C438.915 29.04 439.107 25.104 439.395 20.976C439.491 19.824 439.683 18 442.179 18H442.563L460.707 18.864C462.339 18.96 463.107 19.92 463.107 21.552C462.915 25.584 462.627 29.808 462.339 33.84L468.963 34.224C470.019 34.224 470.883 35.184 470.883 36.336L469.731 52.272C469.635 53.232 468.866 54.096 467.81 54.096H467.619L461.283 53.808C461.283 62.544 462.435 69.168 466.659 70.992C467.715 71.472 468.867 71.856 468.867 72.912C468.867 73.104 468.771 73.392 468.674 73.68Z" fill="#60D2FF"/>
<path d="M398.164 106.723L397.139 106.467C395.09 105.956 394.251 105.352 394.087 103.629L392.683 91.8016C392.659 91.4989 392.636 91.1962 392.682 91.0099C393.03 89.6127 394.94 89.8909 396.058 90.1696C401.577 91.4467 404.835 89.4888 405.392 87.2533C405.694 86.0423 404.855 84.25 403.969 82.2482L402.151 78.8267C399.213 73.1474 398.535 68.724 399.418 65.1844C402.042 54.6586 418.619 52.8553 430.821 55.8977C434.454 56.8034 435.293 57.4083 435.527 59.2475L437.024 71.0978C437.118 71.5169 437.048 71.7963 436.978 72.0758C436.723 73.1004 435.605 73.2175 434.395 72.9156L434.022 72.8227C428.433 71.4292 425.826 72.758 425.362 74.621C424.967 76.2045 425.923 78.3227 428.487 83.1175C431.611 88.8432 432.428 93.4994 431.546 97.039C428.805 108.031 410.646 109.835 398.164 106.723Z" fill="#60D2FF"/>
<path d="M392.627 86.008L373.811 84.952C369.203 86.392 364.691 87.16 360.467 87.16C347.123 87.16 336.755 79.672 335.891 61.816C335.603 55.576 335.411 43.672 335.315 37.528C335.315 33.592 336.659 32.824 337.811 32.728C337.907 32.536 352.787 31.48 354.419 31.48C356.339 31.48 357.107 32.44 357.203 33.592C357.779 40.024 357.971 45.208 358.547 56.632C358.931 64.888 361.811 67.768 365.843 67.768C367.763 67.768 370.067 67.096 372.467 65.944L374.195 32.92C374.291 31.768 375.251 31 376.307 31L395.411 32.056C396.563 32.056 397.331 33.016 397.331 34.168L394.739 84.088C394.643 85.24 393.683 86.008 392.627 86.008Z" fill="#60D2FF"/>
<path d="M342.188 85.7434L339.612 98.559C339.24 100.503 338.501 101.641 337.092 101.941C337.092 101.941 328.837 102.812 322.461 98.6714C317.821 102.7 312.654 105.172 307.49 106.27C291.808 109.603 275.825 100.438 272.612 85.3199C270.177 73.8638 274.745 56.11 293.338 52.158C297.376 51.2997 301.593 51.2866 305.233 51.7888L301.574 26.2637C301.329 24.6474 302.631 23.3891 304.51 22.9899L320.814 19.8186C323.444 19.2597 324.454 20.3208 324.734 21.6354L324.794 21.9171C324.865 23.1778 330.184 62.9737 331.561 69.4529C333.198 77.1529 335.542 82.6414 339.751 83.5133C340.884 83.7633 342.017 84.0132 342.196 84.8584C342.256 85.1401 342.316 85.4218 342.188 85.7434ZM312.68 85.4398C311.125 81.3539 309.691 76.4569 308.414 70.4472C306.982 68.7887 304.073 68.0329 301.256 68.6317C295.622 69.8293 293.151 75.7524 294.269 81.0109C295.387 86.2694 300.007 89.9983 306.017 88.7209C308.083 88.2818 310.31 87.2194 312.68 85.4398Z" fill="#60D2FF"/>
<path d="M258.324 105.519L239.216 102.834C238.17 102.687 237.435 101.711 237.582 100.665L248.497 22.9964C248.658 21.8556 249.634 21.1202 250.679 21.2672L269.787 23.9527C270.833 24.0997 271.569 25.0755 271.408 26.2163L260.493 103.885C260.346 104.931 259.37 105.666 258.324 105.519Z" fill="#60D2FF"/>
<path d="M200.51 107.032L199.484 106.509C180.067 96.616 177.071 78.3894 183.696 65.3878C189.928 53.1561 205.105 44.7275 224.607 54.6644C245.82 65.473 237.129 84.856 235.691 87.6787C233.686 91.6134 230.405 94.0357 224.487 93.1751C219.769 92.4953 212.96 90.211 208.425 88.1158C207.056 87.4184 206.934 86.6018 207.115 85.401C207.526 82.0553 208.734 75.6673 208.908 75.3252C209.388 74.3843 210.29 74.3053 211.533 74.6152C216.504 75.8551 217.19 75.9891 217.8 74.7916C218.192 74.0218 217.961 70.4565 214.369 68.626C210.263 66.534 205.011 68.3833 202.309 73.6865C199.215 79.7596 200.176 88.8689 210.868 94.3168C211.467 94.6219 212.151 94.9705 212.793 95.1901L212.964 95.2772C214.162 95.8874 215.224 97.3981 214.483 98.8523C214.047 99.7076 208.859 104.391 206.095 106.645C204.713 107.665 202.991 108.296 200.51 107.032Z" fill="#60D2FF"/>
<path d="M178.699 94.248L164.683 101.64C163.531 102.312 162.667 102.6 161.899 102.6C160.939 102.6 160.075 102.12 159.019 100.968L149.419 89.832C144.811 93.384 139.723 96.84 135.979 99.432C134.923 100.104 134.059 100.584 133.099 100.584C132.523 100.584 131.851 100.392 131.179 99.816L119.851 90.696C118.795 89.832 118.315 88.968 118.315 88.2C118.315 87.528 118.603 86.856 119.371 86.184C122.635 83.304 128.875 77.928 134.539 72.648L121.771 57.768C121.003 56.904 120.715 56.136 120.715 55.464C120.715 54.504 121.483 53.64 122.635 53.064L137.131 45.576C137.899 45.192 138.571 45 139.243 45C140.491 45 141.643 45.672 142.507 46.728L151.723 57.48L161.707 47.4C162.379 46.728 163.051 46.248 163.915 46.248C164.683 46.248 165.547 46.632 166.603 47.496L179.179 57.48C180.043 58.152 180.427 58.728 180.427 59.4C180.427 62.664 169.099 73.608 167.179 75.432L179.563 89.736C180.235 90.504 180.523 91.176 180.523 91.848C180.523 92.808 179.851 93.672 178.699 94.248Z" fill="#60D2FF"/>
<path d="M108.013 109.922L89.0896 106.538L88.9025 106.495C87.8736 106.257 87.3196 105.243 87.4636 104.192L95.642 58.0987C95.9012 56.9762 96.8439 56.3071 97.9879 56.4727L116.912 59.8564L117.099 59.8996C118.034 60.1155 118.682 61.1517 118.466 62.0871L110.266 108.274L110.223 108.461C110.007 109.397 108.97 110.044 108.013 109.922ZM123.914 45.3149C122.165 52.8916 114.566 57.64 106.99 55.8907C99.3193 54.1199 94.571 46.521 96.3202 38.9443C98.091 31.2741 105.69 26.5258 113.36 28.2966C120.937 30.0458 125.685 37.6447 123.914 45.3149Z" fill="#60D2FF"/>
<path d="M61.2421 110.931L42.8389 116.506C41.9368 116.834 40.8294 116.317 40.4682 115.325L40.4025 115.145L18.0721 42.5651C17.8012 41.5399 18.3176 40.4325 19.2197 40.1042L19.4001 40.0385L34.7607 35.3672C38.1145 32.5119 41.821 30.3456 45.6099 28.9665C61.4869 23.1878 79.9429 29.5469 85.9187 45.9653C91.8945 62.3836 84.0332 76.9933 66.9835 83.199C63.1946 84.578 59.299 85.3829 55.5672 85.5152L62.5701 108.405C62.8739 109.52 62.3247 110.537 61.2421 110.931ZM44.6975 50.0373L50.272 68.4406C52.6178 68.7106 55.4965 68.4801 58.0224 67.5607C58.7441 67.298 67.4043 64.146 63.7926 54.2228C61.5271 47.9983 55.2601 45.3756 48.9453 47.6739C47.502 48.1993 46.0669 49.0281 44.6975 50.0373Z" fill="#60D2FF"/>
<mask id="mask0_1_2" style="mask-type:alpha" maskUnits="userSpaceOnUse" x="18" y="18" width="453" height="99">
<path d="M468.674 73.68L463.683 85.776C462.915 87.6 462.051 88.56 460.611 88.56C460.323 88.56 460.035 88.56 459.747 88.464C444.291 85.392 438.915 76.944 438.435 52.656L431.235 52.272C430.179 52.176 429.315 51.216 429.315 50.16L430.467 34.224C430.563 33.168 431.427 32.304 432.579 32.304L438.723 32.688C438.915 29.04 439.107 25.104 439.395 20.976C439.491 19.824 439.683 18 442.179 18H442.563L460.707 18.864C462.339 18.96 463.107 19.92 463.107 21.552C462.915 25.584 462.627 29.808 462.339 33.84L468.963 34.224C470.019 34.224 470.883 35.184 470.883 36.336L469.731 52.272C469.635 53.232 468.866 54.096 467.81 54.096H467.619L461.283 53.808C461.283 62.544 462.435 69.168 466.659 70.992C467.715 71.472 468.867 71.856 468.867 72.912C468.867 73.104 468.771 73.392 468.674 73.68Z" fill="black"/>
<path d="M398.164 106.723L397.139 106.467C395.09 105.956 394.251 105.352 394.087 103.629L392.683 91.8016C392.659 91.4989 392.636 91.1962 392.682 91.0099C393.03 89.6127 394.94 89.8909 396.058 90.1696C401.577 91.4467 404.835 89.4888 405.392 87.2533C405.694 86.0423 404.855 84.25 403.969 82.2482L402.151 78.8267C399.213 73.1474 398.535 68.724 399.418 65.1844C402.042 54.6586 418.619 52.8553 430.821 55.8977C434.454 56.8034 435.293 57.4083 435.527 59.2475L437.024 71.0978C437.118 71.5169 437.048 71.7963 436.978 72.0758C436.723 73.1004 435.605 73.2175 434.395 72.9156L434.022 72.8227C428.433 71.4292 425.826 72.758 425.362 74.621C424.967 76.2045 425.923 78.3227 428.487 83.1175C431.611 88.8432 432.428 93.4994 431.546 97.039C428.805 108.031 410.646 109.835 398.164 106.723Z" fill="black"/>
<path d="M392.627 86.008L373.811 84.952C369.203 86.392 364.691 87.16 360.467 87.16C347.123 87.16 336.755 79.672 335.891 61.816C335.603 55.576 335.411 43.672 335.315 37.528C335.315 33.592 336.659 32.824 337.811 32.728C337.907 32.536 352.787 31.48 354.419 31.48C356.339 31.48 357.107 32.44 357.203 33.592C357.779 40.024 357.971 45.208 358.547 56.632C358.931 64.888 361.811 67.768 365.843 67.768C367.763 67.768 370.067 67.096 372.467 65.944L374.195 32.92C374.291 31.768 375.251 31 376.307 31L395.411 32.056C396.563 32.056 397.331 33.016 397.331 34.168L394.739 84.088C394.643 85.24 393.683 86.008 392.627 86.008Z" fill="black"/>
<path d="M342.188 85.7434L339.612 98.559C339.24 100.503 338.501 101.641 337.092 101.941C337.092 101.941 328.837 102.812 322.461 98.6714C317.821 102.7 312.654 105.172 307.49 106.27C291.808 109.603 275.825 100.438 272.612 85.3199C270.177 73.8638 274.745 56.11 293.338 52.158C297.376 51.2997 301.593 51.2866 305.233 51.7888L301.574 26.2637C301.329 24.6474 302.631 23.3891 304.51 22.9899L320.814 19.8186C323.444 19.2597 324.454 20.3208 324.734 21.6354L324.794 21.9171C324.865 23.1778 330.184 62.9737 331.561 69.4529C333.198 77.1529 335.542 82.6414 339.751 83.5133C340.884 83.7633 342.017 84.0132 342.196 84.8584C342.256 85.1401 342.316 85.4218 342.188 85.7434ZM312.68 85.4398C311.125 81.3539 309.691 76.4569 308.414 70.4472C306.982 68.7887 304.073 68.0329 301.256 68.6317C295.622 69.8293 293.151 75.7524 294.269 81.0109C295.387 86.2694 300.007 89.9983 306.017 88.7209C308.083 88.2818 310.31 87.2194 312.68 85.4398Z" fill="black"/>
<path d="M258.324 105.519L239.216 102.834C238.17 102.687 237.435 101.711 237.582 100.665L248.497 22.9964C248.658 21.8556 249.634 21.1202 250.679 21.2672L269.787 23.9527C270.833 24.0997 271.569 25.0755 271.408 26.2163L260.493 103.885C260.346 104.931 259.37 105.666 258.324 105.519Z" fill="black"/>
<path d="M200.51 107.032L199.484 106.509C180.067 96.616 177.071 78.3894 183.696 65.3878C189.928 53.1561 205.105 44.7275 224.607 54.6644C245.82 65.473 237.129 84.856 235.691 87.6787C233.686 91.6134 230.405 94.0357 224.487 93.1751C219.769 92.4953 212.96 90.211 208.425 88.1158C207.056 87.4184 206.934 86.6018 207.115 85.401C207.526 82.0553 208.734 75.6673 208.908 75.3252C209.388 74.3843 210.29 74.3053 211.533 74.6152C216.504 75.8551 217.19 75.9891 217.8 74.7916C218.192 74.0218 217.961 70.4565 214.369 68.626C210.263 66.534 205.011 68.3833 202.309 73.6865C199.215 79.7596 200.176 88.8689 210.868 94.3168C211.467 94.6219 212.151 94.9705 212.793 95.1901L212.964 95.2772C214.162 95.8874 215.224 97.3981 214.483 98.8523C214.047 99.7076 208.859 104.391 206.095 106.645C204.713 107.665 202.991 108.296 200.51 107.032Z" fill="black"/>
<path d="M178.699 94.248L164.683 101.64C163.531 102.312 162.667 102.6 161.899 102.6C160.939 102.6 160.075 102.12 159.019 100.968L149.419 89.832C144.811 93.384 139.723 96.84 135.979 99.432C134.923 100.104 134.059 100.584 133.099 100.584C132.523 100.584 131.851 100.392 131.179 99.816L119.851 90.696C118.795 89.832 118.315 88.968 118.315 88.2C118.315 87.528 118.603 86.856 119.371 86.184C122.635 83.304 128.875 77.928 134.539 72.648L121.771 57.768C121.003 56.904 120.715 56.136 120.715 55.464C120.715 54.504 121.483 53.64 122.635 53.064L137.131 45.576C137.899 45.192 138.571 45 139.243 45C140.491 45 141.643 45.672 142.507 46.728L151.723 57.48L161.707 47.4C162.379 46.728 163.051 46.248 163.915 46.248C164.683 46.248 165.547 46.632 166.603 47.496L179.179 57.48C180.043 58.152 180.427 58.728 180.427 59.4C180.427 62.664 169.099 73.608 167.179 75.432L179.563 89.736C180.235 90.504 180.523 91.176 180.523 91.848C180.523 92.808 179.851 93.672 178.699 94.248Z" fill="black"/>
<path d="M108.013 109.922L89.0896 106.538L88.9025 106.495C87.8736 106.257 87.3196 105.243 87.4636 104.192L95.642 58.0987C95.9012 56.9762 96.8439 56.3071 97.9879 56.4727L116.912 59.8564L117.099 59.8996C118.034 60.1155 118.682 61.1517 118.466 62.0871L110.266 108.274L110.223 108.461C110.007 109.397 108.97 110.044 108.013 109.922ZM123.914 45.3149C122.165 52.8916 114.566 57.64 106.99 55.8907C99.3193 54.1199 94.571 46.521 96.3202 38.9443C98.091 31.2741 105.69 26.5258 113.36 28.2966C120.937 30.0458 125.685 37.6447 123.914 45.3149Z" fill="black"/>
<path d="M61.2421 110.931L42.8389 116.506C41.9368 116.834 40.8294 116.317 40.4682 115.325L40.4025 115.145L18.0721 42.5651C17.8012 41.5399 18.3176 40.4325 19.2197 40.1042L19.4001 40.0385L34.7607 35.3672C38.1145 32.5119 41.821 30.3456 45.6099 28.9665C61.4869 23.1878 79.9429 29.5469 85.9187 45.9653C91.8945 62.3836 84.0332 76.9933 66.9835 83.199C63.1946 84.578 59.299 85.3829 55.5672 85.5152L62.5701 108.405C62.8739 109.52 62.3247 110.537 61.2421 110.931ZM44.6975 50.0373L50.272 68.4406C52.6178 68.7106 55.4965 68.4801 58.0224 67.5607C58.7441 67.298 67.4043 64.146 63.7926 54.2228C61.5271 47.9983 55.2601 45.3756 48.9453 47.6739C47.502 48.1993 46.0669 49.0281 44.6975 50.0373Z" fill="black"/>
</mask>
<g mask="url(#mask0_1_2)">
<circle opacity="0.25" cx="189.5" cy="66.5" r="184.5" fill="#0061FF"/>
<circle opacity="0.25" cx="164.5" cy="66.5" r="155.5" fill="#0061FF"/>
<circle opacity="0.25" cx="135.5" cy="66.5" r="128.5" fill="#0061FF"/>
<circle opacity="0.25" cx="108" cy="69" r="101" fill="#0061FF"/>
<circle opacity="0.25" cx="78" cy="67" r="69" fill="#0061FF"/>
</g>
<path d="M137.849 23.1653C137.55 22.56 136.69 22.6828 136.634 23.3378L135.181 40.2003C135.132 40.7567 135.742 41.1583 136.192 40.8664L144.006 35.7918C144.325 35.5848 144.766 35.7229 144.945 36.0879L148.419 43.101C148.716 43.7059 149.575 43.5838 149.632 42.9281L151.085 26.0656C151.134 25.5092 150.524 25.1076 150.074 25.3995L142.26 30.4741C141.941 30.6811 141.5 30.543 141.321 30.178L137.849 23.1653Z" stroke="#177AFF" stroke-width="2" stroke-linecap="round" stroke-linejoin="round"/>
<path d="M443.566 85.2955C443.527 84.6214 442.688 84.3984 442.38 84.9794L434.454 99.9336C434.191 100.427 434.596 101.035 435.124 100.942L444.3 99.3239C444.674 99.2579 445.026 99.5573 445.049 99.9635L445.506 107.776C445.543 108.449 446.382 108.672 446.691 108.091L454.617 93.137C454.879 92.644 454.474 92.0357 453.946 92.1288L444.771 93.7467C444.396 93.8127 444.044 93.5133 444.022 93.1071L443.566 85.2955Z" stroke="#60D2FF" stroke-width="2" stroke-linecap="round" stroke-linejoin="round"/>
<path d="M222.516 35.6484C222.254 35.6805 222.008 35.7896 221.808 35.9617C221.608 36.1338 221.464 36.3614 221.393 36.6155C221.323 36.8696 221.329 37.1389 221.412 37.3893C221.495 37.6398 221.649 37.8601 221.857 38.0225C222.065 38.1848 222.316 38.2819 222.579 38.3015C222.842 38.321 223.105 38.2621 223.335 38.1323C223.564 38.0024 223.75 37.8074 223.869 37.5719C223.988 37.3364 224.034 37.071 224.002 36.8093C223.958 36.4583 223.778 36.1388 223.499 35.9211C223.22 35.7034 222.867 35.6053 222.516 35.6484ZM221.866 30.3548C221.604 30.387 221.358 30.496 221.158 30.6681C220.958 30.8403 220.814 31.0678 220.743 31.3219C220.673 31.576 220.679 31.8453 220.762 32.0958C220.845 32.3462 221 32.5665 221.207 32.7289C221.415 32.8912 221.666 32.9883 221.929 33.0079C222.192 33.0274 222.455 32.9685 222.685 32.8387C222.914 32.7088 223.1 32.5138 223.219 32.2783C223.338 32.0429 223.384 31.7775 223.352 31.5157C223.309 31.1647 223.128 30.8452 222.849 30.6275C222.57 30.4098 222.217 30.3117 221.866 30.3548ZM227.159 29.7048C226.898 29.737 226.651 29.846 226.451 30.0182C226.252 30.1903 226.107 30.4178 226.037 30.6719C225.966 30.926 225.973 31.1953 226.056 31.4458C226.138 31.6962 226.293 31.9166 226.501 32.0789C226.709 32.2413 226.96 32.3384 227.223 32.3579C227.486 32.3775 227.749 32.3186 227.978 32.1887C228.208 32.0589 228.394 31.8639 228.512 31.6284C228.631 31.3929 228.677 31.1275 228.645 30.8657C228.602 30.5148 228.421 30.1953 228.143 29.9776C227.864 29.7598 227.51 29.6618 227.159 29.7048ZM237.073 33.861C237.424 33.8179 237.744 33.6371 237.961 33.3585C238.179 33.0798 238.277 32.7261 238.234 32.3751C238.191 32.0241 238.01 31.7046 237.731 31.4869C237.453 31.2692 237.099 31.1711 236.748 31.2142L234.101 31.5392L233.776 28.8924L236.423 28.5674C236.774 28.5243 237.094 28.3435 237.311 28.0649C237.529 27.7862 237.627 27.4325 237.584 27.0815C237.541 26.7305 237.36 26.411 237.081 26.1933C236.803 25.9756 236.449 25.8775 236.098 25.9206L233.213 26.2748C232.947 25.7441 232.567 25.2791 232.099 24.9137C231.631 24.5482 231.088 24.2915 230.509 24.162L230.155 21.277C230.111 20.926 229.931 20.6065 229.652 20.3888C229.373 20.1711 229.02 20.073 228.669 20.1161C228.318 20.1592 227.998 20.34 227.78 20.6186C227.563 20.8973 227.465 21.251 227.508 21.602L227.833 24.2488L225.186 24.5738L224.861 21.927C224.818 21.576 224.637 21.2565 224.358 21.0388C224.08 20.8211 223.726 20.723 223.375 20.7661C223.024 20.8092 222.705 20.9899 222.487 21.2686C222.269 21.5472 222.171 21.901 222.214 22.252L222.539 24.8987L219.892 25.2237L219.567 22.5769C219.524 22.226 219.344 21.9065 219.065 21.6888C218.786 21.471 218.432 21.3729 218.081 21.416C217.73 21.4591 217.411 21.6399 217.193 21.9185C216.976 22.1972 216.877 22.5509 216.921 22.9019L217.275 25.7869C216.744 26.0527 216.279 26.4332 215.914 26.901C215.548 27.3687 215.291 27.9119 215.162 28.4912L212.277 28.8455C211.926 28.8886 211.606 29.0693 211.389 29.348C211.171 29.6266 211.073 29.9804 211.116 30.3314C211.159 30.6823 211.34 31.0018 211.619 31.2195C211.897 31.4373 212.251 31.5354 212.602 31.4923L215.249 31.1673L215.574 33.8141L212.927 34.1391C212.576 34.1821 212.256 34.3629 212.039 34.6416C211.821 34.9202 211.723 35.274 211.766 35.6249C211.809 35.9759 211.99 36.2954 212.269 36.5131C212.547 36.7308 212.901 36.8289 213.252 36.7858L215.899 36.4609L216.224 39.1076L213.577 39.4326C213.226 39.4757 212.906 39.6565 212.689 39.9351C212.471 40.2138 212.373 40.5675 212.416 40.9185C212.459 41.2695 212.64 41.589 212.919 41.8067C213.197 42.0244 213.551 42.1225 213.902 42.0794L216.787 41.7252C217.053 42.256 217.433 42.7209 217.901 43.0864C218.369 43.4518 218.912 43.7086 219.491 43.838L219.845 46.723C219.889 47.074 220.069 47.3935 220.348 47.6112C220.627 47.8289 220.98 47.927 221.331 47.8839C221.682 47.8408 222.002 47.6601 222.22 47.3814C222.437 47.1028 222.535 46.749 222.492 46.398L222.167 43.7513L224.814 43.4263L225.139 46.0731C225.182 46.424 225.363 46.7435 225.642 46.9613C225.92 47.179 226.274 47.2771 226.625 47.234C226.976 47.1909 227.295 47.0101 227.513 46.7315C227.731 46.4528 227.829 46.0991 227.786 45.7481L227.461 43.1013L230.108 42.7763L230.433 45.4231C230.476 45.7741 230.656 46.0936 230.935 46.3113C231.214 46.529 231.568 46.6271 231.918 46.584C232.269 46.5409 232.589 46.3601 232.807 46.0815C233.024 45.8028 233.122 45.4491 233.079 45.0981L232.725 42.2131C233.256 41.9474 233.721 41.5668 234.086 41.0991C234.452 40.6313 234.709 40.0881 234.838 39.5088L237.723 39.1546C238.074 39.1115 238.393 38.9307 238.611 38.652C238.829 38.3734 238.927 38.0197 238.884 37.6687C238.841 37.3177 238.66 36.9982 238.381 36.7805C238.103 36.5628 237.749 36.4647 237.398 36.5078L234.751 36.8328L234.426 34.186L237.073 33.861ZM232.267 38.4811C232.31 38.8321 232.212 39.1859 231.994 39.4645C231.777 39.7432 231.457 39.9239 231.106 39.967L220.519 41.267C220.168 41.3101 219.814 41.212 219.535 40.9942C219.257 40.7765 219.076 40.457 219.033 40.1061L217.733 29.5189C217.69 29.1679 217.788 28.8142 218.006 28.5355C218.223 28.2569 218.543 28.0761 218.894 28.033L229.481 26.7331C229.832 26.69 230.186 26.7881 230.464 27.0058C230.743 27.2235 230.924 27.543 230.967 27.894L232.267 38.4811ZM227.809 34.9984C227.548 35.0306 227.301 35.1396 227.101 35.3117C226.902 35.4839 226.757 35.7114 226.687 35.9655C226.616 36.2196 226.623 36.4889 226.705 36.7394C226.788 36.9898 226.943 37.2101 227.151 37.3725C227.359 37.5349 227.61 37.6319 227.873 37.6515C228.136 37.671 228.399 37.6122 228.628 37.4823C228.858 37.3524 229.044 37.1574 229.162 36.922C229.281 36.6865 229.327 36.4211 229.295 36.1593C229.252 35.8083 229.071 35.4889 228.793 35.2711C228.514 35.0534 228.16 34.9553 227.809 34.9984Z" fill="#288FFF"/>
<g clip-path="url(#clip0_1_2)">
<path d="M215.229 99.1082L207.095 117.379C206.879 117.864 206.864 118.414 207.055 118.909C207.245 119.405 207.624 119.804 208.108 120.02L226.379 128.154C226.864 128.37 227.414 128.385 227.909 128.194C228.405 128.004 228.804 127.625 229.02 127.141L237.154 108.87C237.37 108.385 237.385 107.835 237.194 107.34C237.004 106.844 236.625 106.445 236.141 106.229L217.87 98.0946C217.385 97.8789 216.835 97.8644 216.34 98.0545C215.844 98.2446 215.445 98.6236 215.229 99.1082ZM223.745 119.319C223.825 119.139 223.958 118.986 224.125 118.88C224.292 118.775 224.487 118.721 224.685 118.726C224.882 118.731 225.074 118.795 225.236 118.909C225.397 119.023 225.521 119.183 225.592 119.368C225.663 119.552 225.678 119.754 225.634 119.947C225.59 120.14 225.49 120.315 225.347 120.451C225.203 120.587 225.023 120.678 224.828 120.711C224.633 120.745 224.433 120.72 224.252 120.639C224.01 120.532 223.82 120.332 223.725 120.084C223.63 119.837 223.637 119.561 223.745 119.319ZM208.922 118.193L210.549 114.538L221.669 119.489C221.613 120.195 221.808 120.897 222.22 121.473C222.632 122.048 223.234 122.459 223.92 122.634C224.606 122.808 225.332 122.734 225.968 122.426C226.605 122.117 227.112 121.593 227.4 120.947C227.688 120.3 227.738 119.573 227.541 118.893C227.345 118.213 226.914 117.624 226.325 117.231C225.737 116.838 225.028 116.666 224.325 116.745C223.622 116.824 222.969 117.149 222.482 117.662L219.048 116.134L226.97 113.093L232.073 115.365L227.193 126.327L208.922 118.193ZM235.327 108.056L232.887 113.538L227.406 111.097C227.286 111.044 227.156 111.014 227.025 111.011C226.894 111.007 226.763 111.03 226.64 111.077L216.465 114.983L211.362 112.711L212.989 109.057L215.73 110.277C215.85 110.331 215.979 110.36 216.11 110.364C216.242 110.367 216.372 110.345 216.495 110.298L219.136 109.284C219.425 109.625 219.788 109.896 220.197 110.077C220.739 110.319 221.341 110.394 221.926 110.293C222.51 110.193 223.052 109.921 223.483 109.513C223.913 109.104 224.213 108.577 224.344 107.999C224.475 107.42 224.431 106.815 224.218 106.261C224.006 105.708 223.634 105.229 223.149 104.887C222.664 104.544 222.089 104.353 221.496 104.338C220.903 104.322 220.319 104.483 219.817 104.799C219.315 105.116 218.918 105.574 218.677 106.116C218.494 106.525 218.406 106.969 218.42 107.417L216.165 108.282L213.803 107.23L217.056 99.9217L235.327 108.056ZM220.504 106.93C220.584 106.749 220.717 106.596 220.884 106.491C221.051 106.385 221.246 106.332 221.444 106.337C221.641 106.342 221.833 106.406 221.995 106.52C222.156 106.634 222.28 106.794 222.351 106.978C222.422 107.163 222.437 107.364 222.393 107.557C222.349 107.75 222.249 107.926 222.106 108.062C221.962 108.198 221.782 108.289 221.587 108.322C221.392 108.356 221.192 108.331 221.011 108.25C220.769 108.142 220.579 107.943 220.484 107.695C220.389 107.447 220.396 107.172 220.504 106.93Z" fill="#288FFF"/>
</g>
<path d="M299 22H300.333M295.667 13.3333L297 12M287 10V8.66667M278.333 13.3333L277 12M275 22H273.667M284.333 35.3333H289.667M293.667 22C293.666 20.7982 293.341 19.6187 292.725 18.5866C292.11 17.5544 291.226 16.7079 290.169 16.1366C289.112 15.5653 287.919 15.2905 286.719 15.3412C285.518 15.3919 284.353 15.7663 283.348 16.4247C282.342 17.0831 281.534 18.0011 281.007 19.0815C280.481 20.1619 280.256 21.3645 280.357 22.5621C280.458 23.7597 280.881 24.9078 281.581 25.8847C282.281 26.8617 283.232 27.6313 284.333 28.112V31.3333H289.667V28.112C290.856 27.593 291.868 26.7383 292.578 25.6526C293.289 24.5669 293.667 23.2975 293.667 22Z" stroke="#36A0FF" stroke-width="2.66667" stroke-linecap="round" stroke-linejoin="round"/>
<g clip-path="url(#clip1_1_2)">
<path d="M92.0428 111.182L71.581 106.458C70.5047 106.21 69.4308 106.881 69.1824 107.957L64.4584 128.419C64.2099 129.495 64.881 130.569 65.9572 130.818L86.419 135.542C87.4953 135.79 88.5692 135.119 88.8176 134.043L93.5416 113.581C93.7901 112.505 93.119 111.431 92.0428 111.182Z" stroke="#177AFF" stroke-width="1.5"/>
<path d="M77.4253 127.821C81.1922 128.69 84.9509 126.342 85.8206 122.575C86.6902 118.808 84.3416 115.049 80.5746 114.179C76.8077 113.31 73.0491 115.658 72.1794 119.425C71.3097 123.192 73.6584 126.951 77.4253 127.821Z" stroke="#177AFF" stroke-width="1.5"/>
<path d="M68.62 110.393C68.7442 109.855 68.4087 109.318 67.8706 109.194C67.3324 109.07 66.7955 109.405 66.6712 109.943L65.9964 112.866C65.8722 113.404 66.2077 113.941 66.7458 114.066C67.2839 114.19 67.8209 113.854 67.9451 113.316L68.62 110.393Z" stroke="#177AFF"/>
<path d="M94.928 116.467C95.0522 115.929 94.7167 115.392 94.1785 115.268C93.6404 115.143 93.1035 115.479 92.9792 116.017L92.3044 118.94C92.1801 119.478 92.5157 120.015 93.0538 120.139C93.5919 120.264 94.1289 119.928 94.2531 119.39L94.928 116.467Z" stroke="#177AFF"/>
<path d="M65.6956 123.06C65.8199 122.522 65.4843 121.985 64.9462 121.861C64.4081 121.736 63.8711 122.072 63.7469 122.61L63.072 125.533C62.9478 126.071 63.2833 126.608 63.8214 126.732C64.3596 126.857 64.8965 126.521 65.0208 125.983L65.6956 123.06Z" stroke="#177AFF"/>
<path d="M92.0036 129.134C92.1278 128.596 91.7923 128.059 91.2542 127.934C90.7161 127.81 90.1791 128.146 90.0549 128.684L89.38 131.607C89.2558 132.145 89.5913 132.682 90.1294 132.806C90.6676 132.93 91.2045 132.595 91.3288 132.057L92.0036 129.134Z" stroke="#177AFF"/>
</g>
<g clip-path="url(#clip2_1_2)">
<path d="M374.438 88.8804L354.252 94.6688C353.19 94.9733 352.576 96.0808 352.88 97.1426L358.669 117.329C358.973 118.391 360.081 119.005 361.143 118.7L381.329 112.912C382.391 112.607 383.005 111.5 382.7 110.438L376.912 90.2517C376.607 89.1899 375.5 88.576 374.438 88.8804Z" stroke="#48B5FF" stroke-width="1.5"/>
<path d="M369.72 110.519C373.436 109.454 375.585 105.577 374.519 101.861C373.454 98.1447 369.577 95.9959 365.861 97.0615C362.145 98.1272 359.996 102.004 361.062 105.72C362.127 109.436 366.004 111.585 369.72 110.519Z" stroke="#48B5FF" stroke-width="1.5"/>
<path d="M353.57 99.5458C353.417 99.0149 352.864 98.7079 352.333 98.8601C351.802 99.0124 351.495 99.5661 351.647 100.097L352.474 102.981C352.626 103.512 353.18 103.819 353.711 103.666C354.242 103.514 354.549 102.96 354.396 102.43L353.57 99.5458Z" stroke="#48B5FF"/>
<path d="M379.524 92.1035C379.371 91.5727 378.818 91.2657 378.287 91.4179C377.756 91.5702 377.449 92.1239 377.601 92.6548L378.428 95.5386C378.58 96.0695 379.134 96.3765 379.665 96.2242C380.196 96.072 380.503 95.5182 380.351 94.9873L379.524 92.1035Z" stroke="#48B5FF"/>
<path d="M357.153 112.042C357.001 111.511 356.447 111.204 355.916 111.357C355.385 111.509 355.078 112.063 355.23 112.593L356.057 115.477C356.209 116.008 356.763 116.315 357.294 116.163C357.825 116.011 358.132 115.457 357.98 114.926L357.153 112.042Z" stroke="#48B5FF"/>
<path d="M383.107 104.6C382.955 104.069 382.401 103.762 381.87 103.914C381.339 104.067 381.032 104.62 381.184 105.151L382.011 108.035C382.163 108.566 382.717 108.873 383.248 108.721C383.779 108.568 384.086 108.015 383.934 107.484L383.107 104.6Z" stroke="#48B5FF"/>
</g>
<g clip-path="url(#clip3_1_2)">
<path d="M416.476 28.2765L416.345 33.7603L420.381 37.4759L414.897 37.3454L411.181 41.3807L411.312 35.897L407.277 32.1814L412.76 32.3119L416.476 28.2765ZM419.323 21.2299L411.618 29.6215L400.23 29.3344L408.621 37.039L408.334 48.4273L416.039 40.0358L427.427 40.3229L419.036 32.6183L419.323 21.2299Z" fill="#60D2FF"/>
</g>
<defs>
<clipPath id="clip0_1_2">
<rect width="32" height="32" fill="white" transform="translate(201 121.233) rotate(-66)"/>
</clipPath>
<clipPath id="clip1_1_2">
<rect width="32" height="32" fill="white" transform="translate(67.0093 101.811) rotate(13)"/>
</clipPath>
<clipPath id="clip2_1_2">
<rect width="32" height="32" fill="white" transform="translate(348 92.8204) rotate(-16)"/>
</clipPath>
<clipPath id="clip3_1_2">
<rect width="32" height="32" fill="white" transform="translate(404.987 14) rotate(22)"/>
</clipPath>
</defs>
</svg>
