%TF.GenerationSoftware,KiCad,Pcbnew,8.0.8*%
%TF.CreationDate,2025-04-14T01:30:12-04:00*%
%TF.ProjectId,Pixel Dust,50697865-6c20-4447-9573-742e6b696361,rev?*%
%TF.SameCoordinates,Original*%
%TF.FileFunction,Soldermask,Bot*%
%TF.FilePolarity,Negative*%
%FSLAX46Y46*%
G04 Gerber Fmt 4.6, Leading zero omitted, Abs format (unit mm)*
G04 Created by KiCad (PCBNEW 8.0.8) date 2025-04-14 01:30:12*
%MOMM*%
%LPD*%
G01*
G04 APERTURE LIST*
G04 Aperture macros list*
%AMRoundRect*
0 Rectangle with rounded corners*
0 $1 Rounding radius*
0 $2 $3 $4 $5 $6 $7 $8 $9 X,Y pos of 4 corners*
0 Add a 4 corners polygon primitive as box body*
4,1,4,$2,$3,$4,$5,$6,$7,$8,$9,$2,$3,0*
0 Add four circle primitives for the rounded corners*
1,1,$1+$1,$2,$3*
1,1,$1+$1,$4,$5*
1,1,$1+$1,$6,$7*
1,1,$1+$1,$8,$9*
0 Add four rect primitives between the rounded corners*
20,1,$1+$1,$2,$3,$4,$5,0*
20,1,$1+$1,$4,$5,$6,$7,0*
20,1,$1+$1,$6,$7,$8,$9,0*
20,1,$1+$1,$8,$9,$2,$3,0*%
%AMOutline5P*
0 Free polygon, 5 corners , with rotation*
0 The origin of the aperture is its center*
0 number of corners: always 5*
0 $1 to $10 corner X, Y*
0 $11 Rotation angle, in degrees counterclockwise*
0 create outline with 5 corners*
4,1,5,$1,$2,$3,$4,$5,$6,$7,$8,$9,$10,$1,$2,$11*%
%AMOutline6P*
0 Free polygon, 6 corners , with rotation*
0 The origin of the aperture is its center*
0 number of corners: always 6*
0 $1 to $12 corner X, Y*
0 $13 Rotation angle, in degrees counterclockwise*
0 create outline with 6 corners*
4,1,6,$1,$2,$3,$4,$5,$6,$7,$8,$9,$10,$11,$12,$1,$2,$13*%
%AMOutline7P*
0 Free polygon, 7 corners , with rotation*
0 The origin of the aperture is its center*
0 number of corners: always 7*
0 $1 to $14 corner X, Y*
0 $15 Rotation angle, in degrees counterclockwise*
0 create outline with 7 corners*
4,1,7,$1,$2,$3,$4,$5,$6,$7,$8,$9,$10,$11,$12,$13,$14,$1,$2,$15*%
%AMOutline8P*
0 Free polygon, 8 corners , with rotation*
0 The origin of the aperture is its center*
0 number of corners: always 8*
0 $1 to $16 corner X, Y*
0 $17 Rotation angle, in degrees counterclockwise*
0 create outline with 8 corners*
4,1,8,$1,$2,$3,$4,$5,$6,$7,$8,$9,$10,$11,$12,$13,$14,$15,$16,$1,$2,$17*%
%AMFreePoly0*
4,1,5,0.650000,-0.650000,-0.650000,-0.650000,-0.650000,0.650000,0.650000,0.650000,0.650000,-0.650000,0.650000,-0.650000,$1*%
G04 Aperture macros list end*
%ADD10RoundRect,0.050000X-0.250000X0.500000X-0.250000X-0.500000X0.250000X-0.500000X0.250000X0.500000X0*%
%ADD11FreePoly0,315.000000*%
%ADD12RoundRect,0.250000X-1.000000X-0.650000X1.000000X-0.650000X1.000000X0.650000X-1.000000X0.650000X0*%
%ADD13RoundRect,0.102000X0.690000X-0.550000X0.690000X0.550000X-0.690000X0.550000X-0.690000X-0.550000X0*%
%ADD14RoundRect,0.102000X0.575000X0.725000X-0.575000X0.725000X-0.575000X-0.725000X0.575000X-0.725000X0*%
%ADD15R,1.800000X0.820000*%
%ADD16Outline5P,-0.900000X0.410000X0.900000X0.410000X0.900000X-0.246000X0.736000X-0.410000X-0.900000X-0.410000X180.000000*%
%ADD17RoundRect,0.250000X0.337500X0.475000X-0.337500X0.475000X-0.337500X-0.475000X0.337500X-0.475000X0*%
%ADD18C,2.109000*%
%ADD19RoundRect,0.237500X-0.237500X0.250000X-0.237500X-0.250000X0.237500X-0.250000X0.237500X0.250000X0*%
%ADD20RoundRect,0.102000X-0.350000X-0.600000X0.350000X-0.600000X0.350000X0.600000X-0.350000X0.600000X0*%
%ADD21RoundRect,0.102000X-0.380000X-0.600000X0.380000X-0.600000X0.380000X0.600000X-0.380000X0.600000X0*%
%ADD22RoundRect,0.102000X-0.400000X-0.600000X0.400000X-0.600000X0.400000X0.600000X-0.400000X0.600000X0*%
%ADD23O,1.304000X1.904000*%
%ADD24RoundRect,0.102000X-0.685000X-0.685000X0.685000X-0.685000X0.685000X0.685000X-0.685000X0.685000X0*%
%ADD25C,1.574000*%
%ADD26R,1.000000X1.000000*%
%ADD27RoundRect,0.237500X0.237500X-0.250000X0.237500X0.250000X-0.237500X0.250000X-0.237500X-0.250000X0*%
G04 APERTURE END LIST*
D10*
%TO.C,U1*%
X36520000Y13540000D03*
X37470000Y13540000D03*
X38420000Y13540000D03*
X38420000Y10940000D03*
X36520000Y10940000D03*
%TD*%
D11*
%TO.C,L1*%
X32149339Y8839340D03*
X34270661Y10960660D03*
%TD*%
D12*
%TO.C,D197*%
X37000000Y8080000D03*
X41000000Y8080000D03*
%TD*%
D13*
%TO.C,C198*%
X41000000Y10740000D03*
X41000000Y12466000D03*
%TD*%
D14*
%TO.C,C197*%
X38430000Y15340000D03*
X36630000Y15340000D03*
%TD*%
D15*
%TO.C,D87*%
X24100000Y-55300000D03*
D16*
X18900000Y-55300000D03*
D15*
X18900000Y-56800000D03*
X24100000Y-56800000D03*
%TD*%
%TO.C,D30*%
X15100000Y-19300000D03*
D16*
X9900000Y-19300000D03*
D15*
X9900000Y-20800000D03*
X15100000Y-20800000D03*
%TD*%
%TO.C,D40*%
X105100000Y-19300000D03*
D16*
X99900000Y-19300000D03*
D15*
X99900000Y-20800000D03*
X105100000Y-20800000D03*
%TD*%
D17*
%TO.C,C129*%
X22537500Y-86050000D03*
X20462500Y-86050000D03*
%TD*%
D15*
%TO.C,D104*%
X51100000Y-64300000D03*
D16*
X45900000Y-64300000D03*
D15*
X45900000Y-65800000D03*
X51100000Y-65800000D03*
%TD*%
D17*
%TO.C,C52*%
X85537500Y-32050000D03*
X83462500Y-32050000D03*
%TD*%
%TO.C,C128*%
X13537500Y-86050000D03*
X11462500Y-86050000D03*
%TD*%
%TO.C,C7*%
X58537500Y-5050000D03*
X56462500Y-5050000D03*
%TD*%
%TO.C,C148*%
X67537500Y-95050000D03*
X65462500Y-95050000D03*
%TD*%
%TO.C,C136*%
X85537500Y-86050000D03*
X83462500Y-86050000D03*
%TD*%
D15*
%TO.C,D107*%
X78100000Y-64300000D03*
D16*
X72900000Y-64300000D03*
D15*
X72900000Y-65800000D03*
X78100000Y-65800000D03*
%TD*%
%TO.C,D78*%
X69100000Y-46300000D03*
D16*
X63900000Y-46300000D03*
D15*
X63900000Y-47800000D03*
X69100000Y-47800000D03*
%TD*%
%TO.C,D106*%
X69100000Y-64300000D03*
D16*
X63900000Y-64300000D03*
D15*
X63900000Y-65800000D03*
X69100000Y-65800000D03*
%TD*%
%TO.C,D155*%
X6100000Y-100300000D03*
D16*
X900000Y-100300000D03*
D15*
X900000Y-101800000D03*
X6100000Y-101800000D03*
%TD*%
D17*
%TO.C,C106*%
X67537500Y-68050000D03*
X65462500Y-68050000D03*
%TD*%
%TO.C,C71*%
X4537500Y-50050000D03*
X2462500Y-50050000D03*
%TD*%
D15*
%TO.C,D13*%
X114100000Y-1300000D03*
D16*
X108900000Y-1300000D03*
D15*
X108900000Y-2800000D03*
X114100000Y-2800000D03*
%TD*%
%TO.C,D46*%
X33100000Y-28300000D03*
D16*
X27900000Y-28300000D03*
D15*
X27900000Y-29800000D03*
X33100000Y-29800000D03*
%TD*%
%TO.C,D162*%
X69100000Y-100300000D03*
D16*
X63900000Y-100300000D03*
D15*
X63900000Y-101800000D03*
X69100000Y-101800000D03*
%TD*%
%TO.C,D141*%
X6100000Y-91300000D03*
D16*
X900000Y-91300000D03*
D15*
X900000Y-92800000D03*
X6100000Y-92800000D03*
%TD*%
%TO.C,D187*%
X42100000Y-118300000D03*
D16*
X36900000Y-118300000D03*
D15*
X36900000Y-119800000D03*
X42100000Y-119800000D03*
%TD*%
D17*
%TO.C,C103*%
X40537500Y-68050000D03*
X38462500Y-68050000D03*
%TD*%
%TO.C,C5*%
X40537500Y-5050000D03*
X38462500Y-5050000D03*
%TD*%
%TO.C,C127*%
X4537500Y-86050000D03*
X2462500Y-86050000D03*
%TD*%
D15*
%TO.C,D148*%
X69100000Y-91300000D03*
D16*
X63900000Y-91300000D03*
D15*
X63900000Y-92800000D03*
X69100000Y-92800000D03*
%TD*%
D17*
%TO.C,C185*%
X22537500Y-122050000D03*
X20462500Y-122050000D03*
%TD*%
%TO.C,C2*%
X13537500Y-5050000D03*
X11462500Y-5050000D03*
%TD*%
D15*
%TO.C,D80*%
X87100000Y-46300000D03*
D16*
X81900000Y-46300000D03*
D15*
X81900000Y-47800000D03*
X87100000Y-47800000D03*
%TD*%
D17*
%TO.C,C119*%
X58537500Y-77050000D03*
X56462500Y-77050000D03*
%TD*%
D15*
%TO.C,D139*%
X114100000Y-82300000D03*
D16*
X108900000Y-82300000D03*
D15*
X108900000Y-83800000D03*
X114100000Y-83800000D03*
%TD*%
%TO.C,D32*%
X33100000Y-19300000D03*
D16*
X27900000Y-19300000D03*
D15*
X27900000Y-20800000D03*
X33100000Y-20800000D03*
%TD*%
D17*
%TO.C,C92*%
X67537500Y-59050000D03*
X65462500Y-59050000D03*
%TD*%
%TO.C,C95*%
X94537500Y-59050000D03*
X92462500Y-59050000D03*
%TD*%
D15*
%TO.C,D74*%
X33100000Y-46300000D03*
D16*
X27900000Y-46300000D03*
D15*
X27900000Y-47800000D03*
X33100000Y-47800000D03*
%TD*%
%TO.C,D185*%
X24100000Y-118300000D03*
D16*
X18900000Y-118300000D03*
D15*
X18900000Y-119800000D03*
X24100000Y-119800000D03*
%TD*%
%TO.C,D153*%
X114100000Y-91300000D03*
D16*
X108900000Y-91300000D03*
D15*
X108900000Y-92800000D03*
X114100000Y-92800000D03*
%TD*%
D17*
%TO.C,C188*%
X49537500Y-122050000D03*
X47462500Y-122050000D03*
%TD*%
D15*
%TO.C,D85*%
X6100000Y-55300000D03*
D16*
X900000Y-55300000D03*
D15*
X900000Y-56800000D03*
X6100000Y-56800000D03*
%TD*%
D17*
%TO.C,C17*%
X22537500Y-14050000D03*
X20462500Y-14050000D03*
%TD*%
%TO.C,C156*%
X13537500Y-104050000D03*
X11462500Y-104050000D03*
%TD*%
%TO.C,C110*%
X103537500Y-68050000D03*
X101462500Y-68050000D03*
%TD*%
D15*
%TO.C,D31*%
X24100000Y-19300000D03*
D16*
X18900000Y-19300000D03*
D15*
X18900000Y-20800000D03*
X24100000Y-20800000D03*
%TD*%
%TO.C,D37*%
X78100000Y-19300000D03*
D16*
X72900000Y-19300000D03*
D15*
X72900000Y-20800000D03*
X78100000Y-20800000D03*
%TD*%
D17*
%TO.C,C163*%
X76537500Y-104050000D03*
X74462500Y-104050000D03*
%TD*%
%TO.C,C42*%
X121537500Y-23050000D03*
X119462500Y-23050000D03*
%TD*%
D15*
%TO.C,D35*%
X60100000Y-19300000D03*
D16*
X54900000Y-19300000D03*
D15*
X54900000Y-20800000D03*
X60100000Y-20800000D03*
%TD*%
D17*
%TO.C,C57*%
X4537500Y-41050000D03*
X2462500Y-41050000D03*
%TD*%
%TO.C,C16*%
X13537500Y-14050000D03*
X11462500Y-14050000D03*
%TD*%
%TO.C,C107*%
X76537500Y-68050000D03*
X74462500Y-68050000D03*
%TD*%
D15*
%TO.C,D196*%
X123100000Y-118300000D03*
D16*
X117900000Y-118300000D03*
D15*
X117900000Y-119800000D03*
X123100000Y-119800000D03*
%TD*%
%TO.C,D52*%
X87100000Y-28300000D03*
D16*
X81900000Y-28300000D03*
D15*
X81900000Y-29800000D03*
X87100000Y-29800000D03*
%TD*%
D17*
%TO.C,C104*%
X49537500Y-68050000D03*
X47462500Y-68050000D03*
%TD*%
D15*
%TO.C,D4*%
X33100000Y-1300000D03*
D16*
X27900000Y-1300000D03*
D15*
X27900000Y-2800000D03*
X33100000Y-2800000D03*
%TD*%
D17*
%TO.C,C40*%
X103537500Y-23050000D03*
X101462500Y-23050000D03*
%TD*%
%TO.C,C109*%
X94537500Y-68050000D03*
X92462500Y-68050000D03*
%TD*%
D15*
%TO.C,D165*%
X96100000Y-100300000D03*
D16*
X90900000Y-100300000D03*
D15*
X90900000Y-101800000D03*
X96100000Y-101800000D03*
%TD*%
%TO.C,D41*%
X114100000Y-19300000D03*
D16*
X108900000Y-19300000D03*
D15*
X108900000Y-20800000D03*
X114100000Y-20800000D03*
%TD*%
D17*
%TO.C,C94*%
X85537500Y-59050000D03*
X83462500Y-59050000D03*
%TD*%
%TO.C,C90*%
X49537500Y-59050000D03*
X47462500Y-59050000D03*
%TD*%
D15*
%TO.C,D130*%
X33100000Y-82300000D03*
D16*
X27900000Y-82300000D03*
D15*
X27900000Y-83800000D03*
X33100000Y-83800000D03*
%TD*%
%TO.C,D142*%
X15100000Y-91300000D03*
D16*
X9900000Y-91300000D03*
D15*
X9900000Y-92800000D03*
X15100000Y-92800000D03*
%TD*%
%TO.C,D8*%
X69100000Y-1300000D03*
D16*
X63900000Y-1300000D03*
D15*
X63900000Y-2800000D03*
X69100000Y-2800000D03*
%TD*%
D17*
%TO.C,C68*%
X103537500Y-41050000D03*
X101462500Y-41050000D03*
%TD*%
%TO.C,C138*%
X103537500Y-86050000D03*
X101462500Y-86050000D03*
%TD*%
%TO.C,C31*%
X22537500Y-23050000D03*
X20462500Y-23050000D03*
%TD*%
D15*
%TO.C,D182*%
X123100000Y-109300000D03*
D16*
X117900000Y-109300000D03*
D15*
X117900000Y-110800000D03*
X123100000Y-110800000D03*
%TD*%
D18*
%TO.C,U2*%
X1630000Y3720000D03*
X1630000Y6260000D03*
X1630000Y8800000D03*
X1630000Y11340000D03*
X1630000Y16420000D03*
X1630000Y13880000D03*
X16870000Y21500000D03*
X1630000Y21500000D03*
X16870000Y18960000D03*
X16870000Y16420000D03*
X16870000Y13880000D03*
X16870000Y11340000D03*
X16870000Y8800000D03*
X16870000Y6260000D03*
X16870000Y3720000D03*
X1630000Y18960000D03*
%TD*%
D15*
%TO.C,D131*%
X42100000Y-82300000D03*
D16*
X36900000Y-82300000D03*
D15*
X36900000Y-83800000D03*
X42100000Y-83800000D03*
%TD*%
D17*
%TO.C,C160*%
X49537500Y-104050000D03*
X47462500Y-104050000D03*
%TD*%
D15*
%TO.C,D154*%
X123100000Y-91300000D03*
D16*
X117900000Y-91300000D03*
D15*
X117900000Y-92800000D03*
X123100000Y-92800000D03*
%TD*%
%TO.C,D92*%
X69100000Y-55300000D03*
D16*
X63900000Y-55300000D03*
D15*
X63900000Y-56800000D03*
X69100000Y-56800000D03*
%TD*%
%TO.C,D2*%
X15100000Y-1300000D03*
D16*
X9900000Y-1300000D03*
D15*
X9900000Y-2800000D03*
X15100000Y-2800000D03*
%TD*%
%TO.C,D20*%
X51100000Y-10300000D03*
D16*
X45900000Y-10300000D03*
D15*
X45900000Y-11800000D03*
X51100000Y-11800000D03*
%TD*%
%TO.C,D166*%
X105100000Y-100300000D03*
D16*
X99900000Y-100300000D03*
D15*
X99900000Y-101800000D03*
X105100000Y-101800000D03*
%TD*%
D17*
%TO.C,C187*%
X40537500Y-122050000D03*
X38462500Y-122050000D03*
%TD*%
D15*
%TO.C,D29*%
X6100000Y-19300000D03*
D16*
X900000Y-19300000D03*
D15*
X900000Y-20800000D03*
X6100000Y-20800000D03*
%TD*%
D17*
%TO.C,C100*%
X13537500Y-68050000D03*
X11462500Y-68050000D03*
%TD*%
%TO.C,C186*%
X31537500Y-122050000D03*
X29462500Y-122050000D03*
%TD*%
D15*
%TO.C,D82*%
X105100000Y-46300000D03*
D16*
X99900000Y-46300000D03*
D15*
X99900000Y-47800000D03*
X105100000Y-47800000D03*
%TD*%
D17*
%TO.C,C161*%
X58537500Y-104050000D03*
X56462500Y-104050000D03*
%TD*%
%TO.C,C45*%
X22537500Y-32050000D03*
X20462500Y-32050000D03*
%TD*%
D15*
%TO.C,D172*%
X33100000Y-109300000D03*
D16*
X27900000Y-109300000D03*
D15*
X27900000Y-110800000D03*
X33100000Y-110800000D03*
%TD*%
D17*
%TO.C,C189*%
X58537500Y-122050000D03*
X56462500Y-122050000D03*
%TD*%
%TO.C,C39*%
X94537500Y-23050000D03*
X92462500Y-23050000D03*
%TD*%
D15*
%TO.C,D65*%
X78100000Y-37300000D03*
D16*
X72900000Y-37300000D03*
D15*
X72900000Y-38800000D03*
X78100000Y-38800000D03*
%TD*%
D17*
%TO.C,C172*%
X31537500Y-113050000D03*
X29462500Y-113050000D03*
%TD*%
D15*
%TO.C,D55*%
X114100000Y-28300000D03*
D16*
X108900000Y-28300000D03*
D15*
X108900000Y-29800000D03*
X114100000Y-29800000D03*
%TD*%
%TO.C,D127*%
X6100000Y-82300000D03*
D16*
X900000Y-82300000D03*
D15*
X900000Y-83800000D03*
X6100000Y-83800000D03*
%TD*%
%TO.C,D17*%
X24100000Y-10300000D03*
D16*
X18900000Y-10300000D03*
D15*
X18900000Y-11800000D03*
X24100000Y-11800000D03*
%TD*%
D17*
%TO.C,C24*%
X85537500Y-14050000D03*
X83462500Y-14050000D03*
%TD*%
%TO.C,C192*%
X85537500Y-122050000D03*
X83462500Y-122050000D03*
%TD*%
%TO.C,C97*%
X112537500Y-59050000D03*
X110462500Y-59050000D03*
%TD*%
%TO.C,C54*%
X103537500Y-32050000D03*
X101462500Y-32050000D03*
%TD*%
D15*
%TO.C,D183*%
X6100000Y-118300000D03*
D16*
X900000Y-118300000D03*
D15*
X900000Y-119800000D03*
X6100000Y-119800000D03*
%TD*%
D17*
%TO.C,C159*%
X40537500Y-104050000D03*
X38462500Y-104050000D03*
%TD*%
%TO.C,C115*%
X22537500Y-77050000D03*
X20462500Y-77050000D03*
%TD*%
D15*
%TO.C,D84*%
X123100000Y-46300000D03*
D16*
X117900000Y-46300000D03*
D15*
X117900000Y-47800000D03*
X123100000Y-47800000D03*
%TD*%
%TO.C,D42*%
X123100000Y-19300000D03*
D16*
X117900000Y-19300000D03*
D15*
X117900000Y-20800000D03*
X123100000Y-20800000D03*
%TD*%
%TO.C,D16*%
X15100000Y-10300000D03*
D16*
X9900000Y-10300000D03*
D15*
X9900000Y-11800000D03*
X15100000Y-11800000D03*
%TD*%
D17*
%TO.C,C41*%
X112537500Y-23050000D03*
X110462500Y-23050000D03*
%TD*%
%TO.C,C80*%
X85537500Y-50050000D03*
X83462500Y-50050000D03*
%TD*%
D15*
%TO.C,D9*%
X78100000Y-1300000D03*
D16*
X72900000Y-1300000D03*
D15*
X72900000Y-2800000D03*
X78100000Y-2800000D03*
%TD*%
D17*
%TO.C,C63*%
X58537500Y-41050000D03*
X56462500Y-41050000D03*
%TD*%
D15*
%TO.C,D174*%
X51100000Y-109300000D03*
D16*
X45900000Y-109300000D03*
D15*
X45900000Y-110800000D03*
X51100000Y-110800000D03*
%TD*%
D17*
%TO.C,C53*%
X94537500Y-32050000D03*
X92462500Y-32050000D03*
%TD*%
%TO.C,C93*%
X76537500Y-59050000D03*
X74462500Y-59050000D03*
%TD*%
%TO.C,C69*%
X112537500Y-41050000D03*
X110462500Y-41050000D03*
%TD*%
D15*
%TO.C,D38*%
X87100000Y-19300000D03*
D16*
X81900000Y-19300000D03*
D15*
X81900000Y-20800000D03*
X87100000Y-20800000D03*
%TD*%
%TO.C,D138*%
X105100000Y-82300000D03*
D16*
X99900000Y-82300000D03*
D15*
X99900000Y-83800000D03*
X105100000Y-83800000D03*
%TD*%
%TO.C,D124*%
X105100000Y-73300000D03*
D16*
X99900000Y-73300000D03*
D15*
X99900000Y-74800000D03*
X105100000Y-74800000D03*
%TD*%
D17*
%TO.C,C165*%
X94537500Y-104050000D03*
X92462500Y-104050000D03*
%TD*%
D15*
%TO.C,D61*%
X42100000Y-37300000D03*
D16*
X36900000Y-37300000D03*
D15*
X36900000Y-38800000D03*
X42100000Y-38800000D03*
%TD*%
D17*
%TO.C,C125*%
X112537500Y-77050000D03*
X110462500Y-77050000D03*
%TD*%
%TO.C,C86*%
X13537500Y-59050000D03*
X11462500Y-59050000D03*
%TD*%
D15*
%TO.C,D57*%
X6100000Y-37300000D03*
D16*
X900000Y-37300000D03*
D15*
X900000Y-38800000D03*
X6100000Y-38800000D03*
%TD*%
%TO.C,D67*%
X96100000Y-37300000D03*
D16*
X90900000Y-37300000D03*
D15*
X90900000Y-38800000D03*
X96100000Y-38800000D03*
%TD*%
%TO.C,D173*%
X42100000Y-109300000D03*
D16*
X36900000Y-109300000D03*
D15*
X36900000Y-110800000D03*
X42100000Y-110800000D03*
%TD*%
D17*
%TO.C,C38*%
X85537500Y-23050000D03*
X83462500Y-23050000D03*
%TD*%
D15*
%TO.C,D125*%
X114100000Y-73300000D03*
D16*
X108900000Y-73300000D03*
D15*
X108900000Y-74800000D03*
X114100000Y-74800000D03*
%TD*%
D17*
%TO.C,C180*%
X103537500Y-113050000D03*
X101462500Y-113050000D03*
%TD*%
%TO.C,C169*%
X4537500Y-113050000D03*
X2462500Y-113050000D03*
%TD*%
D15*
%TO.C,D33*%
X42100000Y-19300000D03*
D16*
X36900000Y-19300000D03*
D15*
X36900000Y-20800000D03*
X42100000Y-20800000D03*
%TD*%
%TO.C,D93*%
X78100000Y-55300000D03*
D16*
X72900000Y-55300000D03*
D15*
X72900000Y-56800000D03*
X78100000Y-56800000D03*
%TD*%
D17*
%TO.C,C29*%
X4537500Y-23050000D03*
X2462500Y-23050000D03*
%TD*%
%TO.C,C184*%
X13537500Y-122050000D03*
X11462500Y-122050000D03*
%TD*%
%TO.C,C122*%
X85537500Y-77050000D03*
X83462500Y-77050000D03*
%TD*%
%TO.C,C151*%
X94537500Y-95050000D03*
X92462500Y-95050000D03*
%TD*%
D15*
%TO.C,D133*%
X60100000Y-82300000D03*
D16*
X54900000Y-82300000D03*
D15*
X54900000Y-83800000D03*
X60100000Y-83800000D03*
%TD*%
D17*
%TO.C,C76*%
X49537500Y-50050000D03*
X47462500Y-50050000D03*
%TD*%
%TO.C,C85*%
X4537500Y-59050000D03*
X2462500Y-59050000D03*
%TD*%
%TO.C,C167*%
X112537500Y-104050000D03*
X110462500Y-104050000D03*
%TD*%
%TO.C,C65*%
X76537500Y-41050000D03*
X74462500Y-41050000D03*
%TD*%
D15*
%TO.C,D159*%
X42100000Y-100300000D03*
D16*
X36900000Y-100300000D03*
D15*
X36900000Y-101800000D03*
X42100000Y-101800000D03*
%TD*%
D17*
%TO.C,C132*%
X49537500Y-86050000D03*
X47462500Y-86050000D03*
%TD*%
D15*
%TO.C,D158*%
X33100000Y-100300000D03*
D16*
X27900000Y-100300000D03*
D15*
X27900000Y-101800000D03*
X33100000Y-101800000D03*
%TD*%
D17*
%TO.C,C70*%
X121537500Y-41050000D03*
X119462500Y-41050000D03*
%TD*%
%TO.C,C190*%
X67537500Y-122050000D03*
X65462500Y-122050000D03*
%TD*%
D15*
%TO.C,D146*%
X51100000Y-91300000D03*
D16*
X45900000Y-91300000D03*
D15*
X45900000Y-92800000D03*
X51100000Y-92800000D03*
%TD*%
%TO.C,D71*%
X6100000Y-46300000D03*
D16*
X900000Y-46300000D03*
D15*
X900000Y-47800000D03*
X6100000Y-47800000D03*
%TD*%
D17*
%TO.C,C108*%
X85537500Y-68050000D03*
X83462500Y-68050000D03*
%TD*%
%TO.C,C82*%
X103537500Y-50050000D03*
X101462500Y-50050000D03*
%TD*%
%TO.C,C62*%
X49537500Y-41050000D03*
X47462500Y-41050000D03*
%TD*%
D15*
%TO.C,D89*%
X42100000Y-55300000D03*
D16*
X36900000Y-55300000D03*
D15*
X36900000Y-56800000D03*
X42100000Y-56800000D03*
%TD*%
D17*
%TO.C,C194*%
X103537500Y-122050000D03*
X101462500Y-122050000D03*
%TD*%
%TO.C,C35*%
X58537500Y-23050000D03*
X56462500Y-23050000D03*
%TD*%
D15*
%TO.C,D53*%
X96100000Y-28300000D03*
D16*
X90900000Y-28300000D03*
D15*
X90900000Y-29800000D03*
X96100000Y-29800000D03*
%TD*%
D17*
%TO.C,C131*%
X40537500Y-86050000D03*
X38462500Y-86050000D03*
%TD*%
%TO.C,C9*%
X76537500Y-5050000D03*
X74462500Y-5050000D03*
%TD*%
%TO.C,C142*%
X13537500Y-95050000D03*
X11462500Y-95050000D03*
%TD*%
D15*
%TO.C,D169*%
X6100000Y-109300000D03*
D16*
X900000Y-109300000D03*
D15*
X900000Y-110800000D03*
X6100000Y-110800000D03*
%TD*%
D17*
%TO.C,C174*%
X49537500Y-113050000D03*
X47462500Y-113050000D03*
%TD*%
%TO.C,C60*%
X31537500Y-41050000D03*
X29462500Y-41050000D03*
%TD*%
D15*
%TO.C,D111*%
X114100000Y-64300000D03*
D16*
X108900000Y-64300000D03*
D15*
X108900000Y-65800000D03*
X114100000Y-65800000D03*
%TD*%
%TO.C,D156*%
X15100000Y-100300000D03*
D16*
X9900000Y-100300000D03*
D15*
X9900000Y-101800000D03*
X15100000Y-101800000D03*
%TD*%
%TO.C,D186*%
X33100000Y-118300000D03*
D16*
X27900000Y-118300000D03*
D15*
X27900000Y-119800000D03*
X33100000Y-119800000D03*
%TD*%
D17*
%TO.C,C126*%
X121537500Y-77050000D03*
X119462500Y-77050000D03*
%TD*%
D15*
%TO.C,D135*%
X78100000Y-82300000D03*
D16*
X72900000Y-82300000D03*
D15*
X72900000Y-83800000D03*
X78100000Y-83800000D03*
%TD*%
%TO.C,D95*%
X96100000Y-55300000D03*
D16*
X90900000Y-55300000D03*
D15*
X90900000Y-56800000D03*
X96100000Y-56800000D03*
%TD*%
D17*
%TO.C,C67*%
X94537500Y-41050000D03*
X92462500Y-41050000D03*
%TD*%
%TO.C,C123*%
X94537500Y-77050000D03*
X92462500Y-77050000D03*
%TD*%
D15*
%TO.C,D194*%
X105100000Y-118300000D03*
D16*
X99900000Y-118300000D03*
D15*
X99900000Y-119800000D03*
X105100000Y-119800000D03*
%TD*%
D17*
%TO.C,C13*%
X112537500Y-5050000D03*
X110462500Y-5050000D03*
%TD*%
%TO.C,C36*%
X67537500Y-23050000D03*
X65462500Y-23050000D03*
%TD*%
D15*
%TO.C,D178*%
X87100000Y-109300000D03*
D16*
X81900000Y-109300000D03*
D15*
X81900000Y-110800000D03*
X87100000Y-110800000D03*
%TD*%
%TO.C,D102*%
X33100000Y-64300000D03*
D16*
X27900000Y-64300000D03*
D15*
X27900000Y-65800000D03*
X33100000Y-65800000D03*
%TD*%
%TO.C,D15*%
X6100000Y-10300000D03*
D16*
X900000Y-10300000D03*
D15*
X900000Y-11800000D03*
X6100000Y-11800000D03*
%TD*%
D17*
%TO.C,C117*%
X40537500Y-77050000D03*
X38462500Y-77050000D03*
%TD*%
D15*
%TO.C,D177*%
X78100000Y-109300000D03*
D16*
X72900000Y-109300000D03*
D15*
X72900000Y-110800000D03*
X78100000Y-110800000D03*
%TD*%
D17*
%TO.C,C37*%
X76537500Y-23050000D03*
X74462500Y-23050000D03*
%TD*%
%TO.C,C116*%
X31537500Y-77050000D03*
X29462500Y-77050000D03*
%TD*%
D15*
%TO.C,D45*%
X24100000Y-28300000D03*
D16*
X18900000Y-28300000D03*
D15*
X18900000Y-29800000D03*
X24100000Y-29800000D03*
%TD*%
D17*
%TO.C,C181*%
X112537500Y-113050000D03*
X110462500Y-113050000D03*
%TD*%
D15*
%TO.C,D1*%
X6100000Y-1300000D03*
D16*
X900000Y-1300000D03*
D15*
X900000Y-2800000D03*
X6100000Y-2800000D03*
%TD*%
%TO.C,D181*%
X114100000Y-109300000D03*
D16*
X108900000Y-109300000D03*
D15*
X108900000Y-110800000D03*
X114100000Y-110800000D03*
%TD*%
%TO.C,D179*%
X96100000Y-109300000D03*
D16*
X90900000Y-109300000D03*
D15*
X90900000Y-110800000D03*
X96100000Y-110800000D03*
%TD*%
%TO.C,D103*%
X42100000Y-64300000D03*
D16*
X36900000Y-64300000D03*
D15*
X36900000Y-65800000D03*
X42100000Y-65800000D03*
%TD*%
D17*
%TO.C,C164*%
X85537500Y-104050000D03*
X83462500Y-104050000D03*
%TD*%
D15*
%TO.C,D54*%
X105100000Y-28300000D03*
D16*
X99900000Y-28300000D03*
D15*
X99900000Y-29800000D03*
X105100000Y-29800000D03*
%TD*%
D17*
%TO.C,C130*%
X31537500Y-86050000D03*
X29462500Y-86050000D03*
%TD*%
%TO.C,C26*%
X103537500Y-14050000D03*
X101462500Y-14050000D03*
%TD*%
%TO.C,C139*%
X112537500Y-86050000D03*
X110462500Y-86050000D03*
%TD*%
%TO.C,C182*%
X121537500Y-113050000D03*
X119462500Y-113050000D03*
%TD*%
D15*
%TO.C,D6*%
X51100000Y-1300000D03*
D16*
X45900000Y-1300000D03*
D15*
X45900000Y-2800000D03*
X51100000Y-2800000D03*
%TD*%
%TO.C,D105*%
X60100000Y-64300000D03*
D16*
X54900000Y-64300000D03*
D15*
X54900000Y-65800000D03*
X60100000Y-65800000D03*
%TD*%
D17*
%TO.C,C135*%
X76537500Y-86050000D03*
X74462500Y-86050000D03*
%TD*%
%TO.C,C64*%
X67537500Y-41050000D03*
X65462500Y-41050000D03*
%TD*%
D15*
%TO.C,D115*%
X24100000Y-73300000D03*
D16*
X18900000Y-73300000D03*
D15*
X18900000Y-74800000D03*
X24100000Y-74800000D03*
%TD*%
D17*
%TO.C,C28*%
X121537500Y-14050000D03*
X119462500Y-14050000D03*
%TD*%
D15*
%TO.C,D109*%
X96100000Y-64300000D03*
D16*
X90900000Y-64300000D03*
D15*
X90900000Y-65800000D03*
X96100000Y-65800000D03*
%TD*%
D17*
%TO.C,C4*%
X31537500Y-5050000D03*
X29462500Y-5050000D03*
%TD*%
D15*
%TO.C,D175*%
X60100000Y-109300000D03*
D16*
X54900000Y-109300000D03*
D15*
X54900000Y-110800000D03*
X60100000Y-110800000D03*
%TD*%
D17*
%TO.C,C168*%
X121537500Y-104050000D03*
X119462500Y-104050000D03*
%TD*%
%TO.C,C102*%
X31537500Y-68050000D03*
X29462500Y-68050000D03*
%TD*%
D15*
%TO.C,D163*%
X78100000Y-100300000D03*
D16*
X72900000Y-100300000D03*
D15*
X72900000Y-101800000D03*
X78100000Y-101800000D03*
%TD*%
%TO.C,D77*%
X60100000Y-46300000D03*
D16*
X54900000Y-46300000D03*
D15*
X54900000Y-47800000D03*
X60100000Y-47800000D03*
%TD*%
D17*
%TO.C,C34*%
X49537500Y-23050000D03*
X47462500Y-23050000D03*
%TD*%
D15*
%TO.C,D188*%
X51100000Y-118300000D03*
D16*
X45900000Y-118300000D03*
D15*
X45900000Y-119800000D03*
X51100000Y-119800000D03*
%TD*%
%TO.C,D76*%
X51100000Y-46300000D03*
D16*
X45900000Y-46300000D03*
D15*
X45900000Y-47800000D03*
X51100000Y-47800000D03*
%TD*%
D17*
%TO.C,C99*%
X4537500Y-68050000D03*
X2462500Y-68050000D03*
%TD*%
D15*
%TO.C,D176*%
X69100000Y-109300000D03*
D16*
X63900000Y-109300000D03*
D15*
X63900000Y-110800000D03*
X69100000Y-110800000D03*
%TD*%
D17*
%TO.C,C11*%
X94537500Y-5050000D03*
X92462500Y-5050000D03*
%TD*%
%TO.C,C105*%
X58537500Y-68050000D03*
X56462500Y-68050000D03*
%TD*%
D15*
%TO.C,D128*%
X15100000Y-82300000D03*
D16*
X9900000Y-82300000D03*
D15*
X9900000Y-83800000D03*
X15100000Y-83800000D03*
%TD*%
%TO.C,D126*%
X123100000Y-73300000D03*
D16*
X117900000Y-73300000D03*
D15*
X117900000Y-74800000D03*
X123100000Y-74800000D03*
%TD*%
D17*
%TO.C,C98*%
X121537500Y-59050000D03*
X119462500Y-59050000D03*
%TD*%
D15*
%TO.C,D137*%
X96100000Y-82300000D03*
D16*
X90900000Y-82300000D03*
D15*
X90900000Y-83800000D03*
X96100000Y-83800000D03*
%TD*%
D17*
%TO.C,C81*%
X94537500Y-50050000D03*
X92462500Y-50050000D03*
%TD*%
%TO.C,C101*%
X22537500Y-68050000D03*
X20462500Y-68050000D03*
%TD*%
D15*
%TO.C,D63*%
X60100000Y-37300000D03*
D16*
X54900000Y-37300000D03*
D15*
X54900000Y-38800000D03*
X60100000Y-38800000D03*
%TD*%
%TO.C,D147*%
X60100000Y-91300000D03*
D16*
X54900000Y-91300000D03*
D15*
X54900000Y-92800000D03*
X60100000Y-92800000D03*
%TD*%
D19*
%TO.C,R1*%
X32600000Y15812500D03*
X32600000Y13987500D03*
%TD*%
D15*
%TO.C,D19*%
X42100000Y-10300000D03*
D16*
X36900000Y-10300000D03*
D15*
X36900000Y-11800000D03*
X42100000Y-11800000D03*
%TD*%
%TO.C,D99*%
X6100000Y-64300000D03*
D16*
X900000Y-64300000D03*
D15*
X900000Y-65800000D03*
X6100000Y-65800000D03*
%TD*%
%TO.C,D75*%
X42100000Y-46300000D03*
D16*
X36900000Y-46300000D03*
D15*
X36900000Y-47800000D03*
X42100000Y-47800000D03*
%TD*%
%TO.C,D149*%
X78100000Y-91300000D03*
D16*
X72900000Y-91300000D03*
D15*
X72900000Y-92800000D03*
X78100000Y-92800000D03*
%TD*%
D17*
%TO.C,C32*%
X31537500Y-23050000D03*
X29462500Y-23050000D03*
%TD*%
%TO.C,C48*%
X49537500Y-32050000D03*
X47462500Y-32050000D03*
%TD*%
D15*
%TO.C,D190*%
X69100000Y-118300000D03*
D16*
X63900000Y-118300000D03*
D15*
X63900000Y-119800000D03*
X69100000Y-119800000D03*
%TD*%
%TO.C,D25*%
X96100000Y-10300000D03*
D16*
X90900000Y-10300000D03*
D15*
X90900000Y-11800000D03*
X96100000Y-11800000D03*
%TD*%
%TO.C,D192*%
X87100000Y-118300000D03*
D16*
X81900000Y-118300000D03*
D15*
X81900000Y-119800000D03*
X87100000Y-119800000D03*
%TD*%
D17*
%TO.C,C146*%
X49537500Y-95050000D03*
X47462500Y-95050000D03*
%TD*%
D15*
%TO.C,D145*%
X42100000Y-91300000D03*
D16*
X36900000Y-91300000D03*
D15*
X36900000Y-92800000D03*
X42100000Y-92800000D03*
%TD*%
D17*
%TO.C,C89*%
X40537500Y-59050000D03*
X38462500Y-59050000D03*
%TD*%
%TO.C,C74*%
X31537500Y-50050000D03*
X29462500Y-50050000D03*
%TD*%
%TO.C,C176*%
X67537500Y-113050000D03*
X65462500Y-113050000D03*
%TD*%
D15*
%TO.C,D44*%
X15100000Y-28300000D03*
D16*
X9900000Y-28300000D03*
D15*
X9900000Y-29800000D03*
X15100000Y-29800000D03*
%TD*%
%TO.C,D120*%
X69100000Y-73300000D03*
D16*
X63900000Y-73300000D03*
D15*
X63900000Y-74800000D03*
X69100000Y-74800000D03*
%TD*%
D17*
%TO.C,C140*%
X121537500Y-86050000D03*
X119462500Y-86050000D03*
%TD*%
%TO.C,C166*%
X103537500Y-104050000D03*
X101462500Y-104050000D03*
%TD*%
%TO.C,C120*%
X67537500Y-77050000D03*
X65462500Y-77050000D03*
%TD*%
D15*
%TO.C,D167*%
X114100000Y-100300000D03*
D16*
X108900000Y-100300000D03*
D15*
X108900000Y-101800000D03*
X114100000Y-101800000D03*
%TD*%
%TO.C,D134*%
X69100000Y-82300000D03*
D16*
X63900000Y-82300000D03*
D15*
X63900000Y-83800000D03*
X69100000Y-83800000D03*
%TD*%
D17*
%TO.C,C55*%
X112537500Y-32050000D03*
X110462500Y-32050000D03*
%TD*%
%TO.C,C124*%
X103537500Y-77050000D03*
X101462500Y-77050000D03*
%TD*%
%TO.C,C78*%
X67537500Y-50050000D03*
X65462500Y-50050000D03*
%TD*%
D15*
%TO.C,D27*%
X114100000Y-10300000D03*
D16*
X108900000Y-10300000D03*
D15*
X108900000Y-11800000D03*
X114100000Y-11800000D03*
%TD*%
%TO.C,D193*%
X96100000Y-118300000D03*
D16*
X90900000Y-118300000D03*
D15*
X90900000Y-119800000D03*
X96100000Y-119800000D03*
%TD*%
%TO.C,D59*%
X24100000Y-37300000D03*
D16*
X18900000Y-37300000D03*
D15*
X18900000Y-38800000D03*
X24100000Y-38800000D03*
%TD*%
%TO.C,D96*%
X105100000Y-55300000D03*
D16*
X99900000Y-55300000D03*
D15*
X99900000Y-56800000D03*
X105100000Y-56800000D03*
%TD*%
%TO.C,D171*%
X24100000Y-109300000D03*
D16*
X18900000Y-109300000D03*
D15*
X18900000Y-110800000D03*
X24100000Y-110800000D03*
%TD*%
%TO.C,D28*%
X123100000Y-10300000D03*
D16*
X117900000Y-10300000D03*
D15*
X117900000Y-11800000D03*
X123100000Y-11800000D03*
%TD*%
D17*
%TO.C,C23*%
X76537500Y-14050000D03*
X74462500Y-14050000D03*
%TD*%
%TO.C,C193*%
X94537500Y-122050000D03*
X92462500Y-122050000D03*
%TD*%
D15*
%TO.C,D39*%
X96100000Y-19300000D03*
D16*
X90900000Y-19300000D03*
D15*
X90900000Y-20800000D03*
X96100000Y-20800000D03*
%TD*%
%TO.C,D91*%
X60100000Y-55300000D03*
D16*
X54900000Y-55300000D03*
D15*
X54900000Y-56800000D03*
X60100000Y-56800000D03*
%TD*%
%TO.C,D58*%
X15100000Y-37300000D03*
D16*
X9900000Y-37300000D03*
D15*
X9900000Y-38800000D03*
X15100000Y-38800000D03*
%TD*%
D17*
%TO.C,C49*%
X58537500Y-32050000D03*
X56462500Y-32050000D03*
%TD*%
D15*
%TO.C,D49*%
X60100000Y-28300000D03*
D16*
X54900000Y-28300000D03*
D15*
X54900000Y-29800000D03*
X60100000Y-29800000D03*
%TD*%
D17*
%TO.C,C114*%
X13537500Y-77050000D03*
X11462500Y-77050000D03*
%TD*%
%TO.C,C157*%
X22537500Y-104050000D03*
X20462500Y-104050000D03*
%TD*%
D15*
%TO.C,D123*%
X96100000Y-73300000D03*
D16*
X90900000Y-73300000D03*
D15*
X90900000Y-74800000D03*
X96100000Y-74800000D03*
%TD*%
D17*
%TO.C,C196*%
X121537500Y-122050000D03*
X119462500Y-122050000D03*
%TD*%
D15*
%TO.C,D129*%
X24100000Y-82300000D03*
D16*
X18900000Y-82300000D03*
D15*
X18900000Y-83800000D03*
X24100000Y-83800000D03*
%TD*%
%TO.C,D136*%
X87100000Y-82300000D03*
D16*
X81900000Y-82300000D03*
D15*
X81900000Y-83800000D03*
X87100000Y-83800000D03*
%TD*%
%TO.C,D112*%
X123100000Y-64300000D03*
D16*
X117900000Y-64300000D03*
D15*
X117900000Y-65800000D03*
X123100000Y-65800000D03*
%TD*%
D17*
%TO.C,C118*%
X49537500Y-77050000D03*
X47462500Y-77050000D03*
%TD*%
%TO.C,C145*%
X40537500Y-95050000D03*
X38462500Y-95050000D03*
%TD*%
D15*
%TO.C,D132*%
X51100000Y-82300000D03*
D16*
X45900000Y-82300000D03*
D15*
X45900000Y-83800000D03*
X51100000Y-83800000D03*
%TD*%
%TO.C,D180*%
X105100000Y-109300000D03*
D16*
X99900000Y-109300000D03*
D15*
X99900000Y-110800000D03*
X105100000Y-110800000D03*
%TD*%
D17*
%TO.C,C73*%
X22537500Y-50050000D03*
X20462500Y-50050000D03*
%TD*%
%TO.C,C51*%
X76537500Y-32050000D03*
X74462500Y-32050000D03*
%TD*%
%TO.C,C96*%
X103537500Y-59050000D03*
X101462500Y-59050000D03*
%TD*%
D15*
%TO.C,D110*%
X105100000Y-64300000D03*
D16*
X99900000Y-64300000D03*
D15*
X99900000Y-65800000D03*
X105100000Y-65800000D03*
%TD*%
%TO.C,D3*%
X24100000Y-1300000D03*
D16*
X18900000Y-1300000D03*
D15*
X18900000Y-2800000D03*
X24100000Y-2800000D03*
%TD*%
%TO.C,D98*%
X123100000Y-55300000D03*
D16*
X117900000Y-55300000D03*
D15*
X117900000Y-56800000D03*
X123100000Y-56800000D03*
%TD*%
D17*
%TO.C,C30*%
X13537500Y-23050000D03*
X11462500Y-23050000D03*
%TD*%
D15*
%TO.C,D5*%
X42100000Y-1300000D03*
D16*
X36900000Y-1300000D03*
D15*
X36900000Y-2800000D03*
X42100000Y-2800000D03*
%TD*%
D17*
%TO.C,C33*%
X40537500Y-23050000D03*
X38462500Y-23050000D03*
%TD*%
D15*
%TO.C,D83*%
X114100000Y-46300000D03*
D16*
X108900000Y-46300000D03*
D15*
X108900000Y-47800000D03*
X114100000Y-47800000D03*
%TD*%
D17*
%TO.C,C144*%
X31537500Y-95050000D03*
X29462500Y-95050000D03*
%TD*%
D15*
%TO.C,D81*%
X96100000Y-46300000D03*
D16*
X90900000Y-46300000D03*
D15*
X90900000Y-47800000D03*
X96100000Y-47800000D03*
%TD*%
D17*
%TO.C,C158*%
X31537500Y-104050000D03*
X29462500Y-104050000D03*
%TD*%
D15*
%TO.C,D66*%
X87100000Y-37300000D03*
D16*
X81900000Y-37300000D03*
D15*
X81900000Y-38800000D03*
X87100000Y-38800000D03*
%TD*%
%TO.C,D164*%
X87100000Y-100300000D03*
D16*
X81900000Y-100300000D03*
D15*
X81900000Y-101800000D03*
X87100000Y-101800000D03*
%TD*%
D17*
%TO.C,C154*%
X121537500Y-95050000D03*
X119462500Y-95050000D03*
%TD*%
D15*
%TO.C,D157*%
X24100000Y-100300000D03*
D16*
X18900000Y-100300000D03*
D15*
X18900000Y-101800000D03*
X24100000Y-101800000D03*
%TD*%
%TO.C,D143*%
X24100000Y-91300000D03*
D16*
X18900000Y-91300000D03*
D15*
X18900000Y-92800000D03*
X24100000Y-92800000D03*
%TD*%
D17*
%TO.C,C25*%
X94537500Y-14050000D03*
X92462500Y-14050000D03*
%TD*%
D15*
%TO.C,D21*%
X60100000Y-10300000D03*
D16*
X54900000Y-10300000D03*
D15*
X54900000Y-11800000D03*
X60100000Y-11800000D03*
%TD*%
%TO.C,D114*%
X15100000Y-73300000D03*
D16*
X9900000Y-73300000D03*
D15*
X9900000Y-74800000D03*
X15100000Y-74800000D03*
%TD*%
%TO.C,D118*%
X51100000Y-73300000D03*
D16*
X45900000Y-73300000D03*
D15*
X45900000Y-74800000D03*
X51100000Y-74800000D03*
%TD*%
D17*
%TO.C,C14*%
X121537500Y-5050000D03*
X119462500Y-5050000D03*
%TD*%
D15*
%TO.C,D18*%
X33100000Y-10300000D03*
D16*
X27900000Y-10300000D03*
D15*
X27900000Y-11800000D03*
X33100000Y-11800000D03*
%TD*%
D17*
%TO.C,C44*%
X13537500Y-32050000D03*
X11462500Y-32050000D03*
%TD*%
%TO.C,C8*%
X67537500Y-5050000D03*
X65462500Y-5050000D03*
%TD*%
D15*
%TO.C,D79*%
X78100000Y-46300000D03*
D16*
X72900000Y-46300000D03*
D15*
X72900000Y-47800000D03*
X78100000Y-47800000D03*
%TD*%
%TO.C,D48*%
X51100000Y-28300000D03*
D16*
X45900000Y-28300000D03*
D15*
X45900000Y-29800000D03*
X51100000Y-29800000D03*
%TD*%
D17*
%TO.C,C47*%
X40537500Y-32050000D03*
X38462500Y-32050000D03*
%TD*%
%TO.C,C149*%
X76537500Y-95050000D03*
X74462500Y-95050000D03*
%TD*%
D15*
%TO.C,D24*%
X87100000Y-10300000D03*
D16*
X81900000Y-10300000D03*
D15*
X81900000Y-11800000D03*
X87100000Y-11800000D03*
%TD*%
%TO.C,D117*%
X42100000Y-73300000D03*
D16*
X36900000Y-73300000D03*
D15*
X36900000Y-74800000D03*
X42100000Y-74800000D03*
%TD*%
%TO.C,D60*%
X33100000Y-37300000D03*
D16*
X27900000Y-37300000D03*
D15*
X27900000Y-38800000D03*
X33100000Y-38800000D03*
%TD*%
%TO.C,D119*%
X60100000Y-73300000D03*
D16*
X54900000Y-73300000D03*
D15*
X54900000Y-74800000D03*
X60100000Y-74800000D03*
%TD*%
D17*
%TO.C,C147*%
X58537500Y-95050000D03*
X56462500Y-95050000D03*
%TD*%
%TO.C,C58*%
X13537500Y-41050000D03*
X11462500Y-41050000D03*
%TD*%
%TO.C,C88*%
X31537500Y-59050000D03*
X29462500Y-59050000D03*
%TD*%
D15*
%TO.C,D70*%
X123100000Y-37300000D03*
D16*
X117900000Y-37300000D03*
D15*
X117900000Y-38800000D03*
X123100000Y-38800000D03*
%TD*%
D17*
%TO.C,C3*%
X22537500Y-5050000D03*
X20462500Y-5050000D03*
%TD*%
%TO.C,C50*%
X67537500Y-32050000D03*
X65462500Y-32050000D03*
%TD*%
%TO.C,C77*%
X58537500Y-50050000D03*
X56462500Y-50050000D03*
%TD*%
D15*
%TO.C,D64*%
X69100000Y-37300000D03*
D16*
X63900000Y-37300000D03*
D15*
X63900000Y-38800000D03*
X69100000Y-38800000D03*
%TD*%
%TO.C,D151*%
X96100000Y-91300000D03*
D16*
X90900000Y-91300000D03*
D15*
X90900000Y-92800000D03*
X96100000Y-92800000D03*
%TD*%
D17*
%TO.C,C152*%
X103537500Y-95050000D03*
X101462500Y-95050000D03*
%TD*%
D20*
%TO.C,J3*%
X33200000Y17720000D03*
D21*
X35220000Y17720000D03*
D22*
X36450000Y17720000D03*
D20*
X34200000Y17720000D03*
D21*
X32180000Y17720000D03*
D22*
X30950000Y17720000D03*
D23*
X29380000Y17800000D03*
X29380000Y21600000D03*
X38020000Y17800000D03*
X38020000Y21600000D03*
%TD*%
D17*
%TO.C,C150*%
X85537500Y-95050000D03*
X83462500Y-95050000D03*
%TD*%
D24*
%TO.C,J1*%
X26000000Y1500000D03*
D25*
X28540000Y1500000D03*
X31080000Y1500000D03*
X33620000Y1500000D03*
X36160000Y1500000D03*
X38700000Y1500000D03*
X41240000Y1500000D03*
X43780000Y1500000D03*
X46320000Y1500000D03*
X48860000Y1500000D03*
X51400000Y1500000D03*
X53940000Y1500000D03*
X56480000Y1500000D03*
X59020000Y1500000D03*
X61560000Y1500000D03*
X64100000Y1500000D03*
%TD*%
D15*
%TO.C,D113*%
X6100000Y-73300000D03*
D16*
X900000Y-73300000D03*
D15*
X900000Y-74800000D03*
X6100000Y-74800000D03*
%TD*%
%TO.C,D72*%
X15100000Y-46300000D03*
D16*
X9900000Y-46300000D03*
D15*
X9900000Y-47800000D03*
X15100000Y-47800000D03*
%TD*%
%TO.C,D144*%
X33100000Y-91300000D03*
D16*
X27900000Y-91300000D03*
D15*
X27900000Y-92800000D03*
X33100000Y-92800000D03*
%TD*%
%TO.C,D22*%
X69100000Y-10300000D03*
D16*
X63900000Y-10300000D03*
D15*
X63900000Y-11800000D03*
X69100000Y-11800000D03*
%TD*%
D17*
%TO.C,C20*%
X49537500Y-14050000D03*
X47462500Y-14050000D03*
%TD*%
%TO.C,C137*%
X94537500Y-86050000D03*
X92462500Y-86050000D03*
%TD*%
%TO.C,C153*%
X112537500Y-95050000D03*
X110462500Y-95050000D03*
%TD*%
%TO.C,C170*%
X13537500Y-113050000D03*
X11462500Y-113050000D03*
%TD*%
%TO.C,C175*%
X58537500Y-113050000D03*
X56462500Y-113050000D03*
%TD*%
%TO.C,C75*%
X40537500Y-50050000D03*
X38462500Y-50050000D03*
%TD*%
D15*
%TO.C,D23*%
X78100000Y-10300000D03*
D16*
X72900000Y-10300000D03*
D15*
X72900000Y-11800000D03*
X78100000Y-11800000D03*
%TD*%
%TO.C,D7*%
X60100000Y-1300000D03*
D16*
X54900000Y-1300000D03*
D15*
X54900000Y-2800000D03*
X60100000Y-2800000D03*
%TD*%
%TO.C,D161*%
X60100000Y-100300000D03*
D16*
X54900000Y-100300000D03*
D15*
X54900000Y-101800000D03*
X60100000Y-101800000D03*
%TD*%
D17*
%TO.C,C21*%
X58537500Y-14050000D03*
X56462500Y-14050000D03*
%TD*%
%TO.C,C191*%
X76537500Y-122050000D03*
X74462500Y-122050000D03*
%TD*%
D15*
%TO.C,D140*%
X123100000Y-82300000D03*
D16*
X117900000Y-82300000D03*
D15*
X117900000Y-83800000D03*
X123100000Y-83800000D03*
%TD*%
D17*
%TO.C,C1*%
X4537500Y-5050000D03*
X2462500Y-5050000D03*
%TD*%
%TO.C,C61*%
X40537500Y-41050000D03*
X38462500Y-41050000D03*
%TD*%
%TO.C,C46*%
X31537500Y-32050000D03*
X29462500Y-32050000D03*
%TD*%
%TO.C,C91*%
X58537500Y-59050000D03*
X56462500Y-59050000D03*
%TD*%
D15*
%TO.C,D14*%
X123100000Y-1300000D03*
D16*
X117900000Y-1300000D03*
D15*
X117900000Y-2800000D03*
X123100000Y-2800000D03*
%TD*%
%TO.C,D160*%
X51100000Y-100300000D03*
D16*
X45900000Y-100300000D03*
D15*
X45900000Y-101800000D03*
X51100000Y-101800000D03*
%TD*%
D17*
%TO.C,C173*%
X40537500Y-113050000D03*
X38462500Y-113050000D03*
%TD*%
%TO.C,C155*%
X4537500Y-104050000D03*
X2462500Y-104050000D03*
%TD*%
D15*
%TO.C,D122*%
X87100000Y-73300000D03*
D16*
X81900000Y-73300000D03*
D15*
X81900000Y-74800000D03*
X87100000Y-74800000D03*
%TD*%
%TO.C,D90*%
X51100000Y-55300000D03*
D16*
X45900000Y-55300000D03*
D15*
X45900000Y-56800000D03*
X51100000Y-56800000D03*
%TD*%
%TO.C,D121*%
X78100000Y-73300000D03*
D16*
X72900000Y-73300000D03*
D15*
X72900000Y-74800000D03*
X78100000Y-74800000D03*
%TD*%
D17*
%TO.C,C113*%
X4537500Y-77050000D03*
X2462500Y-77050000D03*
%TD*%
D15*
%TO.C,D116*%
X33100000Y-73300000D03*
D16*
X27900000Y-73300000D03*
D15*
X27900000Y-74800000D03*
X33100000Y-74800000D03*
%TD*%
D17*
%TO.C,C22*%
X67537500Y-14050000D03*
X65462500Y-14050000D03*
%TD*%
%TO.C,C59*%
X22537500Y-41050000D03*
X20462500Y-41050000D03*
%TD*%
%TO.C,C134*%
X67537500Y-86050000D03*
X65462500Y-86050000D03*
%TD*%
D15*
%TO.C,D73*%
X24100000Y-46300000D03*
D16*
X18900000Y-46300000D03*
D15*
X18900000Y-47800000D03*
X24100000Y-47800000D03*
%TD*%
%TO.C,D94*%
X87100000Y-55300000D03*
D16*
X81900000Y-55300000D03*
D15*
X81900000Y-56800000D03*
X87100000Y-56800000D03*
%TD*%
D17*
%TO.C,C195*%
X112537500Y-122050000D03*
X110462500Y-122050000D03*
%TD*%
%TO.C,C141*%
X4537500Y-95050000D03*
X2462500Y-95050000D03*
%TD*%
%TO.C,C179*%
X94537500Y-113050000D03*
X92462500Y-113050000D03*
%TD*%
%TO.C,C133*%
X58537500Y-86050000D03*
X56462500Y-86050000D03*
%TD*%
D15*
%TO.C,D101*%
X24100000Y-64300000D03*
D16*
X18900000Y-64300000D03*
D15*
X18900000Y-65800000D03*
X24100000Y-65800000D03*
%TD*%
D17*
%TO.C,C183*%
X4537500Y-122050000D03*
X2462500Y-122050000D03*
%TD*%
D15*
%TO.C,D195*%
X114100000Y-118300000D03*
D16*
X108900000Y-118300000D03*
D15*
X108900000Y-119800000D03*
X114100000Y-119800000D03*
%TD*%
D17*
%TO.C,C83*%
X112537500Y-50050000D03*
X110462500Y-50050000D03*
%TD*%
D15*
%TO.C,D62*%
X51100000Y-37300000D03*
D16*
X45900000Y-37300000D03*
D15*
X45900000Y-38800000D03*
X51100000Y-38800000D03*
%TD*%
D17*
%TO.C,C84*%
X121537500Y-50050000D03*
X119462500Y-50050000D03*
%TD*%
D15*
%TO.C,D47*%
X42100000Y-28300000D03*
D16*
X36900000Y-28300000D03*
D15*
X36900000Y-29800000D03*
X42100000Y-29800000D03*
%TD*%
%TO.C,D51*%
X78100000Y-28300000D03*
D16*
X72900000Y-28300000D03*
D15*
X72900000Y-29800000D03*
X78100000Y-29800000D03*
%TD*%
%TO.C,D50*%
X69100000Y-28300000D03*
D16*
X63900000Y-28300000D03*
D15*
X63900000Y-29800000D03*
X69100000Y-29800000D03*
%TD*%
%TO.C,D43*%
X6100000Y-28300000D03*
D16*
X900000Y-28300000D03*
D15*
X900000Y-29800000D03*
X6100000Y-29800000D03*
%TD*%
D26*
%TO.C,J2*%
X40595000Y21580000D03*
%TD*%
D15*
%TO.C,D189*%
X60100000Y-118300000D03*
D16*
X54900000Y-118300000D03*
D15*
X54900000Y-119800000D03*
X60100000Y-119800000D03*
%TD*%
%TO.C,D12*%
X105100000Y-1300000D03*
D16*
X99900000Y-1300000D03*
D15*
X99900000Y-2800000D03*
X105100000Y-2800000D03*
%TD*%
D27*
%TO.C,R2*%
X34100000Y13987500D03*
X34100000Y15812500D03*
%TD*%
D17*
%TO.C,C19*%
X40537500Y-14050000D03*
X38462500Y-14050000D03*
%TD*%
%TO.C,C111*%
X112537500Y-68050000D03*
X110462500Y-68050000D03*
%TD*%
D15*
%TO.C,D170*%
X15100000Y-109300000D03*
D16*
X9900000Y-109300000D03*
D15*
X9900000Y-110800000D03*
X15100000Y-110800000D03*
%TD*%
%TO.C,D11*%
X96100000Y-1300000D03*
D16*
X90900000Y-1300000D03*
D15*
X90900000Y-2800000D03*
X96100000Y-2800000D03*
%TD*%
D17*
%TO.C,C6*%
X49537500Y-5050000D03*
X47462500Y-5050000D03*
%TD*%
%TO.C,C10*%
X85537500Y-5050000D03*
X83462500Y-5050000D03*
%TD*%
%TO.C,C162*%
X67537500Y-104050000D03*
X65462500Y-104050000D03*
%TD*%
D15*
%TO.C,D97*%
X114100000Y-55300000D03*
D16*
X108900000Y-55300000D03*
D15*
X108900000Y-56800000D03*
X114100000Y-56800000D03*
%TD*%
D17*
%TO.C,C171*%
X22537500Y-113050000D03*
X20462500Y-113050000D03*
%TD*%
%TO.C,C178*%
X85537500Y-113050000D03*
X83462500Y-113050000D03*
%TD*%
%TO.C,C15*%
X4537500Y-14050000D03*
X2462500Y-14050000D03*
%TD*%
D15*
%TO.C,D56*%
X123100000Y-28300000D03*
D16*
X117900000Y-28300000D03*
D15*
X117900000Y-29800000D03*
X123100000Y-29800000D03*
%TD*%
%TO.C,D88*%
X33100000Y-55300000D03*
D16*
X27900000Y-55300000D03*
D15*
X27900000Y-56800000D03*
X33100000Y-56800000D03*
%TD*%
%TO.C,D184*%
X15100000Y-118300000D03*
D16*
X9900000Y-118300000D03*
D15*
X9900000Y-119800000D03*
X15100000Y-119800000D03*
%TD*%
D17*
%TO.C,C112*%
X121537500Y-68050000D03*
X119462500Y-68050000D03*
%TD*%
D15*
%TO.C,D34*%
X51100000Y-19300000D03*
D16*
X45900000Y-19300000D03*
D15*
X45900000Y-20800000D03*
X51100000Y-20800000D03*
%TD*%
%TO.C,D10*%
X87100000Y-1300000D03*
D16*
X81900000Y-1300000D03*
D15*
X81900000Y-2800000D03*
X87100000Y-2800000D03*
%TD*%
D17*
%TO.C,C18*%
X31537500Y-14050000D03*
X29462500Y-14050000D03*
%TD*%
%TO.C,C143*%
X22537500Y-95050000D03*
X20462500Y-95050000D03*
%TD*%
%TO.C,C79*%
X76537500Y-50050000D03*
X74462500Y-50050000D03*
%TD*%
%TO.C,C43*%
X4537500Y-32050000D03*
X2462500Y-32050000D03*
%TD*%
%TO.C,C121*%
X76537500Y-77050000D03*
X74462500Y-77050000D03*
%TD*%
%TO.C,C66*%
X85537500Y-41050000D03*
X83462500Y-41050000D03*
%TD*%
D15*
%TO.C,D68*%
X105100000Y-37300000D03*
D16*
X99900000Y-37300000D03*
D15*
X99900000Y-38800000D03*
X105100000Y-38800000D03*
%TD*%
D17*
%TO.C,C177*%
X76537500Y-113050000D03*
X74462500Y-113050000D03*
%TD*%
D15*
%TO.C,D108*%
X87100000Y-64300000D03*
D16*
X81900000Y-64300000D03*
D15*
X81900000Y-65800000D03*
X87100000Y-65800000D03*
%TD*%
D17*
%TO.C,C72*%
X13537500Y-50050000D03*
X11462500Y-50050000D03*
%TD*%
D15*
%TO.C,D69*%
X114100000Y-37300000D03*
D16*
X108900000Y-37300000D03*
D15*
X108900000Y-38800000D03*
X114100000Y-38800000D03*
%TD*%
D17*
%TO.C,C12*%
X103537500Y-5050000D03*
X101462500Y-5050000D03*
%TD*%
%TO.C,C56*%
X121537500Y-32050000D03*
X119462500Y-32050000D03*
%TD*%
%TO.C,C87*%
X22537500Y-59050000D03*
X20462500Y-59050000D03*
%TD*%
D15*
%TO.C,D26*%
X105100000Y-10300000D03*
D16*
X99900000Y-10300000D03*
D15*
X99900000Y-11800000D03*
X105100000Y-11800000D03*
%TD*%
%TO.C,D86*%
X15100000Y-55300000D03*
D16*
X9900000Y-55300000D03*
D15*
X9900000Y-56800000D03*
X15100000Y-56800000D03*
%TD*%
%TO.C,D168*%
X123100000Y-100300000D03*
D16*
X117900000Y-100300000D03*
D15*
X117900000Y-101800000D03*
X123100000Y-101800000D03*
%TD*%
%TO.C,D152*%
X105100000Y-91300000D03*
D16*
X99900000Y-91300000D03*
D15*
X99900000Y-92800000D03*
X105100000Y-92800000D03*
%TD*%
D17*
%TO.C,C27*%
X112537500Y-14050000D03*
X110462500Y-14050000D03*
%TD*%
D15*
%TO.C,D191*%
X78100000Y-118300000D03*
D16*
X72900000Y-118300000D03*
D15*
X72900000Y-119800000D03*
X78100000Y-119800000D03*
%TD*%
%TO.C,D150*%
X87100000Y-91300000D03*
D16*
X81900000Y-91300000D03*
D15*
X81900000Y-92800000D03*
X87100000Y-92800000D03*
%TD*%
%TO.C,D100*%
X15100000Y-64300000D03*
D16*
X9900000Y-64300000D03*
D15*
X9900000Y-65800000D03*
X15100000Y-65800000D03*
%TD*%
%TO.C,D36*%
X69100000Y-19300000D03*
D16*
X63900000Y-19300000D03*
D15*
X63900000Y-20800000D03*
X69100000Y-20800000D03*
%TD*%
M02*
