M48
; DRILL file {KiCad 8.0.8} date 2025-04-14T17:42:11-0400
; FORMAT={-:-/ absolute / inch / decimal}
; #@! TF.CreationDate,2025-04-14T17:42:11-04:00
; #@! TF.GenerationSoftware,Kicad,Pcbnew,8.0.8
; #@! TF.FileFunction,Plated,1,2,PTH
FMAT,2
INCH
; #@! TA.AperFunction,Plated,PTH,ViaDrill
T1C0.0118
; #@! TA.AperFunction,Plated,PTH,ComponentDrill
T2C0.0236
; #@! TA.AperFunction,Plated,PTH,ComponentDrill
T3C0.0276
; #@! TA.AperFunction,Plated,PTH,ComponentDrill
T4C0.0402
; #@! TA.AperFunction,Plated,PTH,ComponentDrill
T5C0.0500
%
G90
G05
T1
X-0.0315Y-0.0236
X-0.0315Y-0.378
X-0.0315Y-0.7323
X-0.0315Y-1.0866
X-0.0315Y-1.4409
X-0.0315Y-1.7953
X-0.0315Y-2.1496
X-0.0315Y-2.5039
X-0.0315Y-2.8583
X-0.0315Y-3.2126
X-0.0315Y-3.5669
X-0.0315Y-3.9213
X-0.0315Y-4.2756
X-0.0315Y-4.6299
X0.0Y0.2441
X0.0Y0.1457
X0.0453Y-0.1988
X0.0453Y-0.5531
X0.0453Y-0.9075
X0.0453Y-1.2618
X0.0453Y-1.6161
X0.0453Y-1.9705
X0.0453Y-2.3248
X0.0453Y-2.6791
X0.0453Y-3.0335
X0.0453Y-3.3878
X0.0453Y-3.7421
X0.0453Y-4.0965
X0.0453Y-4.4508
X0.0453Y-4.8051
X0.3228Y-0.0236
X0.3228Y-0.378
X0.3228Y-0.7323
X0.3228Y-1.0866
X0.3228Y-1.4409
X0.3228Y-1.7953
X0.3228Y-2.1496
X0.3228Y-2.5039
X0.3228Y-2.8583
X0.3228Y-3.2126
X0.3228Y-3.5669
X0.3228Y-3.9213
X0.3228Y-4.2756
X0.3228Y-4.6299
X0.3996Y-0.1988
X0.3996Y-0.5531
X0.3996Y-0.9075
X0.3996Y-1.2618
X0.3996Y-1.6161
X0.3996Y-1.9705
X0.3996Y-2.3248
X0.3996Y-2.6791
X0.3996Y-3.0335
X0.3996Y-3.3878
X0.3996Y-3.7421
X0.3996Y-4.0965
X0.3996Y-4.4508
X0.3996Y-4.8051
X0.6772Y-0.0236
X0.6772Y-0.378
X0.6772Y-0.7323
X0.6772Y-1.0866
X0.6772Y-1.4409
X0.6772Y-1.7953
X0.6772Y-2.1496
X0.6772Y-2.5039
X0.6772Y-2.8583
X0.6772Y-3.2126
X0.6772Y-3.5669
X0.6772Y-3.9213
X0.6772Y-4.2756
X0.6772Y-4.6299
X0.7539Y-0.1988
X0.7539Y-0.5531
X0.7539Y-0.9075
X0.7539Y-1.2618
X0.7539Y-1.6161
X0.7539Y-1.9705
X0.7539Y-2.3248
X0.7539Y-2.6791
X0.7539Y-3.0335
X0.7539Y-3.3878
X0.7539Y-3.7421
X0.7539Y-4.0965
X0.7539Y-4.4508
X0.7539Y-4.8051
X1.0315Y-0.0236
X1.0315Y-0.378
X1.0315Y-0.7323
X1.0315Y-1.0866
X1.0315Y-1.4409
X1.0315Y-1.7953
X1.0315Y-2.1496
X1.0315Y-2.5039
X1.0315Y-2.8583
X1.0315Y-3.2126
X1.0315Y-3.5669
X1.0315Y-3.9213
X1.0315Y-4.2756
X1.0315Y-4.6299
X1.1083Y-0.1988
X1.1083Y-0.5531
X1.1083Y-0.9075
X1.1083Y-1.2618
X1.1083Y-1.6161
X1.1083Y-1.9705
X1.1083Y-2.3248
X1.1083Y-2.6791
X1.1083Y-3.0335
X1.1083Y-3.3878
X1.1083Y-3.7421
X1.1083Y-4.0965
X1.1083Y-4.4508
X1.1083Y-4.8051
X1.2205Y0.748
X1.3425Y0.5
X1.3858Y-0.0236
X1.3858Y-0.378
X1.3858Y-0.7323
X1.3858Y-1.0866
X1.3858Y-1.4409
X1.3858Y-1.7953
X1.3858Y-2.1496
X1.3858Y-2.5039
X1.3858Y-2.8583
X1.3858Y-3.2126
X1.3858Y-3.5669
X1.3858Y-3.9213
X1.3858Y-4.2756
X1.3858Y-4.6299
X1.4626Y-0.1988
X1.4626Y-0.5531
X1.4626Y-0.9075
X1.4626Y-1.2618
X1.4626Y-1.6161
X1.4626Y-1.9705
X1.4626Y-2.3248
X1.4626Y-2.6791
X1.4626Y-3.0335
X1.4626Y-3.3878
X1.4626Y-3.7421
X1.4626Y-4.0965
X1.4626Y-4.4508
X1.4626Y-4.8051
X1.6732Y0.4882
X1.6831Y0.3181
X1.7402Y-0.0236
X1.7402Y-0.378
X1.7402Y-0.7323
X1.7402Y-1.0866
X1.7402Y-1.4409
X1.7402Y-1.7953
X1.7402Y-2.1496
X1.7402Y-2.5039
X1.7402Y-2.8583
X1.7402Y-3.2126
X1.7402Y-3.5669
X1.7402Y-3.9213
X1.7402Y-4.2756
X1.7402Y-4.6299
X1.8169Y-0.1988
X1.8169Y-0.5531
X1.8169Y-0.9075
X1.8169Y-1.2618
X1.8169Y-1.6161
X1.8169Y-1.9705
X1.8169Y-2.3248
X1.8169Y-2.6791
X1.8169Y-3.0335
X1.8169Y-3.3878
X1.8169Y-3.7421
X1.8169Y-4.0965
X1.8169Y-4.4508
X1.8169Y-4.8051
X2.0945Y-0.0236
X2.0945Y-0.378
X2.0945Y-0.7323
X2.0945Y-1.0866
X2.0945Y-1.4409
X2.0945Y-1.7953
X2.0945Y-2.1496
X2.0945Y-2.5039
X2.0945Y-2.8583
X2.0945Y-3.2126
X2.0945Y-3.5669
X2.0945Y-3.9213
X2.0945Y-4.2756
X2.0945Y-4.6299
X2.1713Y-0.1988
X2.1713Y-0.5531
X2.1713Y-0.9075
X2.1713Y-1.2618
X2.1713Y-1.6161
X2.1713Y-1.9705
X2.1713Y-2.3248
X2.1713Y-2.6791
X2.1713Y-3.0335
X2.1713Y-3.3878
X2.1713Y-3.7421
X2.1713Y-4.0965
X2.1713Y-4.4508
X2.1713Y-4.8051
X2.4488Y-0.0236
X2.4488Y-0.378
X2.4488Y-0.7323
X2.4488Y-1.0866
X2.4488Y-1.4409
X2.4488Y-1.7953
X2.4488Y-2.1496
X2.4488Y-2.5039
X2.4488Y-2.8583
X2.4488Y-3.2126
X2.4488Y-3.5669
X2.4488Y-3.9213
X2.4488Y-4.2756
X2.4488Y-4.6299
X2.5256Y-0.1988
X2.5256Y-0.5531
X2.5256Y-0.9075
X2.5256Y-1.2618
X2.5256Y-1.6161
X2.5256Y-1.9705
X2.5256Y-2.3248
X2.5256Y-2.6791
X2.5256Y-3.0335
X2.5256Y-3.3878
X2.5256Y-3.7421
X2.5256Y-4.0965
X2.5256Y-4.4508
X2.5256Y-4.8051
X2.8031Y-0.0236
X2.8031Y-0.378
X2.8031Y-0.7323
X2.8031Y-1.0866
X2.8031Y-1.4409
X2.8031Y-1.7953
X2.8031Y-2.1496
X2.8031Y-2.5039
X2.8031Y-2.8583
X2.8031Y-3.2126
X2.8031Y-3.5669
X2.8031Y-3.9213
X2.8031Y-4.2756
X2.8031Y-4.6299
X2.8799Y-0.1988
X2.8799Y-0.5531
X2.8799Y-0.9075
X2.8799Y-1.2618
X2.8799Y-1.6161
X2.8799Y-1.9705
X2.8799Y-2.3248
X2.8799Y-2.6791
X2.8799Y-3.0335
X2.8799Y-3.3878
X2.8799Y-3.7421
X2.8799Y-4.0965
X2.8799Y-4.4508
X2.8799Y-4.8051
X3.1575Y-0.0236
X3.1575Y-0.378
X3.1575Y-0.7323
X3.1575Y-1.0866
X3.1575Y-1.4409
X3.1575Y-1.7953
X3.1575Y-2.1496
X3.1575Y-2.5039
X3.1575Y-2.8583
X3.1575Y-3.2126
X3.1575Y-3.5669
X3.1575Y-3.9213
X3.1575Y-4.2756
X3.1575Y-4.6299
X3.2343Y-0.1988
X3.2343Y-0.5531
X3.2343Y-0.9075
X3.2343Y-1.2618
X3.2343Y-1.6161
X3.2343Y-1.9705
X3.2343Y-2.3248
X3.2343Y-2.6791
X3.2343Y-3.0335
X3.2343Y-3.3878
X3.2343Y-3.7421
X3.2343Y-4.0965
X3.2343Y-4.4508
X3.2343Y-4.8051
X3.5118Y-0.0236
X3.5118Y-0.378
X3.5118Y-0.7323
X3.5118Y-1.0866
X3.5118Y-1.4409
X3.5118Y-1.7953
X3.5118Y-2.1496
X3.5118Y-2.5039
X3.5118Y-2.8583
X3.5118Y-3.2126
X3.5118Y-3.5669
X3.5118Y-3.9213
X3.5118Y-4.2756
X3.5118Y-4.6299
X3.5886Y-0.1988
X3.5886Y-0.5531
X3.5886Y-0.9075
X3.5886Y-1.2618
X3.5886Y-1.6161
X3.5886Y-1.9705
X3.5886Y-2.3248
X3.5886Y-2.6791
X3.5886Y-3.0335
X3.5886Y-3.3878
X3.5886Y-3.7421
X3.5886Y-4.0965
X3.5886Y-4.4508
X3.5886Y-4.8051
X3.8661Y-0.0236
X3.8661Y-0.378
X3.8661Y-0.7323
X3.8661Y-1.0866
X3.8661Y-1.4409
X3.8661Y-1.7953
X3.8661Y-2.1496
X3.8661Y-2.5039
X3.8661Y-2.8583
X3.8661Y-3.2126
X3.8661Y-3.5669
X3.8661Y-3.9213
X3.8661Y-4.2756
X3.8661Y-4.6299
X3.9429Y-0.1988
X3.9429Y-0.5531
X3.9429Y-0.9075
X3.9429Y-1.2618
X3.9429Y-1.6161
X3.9429Y-1.9705
X3.9429Y-2.3248
X3.9429Y-2.6791
X3.9429Y-3.0335
X3.9429Y-3.3878
X3.9429Y-3.7421
X3.9429Y-4.0965
X3.9429Y-4.4508
X3.9429Y-4.8051
X4.2205Y-0.0236
X4.2205Y-0.378
X4.2205Y-0.7323
X4.2205Y-1.0866
X4.2205Y-1.4409
X4.2205Y-1.7953
X4.2205Y-2.1496
X4.2205Y-2.5039
X4.2205Y-2.8583
X4.2205Y-3.2126
X4.2205Y-3.5669
X4.2205Y-3.9213
X4.2205Y-4.2756
X4.2205Y-4.6299
X4.2972Y-0.1988
X4.2972Y-0.5531
X4.2972Y-0.9075
X4.2972Y-1.2618
X4.2972Y-1.6161
X4.2972Y-1.9705
X4.2972Y-2.3248
X4.2972Y-2.6791
X4.2972Y-3.0335
X4.2972Y-3.3878
X4.2972Y-3.7421
X4.2972Y-4.0965
X4.2972Y-4.4508
X4.2972Y-4.8051
X4.5748Y-0.0236
X4.5748Y-0.378
X4.5748Y-0.7323
X4.5748Y-1.0866
X4.5748Y-1.4409
X4.5748Y-1.7953
X4.5748Y-2.1496
X4.5748Y-2.5039
X4.5748Y-2.8583
X4.5748Y-3.2126
X4.5748Y-3.5669
X4.5748Y-3.9213
X4.5748Y-4.2756
X4.5748Y-4.6299
X4.6516Y-0.1988
X4.6516Y-0.5531
X4.6516Y-0.9075
X4.6516Y-1.2618
X4.6516Y-1.6161
X4.6516Y-1.9705
X4.6516Y-2.3248
X4.6516Y-2.6791
X4.6516Y-3.0335
X4.6516Y-3.3878
X4.6516Y-3.7421
X4.6516Y-4.0965
X4.6516Y-4.4508
X4.6516Y-4.8051
X4.748Y-0.2559
X4.748Y-0.6102
X4.748Y-0.9646
X4.748Y-1.3189
X4.748Y-1.6732
X4.748Y-2.0276
X4.748Y-2.3819
X4.748Y-2.7362
X4.748Y-3.0906
X4.748Y-3.4449
X4.748Y-3.7992
X4.748Y-4.1535
X4.748Y-4.5079
X4.8268Y-0.5433
X4.8268Y-0.8976
X4.8268Y-1.252
X4.8268Y-1.6063
X4.8268Y-1.9606
X4.8268Y-2.315
X4.8268Y-2.6693
X4.8268Y-3.0236
X4.8268Y-3.378
X4.8268Y-3.7323
X4.8268Y-4.0866
X4.8268Y-4.4409
X4.8268Y-4.7953
T3
X1.5982Y0.8496
T4
X1.0236Y0.0591
X1.1236Y0.0591
X1.2236Y0.0591
X1.3236Y0.0591
X1.4236Y0.0591
X1.5236Y0.0591
X1.6236Y0.0591
X1.7236Y0.0591
X1.8236Y0.0591
X1.9236Y0.0591
X2.0236Y0.0591
X2.1236Y0.0591
X2.2236Y0.0591
X2.3236Y0.0591
X2.4236Y0.0591
X2.5236Y0.0591
T5
X0.0642Y0.8465
X0.0642Y0.7465
X0.0642Y0.6465
X0.0642Y0.5465
X0.0642Y0.4465
X0.0642Y0.3465
X0.0642Y0.2465
X0.0642Y0.1465
X0.6642Y0.8465
X0.6642Y0.7465
X0.6642Y0.6465
X0.6642Y0.5465
X0.6642Y0.4465
X0.6642Y0.3465
X0.6642Y0.2465
X0.6642Y0.1465
T2
G00X1.1567Y0.8622
M15
G01X1.1567Y0.8386
M16
G05
G00X1.1567Y0.7126
M15
G01X1.1567Y0.689
M16
G05
G00X1.4969Y0.8622
M15
G01X1.4969Y0.8386
M16
G05
G00X1.4969Y0.7126
M15
G01X1.4969Y0.689
M16
G05
M30
