%TF.GenerationSoftware,KiCad,Pcbnew,8.0.8*%
%TF.CreationDate,2025-04-11T11:48:30-04:00*%
%TF.ProjectId,Pixel Dust,50697865-6c20-4447-9573-742e6b696361,rev?*%
%TF.SameCoordinates,Original*%
%TF.FileFunction,Profile,NP*%
%FSLAX46Y46*%
G04 Gerber Fmt 4.6, Leading zero omitted, Abs format (unit mm)*
G04 Created by KiCad (PCBNEW 8.0.8) date 2025-04-11 11:48:30*
%MOMM*%
%LPD*%
G01*
G04 APERTURE LIST*
%TA.AperFunction,Profile*%
%ADD10C,0.050000*%
%TD*%
%TA.AperFunction,Profile*%
%ADD11C,0.120000*%
%TD*%
G04 APERTURE END LIST*
D10*
X-7000000Y24200000D02*
X129900000Y24200000D01*
X129900000Y-124300000D01*
X-7000000Y-124300000D01*
X-7000000Y24200000D01*
D11*
%TO.C,D14*%
X118800000Y-550000D02*
X122200000Y-550000D01*
X122200000Y-550000D02*
X122200000Y-3550000D01*
X118800000Y-3550000D02*
X118800000Y-550000D01*
X122200000Y-3550000D02*
X118800000Y-3550000D01*
%TO.C,D36*%
X64800000Y-18550000D02*
X68200000Y-18550000D01*
X68200000Y-18550000D02*
X68200000Y-21550000D01*
X64800000Y-21550000D02*
X64800000Y-18550000D01*
X68200000Y-21550000D02*
X64800000Y-21550000D01*
%TO.C,D100*%
X10800000Y-63550000D02*
X14200000Y-63550000D01*
X14200000Y-63550000D02*
X14200000Y-66550000D01*
X10800000Y-66550000D02*
X10800000Y-63550000D01*
X14200000Y-66550000D02*
X10800000Y-66550000D01*
%TO.C,D150*%
X82800000Y-90550000D02*
X86200000Y-90550000D01*
X86200000Y-90550000D02*
X86200000Y-93550000D01*
X82800000Y-93550000D02*
X82800000Y-90550000D01*
X86200000Y-93550000D02*
X82800000Y-93550000D01*
%TO.C,D191*%
X73800000Y-117550000D02*
X77200000Y-117550000D01*
X77200000Y-117550000D02*
X77200000Y-120550000D01*
X73800000Y-120550000D02*
X73800000Y-117550000D01*
X77200000Y-120550000D02*
X73800000Y-120550000D01*
%TO.C,D152*%
X100800000Y-90550000D02*
X104200000Y-90550000D01*
X104200000Y-90550000D02*
X104200000Y-93550000D01*
X100800000Y-93550000D02*
X100800000Y-90550000D01*
X104200000Y-93550000D02*
X100800000Y-93550000D01*
%TO.C,D168*%
X118800000Y-99550000D02*
X122200000Y-99550000D01*
X122200000Y-99550000D02*
X122200000Y-102550000D01*
X118800000Y-102550000D02*
X118800000Y-99550000D01*
X122200000Y-102550000D02*
X118800000Y-102550000D01*
%TO.C,D86*%
X10800000Y-54550000D02*
X14200000Y-54550000D01*
X14200000Y-54550000D02*
X14200000Y-57550000D01*
X10800000Y-57550000D02*
X10800000Y-54550000D01*
X14200000Y-57550000D02*
X10800000Y-57550000D01*
%TO.C,D26*%
X100800000Y-9550000D02*
X104200000Y-9550000D01*
X104200000Y-9550000D02*
X104200000Y-12550000D01*
X100800000Y-12550000D02*
X100800000Y-9550000D01*
X104200000Y-12550000D02*
X100800000Y-12550000D01*
%TO.C,D69*%
X109800000Y-36550000D02*
X113200000Y-36550000D01*
X113200000Y-36550000D02*
X113200000Y-39550000D01*
X109800000Y-39550000D02*
X109800000Y-36550000D01*
X113200000Y-39550000D02*
X109800000Y-39550000D01*
%TO.C,D108*%
X82800000Y-63550000D02*
X86200000Y-63550000D01*
X86200000Y-63550000D02*
X86200000Y-66550000D01*
X82800000Y-66550000D02*
X82800000Y-63550000D01*
X86200000Y-66550000D02*
X82800000Y-66550000D01*
%TO.C,D68*%
X100800000Y-36550000D02*
X104200000Y-36550000D01*
X104200000Y-36550000D02*
X104200000Y-39550000D01*
X100800000Y-39550000D02*
X100800000Y-36550000D01*
X104200000Y-39550000D02*
X100800000Y-39550000D01*
%TO.C,D10*%
X82800000Y-550000D02*
X86200000Y-550000D01*
X86200000Y-550000D02*
X86200000Y-3550000D01*
X82800000Y-3550000D02*
X82800000Y-550000D01*
X86200000Y-3550000D02*
X82800000Y-3550000D01*
%TO.C,D34*%
X46800000Y-18550000D02*
X50200000Y-18550000D01*
X50200000Y-18550000D02*
X50200000Y-21550000D01*
X46800000Y-21550000D02*
X46800000Y-18550000D01*
X50200000Y-21550000D02*
X46800000Y-21550000D01*
%TO.C,D184*%
X10800000Y-117550000D02*
X14200000Y-117550000D01*
X14200000Y-117550000D02*
X14200000Y-120550000D01*
X10800000Y-120550000D02*
X10800000Y-117550000D01*
X14200000Y-120550000D02*
X10800000Y-120550000D01*
%TO.C,D88*%
X28800000Y-54550000D02*
X32200000Y-54550000D01*
X32200000Y-54550000D02*
X32200000Y-57550000D01*
X28800000Y-57550000D02*
X28800000Y-54550000D01*
X32200000Y-57550000D02*
X28800000Y-57550000D01*
%TO.C,D56*%
X118800000Y-27550000D02*
X122200000Y-27550000D01*
X122200000Y-27550000D02*
X122200000Y-30550000D01*
X118800000Y-30550000D02*
X118800000Y-27550000D01*
X122200000Y-30550000D02*
X118800000Y-30550000D01*
%TO.C,D97*%
X109800000Y-54550000D02*
X113200000Y-54550000D01*
X113200000Y-54550000D02*
X113200000Y-57550000D01*
X109800000Y-57550000D02*
X109800000Y-54550000D01*
X113200000Y-57550000D02*
X109800000Y-57550000D01*
%TO.C,D11*%
X91800000Y-550000D02*
X95200000Y-550000D01*
X95200000Y-550000D02*
X95200000Y-3550000D01*
X91800000Y-3550000D02*
X91800000Y-550000D01*
X95200000Y-3550000D02*
X91800000Y-3550000D01*
%TO.C,D170*%
X10800000Y-108550000D02*
X14200000Y-108550000D01*
X14200000Y-108550000D02*
X14200000Y-111550000D01*
X10800000Y-111550000D02*
X10800000Y-108550000D01*
X14200000Y-111550000D02*
X10800000Y-111550000D01*
%TO.C,D12*%
X100800000Y-550000D02*
X104200000Y-550000D01*
X104200000Y-550000D02*
X104200000Y-3550000D01*
X100800000Y-3550000D02*
X100800000Y-550000D01*
X104200000Y-3550000D02*
X100800000Y-3550000D01*
%TO.C,D189*%
X55800000Y-117550000D02*
X59200000Y-117550000D01*
X59200000Y-117550000D02*
X59200000Y-120550000D01*
X55800000Y-120550000D02*
X55800000Y-117550000D01*
X59200000Y-120550000D02*
X55800000Y-120550000D01*
%TO.C,D43*%
X1800000Y-27550000D02*
X5200000Y-27550000D01*
X5200000Y-27550000D02*
X5200000Y-30550000D01*
X1800000Y-30550000D02*
X1800000Y-27550000D01*
X5200000Y-30550000D02*
X1800000Y-30550000D01*
%TO.C,D50*%
X64800000Y-27550000D02*
X68200000Y-27550000D01*
X68200000Y-27550000D02*
X68200000Y-30550000D01*
X64800000Y-30550000D02*
X64800000Y-27550000D01*
X68200000Y-30550000D02*
X64800000Y-30550000D01*
%TO.C,D51*%
X73800000Y-27550000D02*
X77200000Y-27550000D01*
X77200000Y-27550000D02*
X77200000Y-30550000D01*
X73800000Y-30550000D02*
X73800000Y-27550000D01*
X77200000Y-30550000D02*
X73800000Y-30550000D01*
%TO.C,D47*%
X37800000Y-27550000D02*
X41200000Y-27550000D01*
X41200000Y-27550000D02*
X41200000Y-30550000D01*
X37800000Y-30550000D02*
X37800000Y-27550000D01*
X41200000Y-30550000D02*
X37800000Y-30550000D01*
%TO.C,D62*%
X46800000Y-36550000D02*
X50200000Y-36550000D01*
X50200000Y-36550000D02*
X50200000Y-39550000D01*
X46800000Y-39550000D02*
X46800000Y-36550000D01*
X50200000Y-39550000D02*
X46800000Y-39550000D01*
%TO.C,D195*%
X109800000Y-117550000D02*
X113200000Y-117550000D01*
X113200000Y-117550000D02*
X113200000Y-120550000D01*
X109800000Y-120550000D02*
X109800000Y-117550000D01*
X113200000Y-120550000D02*
X109800000Y-120550000D01*
%TO.C,D101*%
X19800000Y-63550000D02*
X23200000Y-63550000D01*
X23200000Y-63550000D02*
X23200000Y-66550000D01*
X19800000Y-66550000D02*
X19800000Y-63550000D01*
X23200000Y-66550000D02*
X19800000Y-66550000D01*
%TO.C,D94*%
X82800000Y-54550000D02*
X86200000Y-54550000D01*
X86200000Y-54550000D02*
X86200000Y-57550000D01*
X82800000Y-57550000D02*
X82800000Y-54550000D01*
X86200000Y-57550000D02*
X82800000Y-57550000D01*
%TO.C,D73*%
X19800000Y-45550000D02*
X23200000Y-45550000D01*
X23200000Y-45550000D02*
X23200000Y-48550000D01*
X19800000Y-48550000D02*
X19800000Y-45550000D01*
X23200000Y-48550000D02*
X19800000Y-48550000D01*
%TO.C,D116*%
X28800000Y-72550000D02*
X32200000Y-72550000D01*
X32200000Y-72550000D02*
X32200000Y-75550000D01*
X28800000Y-75550000D02*
X28800000Y-72550000D01*
X32200000Y-75550000D02*
X28800000Y-75550000D01*
%TO.C,D121*%
X73800000Y-72550000D02*
X77200000Y-72550000D01*
X77200000Y-72550000D02*
X77200000Y-75550000D01*
X73800000Y-75550000D02*
X73800000Y-72550000D01*
X77200000Y-75550000D02*
X73800000Y-75550000D01*
%TO.C,D90*%
X46800000Y-54550000D02*
X50200000Y-54550000D01*
X50200000Y-54550000D02*
X50200000Y-57550000D01*
X46800000Y-57550000D02*
X46800000Y-54550000D01*
X50200000Y-57550000D02*
X46800000Y-57550000D01*
%TO.C,D122*%
X82800000Y-72550000D02*
X86200000Y-72550000D01*
X86200000Y-72550000D02*
X86200000Y-75550000D01*
X82800000Y-75550000D02*
X82800000Y-72550000D01*
X86200000Y-75550000D02*
X82800000Y-75550000D01*
%TO.C,D160*%
X46800000Y-99550000D02*
X50200000Y-99550000D01*
X50200000Y-99550000D02*
X50200000Y-102550000D01*
X46800000Y-102550000D02*
X46800000Y-99550000D01*
X50200000Y-102550000D02*
X46800000Y-102550000D01*
%TO.C,D140*%
X118800000Y-81550000D02*
X122200000Y-81550000D01*
X122200000Y-81550000D02*
X122200000Y-84550000D01*
X118800000Y-84550000D02*
X118800000Y-81550000D01*
X122200000Y-84550000D02*
X118800000Y-84550000D01*
%TO.C,D161*%
X55800000Y-99550000D02*
X59200000Y-99550000D01*
X59200000Y-99550000D02*
X59200000Y-102550000D01*
X55800000Y-102550000D02*
X55800000Y-99550000D01*
X59200000Y-102550000D02*
X55800000Y-102550000D01*
%TO.C,D7*%
X55800000Y-550000D02*
X59200000Y-550000D01*
X59200000Y-550000D02*
X59200000Y-3550000D01*
X55800000Y-3550000D02*
X55800000Y-550000D01*
X59200000Y-3550000D02*
X55800000Y-3550000D01*
%TO.C,D23*%
X73800000Y-9550000D02*
X77200000Y-9550000D01*
X77200000Y-9550000D02*
X77200000Y-12550000D01*
X73800000Y-12550000D02*
X73800000Y-9550000D01*
X77200000Y-12550000D02*
X73800000Y-12550000D01*
%TO.C,D22*%
X64800000Y-9550000D02*
X68200000Y-9550000D01*
X68200000Y-9550000D02*
X68200000Y-12550000D01*
X64800000Y-12550000D02*
X64800000Y-9550000D01*
X68200000Y-12550000D02*
X64800000Y-12550000D01*
%TO.C,D144*%
X28800000Y-90550000D02*
X32200000Y-90550000D01*
X32200000Y-90550000D02*
X32200000Y-93550000D01*
X28800000Y-93550000D02*
X28800000Y-90550000D01*
X32200000Y-93550000D02*
X28800000Y-93550000D01*
%TO.C,D72*%
X10800000Y-45550000D02*
X14200000Y-45550000D01*
X14200000Y-45550000D02*
X14200000Y-48550000D01*
X10800000Y-48550000D02*
X10800000Y-45550000D01*
X14200000Y-48550000D02*
X10800000Y-48550000D01*
%TO.C,D113*%
X1800000Y-72550000D02*
X5200000Y-72550000D01*
X5200000Y-72550000D02*
X5200000Y-75550000D01*
X1800000Y-75550000D02*
X1800000Y-72550000D01*
X5200000Y-75550000D02*
X1800000Y-75550000D01*
%TO.C,D151*%
X91800000Y-90550000D02*
X95200000Y-90550000D01*
X95200000Y-90550000D02*
X95200000Y-93550000D01*
X91800000Y-93550000D02*
X91800000Y-90550000D01*
X95200000Y-93550000D02*
X91800000Y-93550000D01*
%TO.C,D64*%
X64800000Y-36550000D02*
X68200000Y-36550000D01*
X68200000Y-36550000D02*
X68200000Y-39550000D01*
X64800000Y-39550000D02*
X64800000Y-36550000D01*
X68200000Y-39550000D02*
X64800000Y-39550000D01*
%TO.C,D70*%
X118800000Y-36550000D02*
X122200000Y-36550000D01*
X122200000Y-36550000D02*
X122200000Y-39550000D01*
X118800000Y-39550000D02*
X118800000Y-36550000D01*
X122200000Y-39550000D02*
X118800000Y-39550000D01*
%TO.C,D119*%
X55800000Y-72550000D02*
X59200000Y-72550000D01*
X59200000Y-72550000D02*
X59200000Y-75550000D01*
X55800000Y-75550000D02*
X55800000Y-72550000D01*
X59200000Y-75550000D02*
X55800000Y-75550000D01*
%TO.C,D60*%
X28800000Y-36550000D02*
X32200000Y-36550000D01*
X32200000Y-36550000D02*
X32200000Y-39550000D01*
X28800000Y-39550000D02*
X28800000Y-36550000D01*
X32200000Y-39550000D02*
X28800000Y-39550000D01*
%TO.C,D117*%
X37800000Y-72550000D02*
X41200000Y-72550000D01*
X41200000Y-72550000D02*
X41200000Y-75550000D01*
X37800000Y-75550000D02*
X37800000Y-72550000D01*
X41200000Y-75550000D02*
X37800000Y-75550000D01*
%TO.C,D24*%
X82800000Y-9550000D02*
X86200000Y-9550000D01*
X86200000Y-9550000D02*
X86200000Y-12550000D01*
X82800000Y-12550000D02*
X82800000Y-9550000D01*
X86200000Y-12550000D02*
X82800000Y-12550000D01*
%TO.C,D48*%
X46800000Y-27550000D02*
X50200000Y-27550000D01*
X50200000Y-27550000D02*
X50200000Y-30550000D01*
X46800000Y-30550000D02*
X46800000Y-27550000D01*
X50200000Y-30550000D02*
X46800000Y-30550000D01*
%TO.C,D79*%
X73800000Y-45550000D02*
X77200000Y-45550000D01*
X77200000Y-45550000D02*
X77200000Y-48550000D01*
X73800000Y-48550000D02*
X73800000Y-45550000D01*
X77200000Y-48550000D02*
X73800000Y-48550000D01*
%TO.C,D18*%
X28800000Y-9550000D02*
X32200000Y-9550000D01*
X32200000Y-9550000D02*
X32200000Y-12550000D01*
X28800000Y-12550000D02*
X28800000Y-9550000D01*
X32200000Y-12550000D02*
X28800000Y-12550000D01*
%TO.C,D118*%
X46800000Y-72550000D02*
X50200000Y-72550000D01*
X50200000Y-72550000D02*
X50200000Y-75550000D01*
X46800000Y-75550000D02*
X46800000Y-72550000D01*
X50200000Y-75550000D02*
X46800000Y-75550000D01*
%TO.C,D114*%
X10800000Y-72550000D02*
X14200000Y-72550000D01*
X14200000Y-72550000D02*
X14200000Y-75550000D01*
X10800000Y-75550000D02*
X10800000Y-72550000D01*
X14200000Y-75550000D02*
X10800000Y-75550000D01*
%TO.C,D21*%
X55800000Y-9550000D02*
X59200000Y-9550000D01*
X59200000Y-9550000D02*
X59200000Y-12550000D01*
X55800000Y-12550000D02*
X55800000Y-9550000D01*
X59200000Y-12550000D02*
X55800000Y-12550000D01*
%TO.C,D143*%
X19800000Y-90550000D02*
X23200000Y-90550000D01*
X23200000Y-90550000D02*
X23200000Y-93550000D01*
X19800000Y-93550000D02*
X19800000Y-90550000D01*
X23200000Y-93550000D02*
X19800000Y-93550000D01*
%TO.C,D157*%
X19800000Y-99550000D02*
X23200000Y-99550000D01*
X23200000Y-99550000D02*
X23200000Y-102550000D01*
X19800000Y-102550000D02*
X19800000Y-99550000D01*
X23200000Y-102550000D02*
X19800000Y-102550000D01*
%TO.C,D164*%
X82800000Y-99550000D02*
X86200000Y-99550000D01*
X86200000Y-99550000D02*
X86200000Y-102550000D01*
X82800000Y-102550000D02*
X82800000Y-99550000D01*
X86200000Y-102550000D02*
X82800000Y-102550000D01*
%TO.C,D66*%
X82800000Y-36550000D02*
X86200000Y-36550000D01*
X86200000Y-36550000D02*
X86200000Y-39550000D01*
X82800000Y-39550000D02*
X82800000Y-36550000D01*
X86200000Y-39550000D02*
X82800000Y-39550000D01*
%TO.C,D81*%
X91800000Y-45550000D02*
X95200000Y-45550000D01*
X95200000Y-45550000D02*
X95200000Y-48550000D01*
X91800000Y-48550000D02*
X91800000Y-45550000D01*
X95200000Y-48550000D02*
X91800000Y-48550000D01*
%TO.C,D83*%
X109800000Y-45550000D02*
X113200000Y-45550000D01*
X113200000Y-45550000D02*
X113200000Y-48550000D01*
X109800000Y-48550000D02*
X109800000Y-45550000D01*
X113200000Y-48550000D02*
X109800000Y-48550000D01*
%TO.C,D5*%
X37800000Y-550000D02*
X41200000Y-550000D01*
X41200000Y-550000D02*
X41200000Y-3550000D01*
X37800000Y-3550000D02*
X37800000Y-550000D01*
X41200000Y-3550000D02*
X37800000Y-3550000D01*
%TO.C,D98*%
X118800000Y-54550000D02*
X122200000Y-54550000D01*
X122200000Y-54550000D02*
X122200000Y-57550000D01*
X118800000Y-57550000D02*
X118800000Y-54550000D01*
X122200000Y-57550000D02*
X118800000Y-57550000D01*
%TO.C,D3*%
X19800000Y-550000D02*
X23200000Y-550000D01*
X23200000Y-550000D02*
X23200000Y-3550000D01*
X19800000Y-3550000D02*
X19800000Y-550000D01*
X23200000Y-3550000D02*
X19800000Y-3550000D01*
%TO.C,D110*%
X100800000Y-63550000D02*
X104200000Y-63550000D01*
X104200000Y-63550000D02*
X104200000Y-66550000D01*
X100800000Y-66550000D02*
X100800000Y-63550000D01*
X104200000Y-66550000D02*
X100800000Y-66550000D01*
%TO.C,D180*%
X100800000Y-108550000D02*
X104200000Y-108550000D01*
X104200000Y-108550000D02*
X104200000Y-111550000D01*
X100800000Y-111550000D02*
X100800000Y-108550000D01*
X104200000Y-111550000D02*
X100800000Y-111550000D01*
%TO.C,D132*%
X46800000Y-81550000D02*
X50200000Y-81550000D01*
X50200000Y-81550000D02*
X50200000Y-84550000D01*
X46800000Y-84550000D02*
X46800000Y-81550000D01*
X50200000Y-84550000D02*
X46800000Y-84550000D01*
%TO.C,D112*%
X118800000Y-63550000D02*
X122200000Y-63550000D01*
X122200000Y-63550000D02*
X122200000Y-66550000D01*
X118800000Y-66550000D02*
X118800000Y-63550000D01*
X122200000Y-66550000D02*
X118800000Y-66550000D01*
%TO.C,D136*%
X82800000Y-81550000D02*
X86200000Y-81550000D01*
X86200000Y-81550000D02*
X86200000Y-84550000D01*
X82800000Y-84550000D02*
X82800000Y-81550000D01*
X86200000Y-84550000D02*
X82800000Y-84550000D01*
%TO.C,D129*%
X19800000Y-81550000D02*
X23200000Y-81550000D01*
X23200000Y-81550000D02*
X23200000Y-84550000D01*
X19800000Y-84550000D02*
X19800000Y-81550000D01*
X23200000Y-84550000D02*
X19800000Y-84550000D01*
%TO.C,D123*%
X91800000Y-72550000D02*
X95200000Y-72550000D01*
X95200000Y-72550000D02*
X95200000Y-75550000D01*
X91800000Y-75550000D02*
X91800000Y-72550000D01*
X95200000Y-75550000D02*
X91800000Y-75550000D01*
%TO.C,D49*%
X55800000Y-27550000D02*
X59200000Y-27550000D01*
X59200000Y-27550000D02*
X59200000Y-30550000D01*
X55800000Y-30550000D02*
X55800000Y-27550000D01*
X59200000Y-30550000D02*
X55800000Y-30550000D01*
%TO.C,D58*%
X10800000Y-36550000D02*
X14200000Y-36550000D01*
X14200000Y-36550000D02*
X14200000Y-39550000D01*
X10800000Y-39550000D02*
X10800000Y-36550000D01*
X14200000Y-39550000D02*
X10800000Y-39550000D01*
%TO.C,D91*%
X55800000Y-54550000D02*
X59200000Y-54550000D01*
X59200000Y-54550000D02*
X59200000Y-57550000D01*
X55800000Y-57550000D02*
X55800000Y-54550000D01*
X59200000Y-57550000D02*
X55800000Y-57550000D01*
%TO.C,D39*%
X91800000Y-18550000D02*
X95200000Y-18550000D01*
X95200000Y-18550000D02*
X95200000Y-21550000D01*
X91800000Y-21550000D02*
X91800000Y-18550000D01*
X95200000Y-21550000D02*
X91800000Y-21550000D01*
%TO.C,D28*%
X118800000Y-9550000D02*
X122200000Y-9550000D01*
X122200000Y-9550000D02*
X122200000Y-12550000D01*
X118800000Y-12550000D02*
X118800000Y-9550000D01*
X122200000Y-12550000D02*
X118800000Y-12550000D01*
%TO.C,D171*%
X19800000Y-108550000D02*
X23200000Y-108550000D01*
X23200000Y-108550000D02*
X23200000Y-111550000D01*
X19800000Y-111550000D02*
X19800000Y-108550000D01*
X23200000Y-111550000D02*
X19800000Y-111550000D01*
%TO.C,D96*%
X100800000Y-54550000D02*
X104200000Y-54550000D01*
X104200000Y-54550000D02*
X104200000Y-57550000D01*
X100800000Y-57550000D02*
X100800000Y-54550000D01*
X104200000Y-57550000D02*
X100800000Y-57550000D01*
%TO.C,D59*%
X19800000Y-36550000D02*
X23200000Y-36550000D01*
X23200000Y-36550000D02*
X23200000Y-39550000D01*
X19800000Y-39550000D02*
X19800000Y-36550000D01*
X23200000Y-39550000D02*
X19800000Y-39550000D01*
%TO.C,D193*%
X91800000Y-117550000D02*
X95200000Y-117550000D01*
X95200000Y-117550000D02*
X95200000Y-120550000D01*
X91800000Y-120550000D02*
X91800000Y-117550000D01*
X95200000Y-120550000D02*
X91800000Y-120550000D01*
%TO.C,D27*%
X109800000Y-9550000D02*
X113200000Y-9550000D01*
X113200000Y-9550000D02*
X113200000Y-12550000D01*
X109800000Y-12550000D02*
X109800000Y-9550000D01*
X113200000Y-12550000D02*
X109800000Y-12550000D01*
%TO.C,D134*%
X64800000Y-81550000D02*
X68200000Y-81550000D01*
X68200000Y-81550000D02*
X68200000Y-84550000D01*
X64800000Y-84550000D02*
X64800000Y-81550000D01*
X68200000Y-84550000D02*
X64800000Y-84550000D01*
%TO.C,D167*%
X109800000Y-99550000D02*
X113200000Y-99550000D01*
X113200000Y-99550000D02*
X113200000Y-102550000D01*
X109800000Y-102550000D02*
X109800000Y-99550000D01*
X113200000Y-102550000D02*
X109800000Y-102550000D01*
%TO.C,D120*%
X64800000Y-72550000D02*
X68200000Y-72550000D01*
X68200000Y-72550000D02*
X68200000Y-75550000D01*
X64800000Y-75550000D02*
X64800000Y-72550000D01*
X68200000Y-75550000D02*
X64800000Y-75550000D01*
%TO.C,D44*%
X10800000Y-27550000D02*
X14200000Y-27550000D01*
X14200000Y-27550000D02*
X14200000Y-30550000D01*
X10800000Y-30550000D02*
X10800000Y-27550000D01*
X14200000Y-30550000D02*
X10800000Y-30550000D01*
%TO.C,D145*%
X37800000Y-90550000D02*
X41200000Y-90550000D01*
X41200000Y-90550000D02*
X41200000Y-93550000D01*
X37800000Y-93550000D02*
X37800000Y-90550000D01*
X41200000Y-93550000D02*
X37800000Y-93550000D01*
%TO.C,D192*%
X82800000Y-117550000D02*
X86200000Y-117550000D01*
X86200000Y-117550000D02*
X86200000Y-120550000D01*
X82800000Y-120550000D02*
X82800000Y-117550000D01*
X86200000Y-120550000D02*
X82800000Y-120550000D01*
%TO.C,D25*%
X91800000Y-9550000D02*
X95200000Y-9550000D01*
X95200000Y-9550000D02*
X95200000Y-12550000D01*
X91800000Y-12550000D02*
X91800000Y-9550000D01*
X95200000Y-12550000D02*
X91800000Y-12550000D01*
%TO.C,D190*%
X64800000Y-117550000D02*
X68200000Y-117550000D01*
X68200000Y-117550000D02*
X68200000Y-120550000D01*
X64800000Y-120550000D02*
X64800000Y-117550000D01*
X68200000Y-120550000D02*
X64800000Y-120550000D01*
%TO.C,D149*%
X73800000Y-90550000D02*
X77200000Y-90550000D01*
X77200000Y-90550000D02*
X77200000Y-93550000D01*
X73800000Y-93550000D02*
X73800000Y-90550000D01*
X77200000Y-93550000D02*
X73800000Y-93550000D01*
%TO.C,D75*%
X37800000Y-45550000D02*
X41200000Y-45550000D01*
X41200000Y-45550000D02*
X41200000Y-48550000D01*
X37800000Y-48550000D02*
X37800000Y-45550000D01*
X41200000Y-48550000D02*
X37800000Y-48550000D01*
%TO.C,D99*%
X1800000Y-63550000D02*
X5200000Y-63550000D01*
X5200000Y-63550000D02*
X5200000Y-66550000D01*
X1800000Y-66550000D02*
X1800000Y-63550000D01*
X5200000Y-66550000D02*
X1800000Y-66550000D01*
%TO.C,D19*%
X37800000Y-9550000D02*
X41200000Y-9550000D01*
X41200000Y-9550000D02*
X41200000Y-12550000D01*
X37800000Y-12550000D02*
X37800000Y-9550000D01*
X41200000Y-12550000D02*
X37800000Y-12550000D01*
%TO.C,D147*%
X55800000Y-90550000D02*
X59200000Y-90550000D01*
X59200000Y-90550000D02*
X59200000Y-93550000D01*
X55800000Y-93550000D02*
X55800000Y-90550000D01*
X59200000Y-93550000D02*
X55800000Y-93550000D01*
%TO.C,D63*%
X55800000Y-36550000D02*
X59200000Y-36550000D01*
X59200000Y-36550000D02*
X59200000Y-39550000D01*
X55800000Y-39550000D02*
X55800000Y-36550000D01*
X59200000Y-39550000D02*
X55800000Y-39550000D01*
%TO.C,D137*%
X91800000Y-81550000D02*
X95200000Y-81550000D01*
X95200000Y-81550000D02*
X95200000Y-84550000D01*
X91800000Y-84550000D02*
X91800000Y-81550000D01*
X95200000Y-84550000D02*
X91800000Y-84550000D01*
%TO.C,D126*%
X118800000Y-72550000D02*
X122200000Y-72550000D01*
X122200000Y-72550000D02*
X122200000Y-75550000D01*
X118800000Y-75550000D02*
X118800000Y-72550000D01*
X122200000Y-75550000D02*
X118800000Y-75550000D01*
%TO.C,D128*%
X10800000Y-81550000D02*
X14200000Y-81550000D01*
X14200000Y-81550000D02*
X14200000Y-84550000D01*
X10800000Y-84550000D02*
X10800000Y-81550000D01*
X14200000Y-84550000D02*
X10800000Y-84550000D01*
%TO.C,D176*%
X64800000Y-108550000D02*
X68200000Y-108550000D01*
X68200000Y-108550000D02*
X68200000Y-111550000D01*
X64800000Y-111550000D02*
X64800000Y-108550000D01*
X68200000Y-111550000D02*
X64800000Y-111550000D01*
%TO.C,D76*%
X46800000Y-45550000D02*
X50200000Y-45550000D01*
X50200000Y-45550000D02*
X50200000Y-48550000D01*
X46800000Y-48550000D02*
X46800000Y-45550000D01*
X50200000Y-48550000D02*
X46800000Y-48550000D01*
%TO.C,D188*%
X46800000Y-117550000D02*
X50200000Y-117550000D01*
X50200000Y-117550000D02*
X50200000Y-120550000D01*
X46800000Y-120550000D02*
X46800000Y-117550000D01*
X50200000Y-120550000D02*
X46800000Y-120550000D01*
%TO.C,D77*%
X55800000Y-45550000D02*
X59200000Y-45550000D01*
X59200000Y-45550000D02*
X59200000Y-48550000D01*
X55800000Y-48550000D02*
X55800000Y-45550000D01*
X59200000Y-48550000D02*
X55800000Y-48550000D01*
%TO.C,D163*%
X73800000Y-99550000D02*
X77200000Y-99550000D01*
X77200000Y-99550000D02*
X77200000Y-102550000D01*
X73800000Y-102550000D02*
X73800000Y-99550000D01*
X77200000Y-102550000D02*
X73800000Y-102550000D01*
%TO.C,D175*%
X55800000Y-108550000D02*
X59200000Y-108550000D01*
X59200000Y-108550000D02*
X59200000Y-111550000D01*
X55800000Y-111550000D02*
X55800000Y-108550000D01*
X59200000Y-111550000D02*
X55800000Y-111550000D01*
%TO.C,D109*%
X91800000Y-63550000D02*
X95200000Y-63550000D01*
X95200000Y-63550000D02*
X95200000Y-66550000D01*
X91800000Y-66550000D02*
X91800000Y-63550000D01*
X95200000Y-66550000D02*
X91800000Y-66550000D01*
%TO.C,D115*%
X19800000Y-72550000D02*
X23200000Y-72550000D01*
X23200000Y-72550000D02*
X23200000Y-75550000D01*
X19800000Y-75550000D02*
X19800000Y-72550000D01*
X23200000Y-75550000D02*
X19800000Y-75550000D01*
%TO.C,D105*%
X55800000Y-63550000D02*
X59200000Y-63550000D01*
X59200000Y-63550000D02*
X59200000Y-66550000D01*
X55800000Y-66550000D02*
X55800000Y-63550000D01*
X59200000Y-66550000D02*
X55800000Y-66550000D01*
%TO.C,D6*%
X46800000Y-550000D02*
X50200000Y-550000D01*
X50200000Y-550000D02*
X50200000Y-3550000D01*
X46800000Y-3550000D02*
X46800000Y-550000D01*
X50200000Y-3550000D02*
X46800000Y-3550000D01*
%TO.C,D54*%
X100800000Y-27550000D02*
X104200000Y-27550000D01*
X104200000Y-27550000D02*
X104200000Y-30550000D01*
X100800000Y-30550000D02*
X100800000Y-27550000D01*
X104200000Y-30550000D02*
X100800000Y-30550000D01*
%TO.C,D103*%
X37800000Y-63550000D02*
X41200000Y-63550000D01*
X41200000Y-63550000D02*
X41200000Y-66550000D01*
X37800000Y-66550000D02*
X37800000Y-63550000D01*
X41200000Y-66550000D02*
X37800000Y-66550000D01*
%TO.C,D179*%
X91800000Y-108550000D02*
X95200000Y-108550000D01*
X95200000Y-108550000D02*
X95200000Y-111550000D01*
X91800000Y-111550000D02*
X91800000Y-108550000D01*
X95200000Y-111550000D02*
X91800000Y-111550000D01*
%TO.C,D181*%
X109800000Y-108550000D02*
X113200000Y-108550000D01*
X113200000Y-108550000D02*
X113200000Y-111550000D01*
X109800000Y-111550000D02*
X109800000Y-108550000D01*
X113200000Y-111550000D02*
X109800000Y-111550000D01*
%TO.C,D1*%
X1800000Y-550000D02*
X5200000Y-550000D01*
X5200000Y-550000D02*
X5200000Y-3550000D01*
X1800000Y-3550000D02*
X1800000Y-550000D01*
X5200000Y-3550000D02*
X1800000Y-3550000D01*
%TO.C,D45*%
X19800000Y-27550000D02*
X23200000Y-27550000D01*
X23200000Y-27550000D02*
X23200000Y-30550000D01*
X19800000Y-30550000D02*
X19800000Y-27550000D01*
X23200000Y-30550000D02*
X19800000Y-30550000D01*
%TO.C,D177*%
X73800000Y-108550000D02*
X77200000Y-108550000D01*
X77200000Y-108550000D02*
X77200000Y-111550000D01*
X73800000Y-111550000D02*
X73800000Y-108550000D01*
X77200000Y-111550000D02*
X73800000Y-111550000D01*
%TO.C,D15*%
X1800000Y-9550000D02*
X5200000Y-9550000D01*
X5200000Y-9550000D02*
X5200000Y-12550000D01*
X1800000Y-12550000D02*
X1800000Y-9550000D01*
X5200000Y-12550000D02*
X1800000Y-12550000D01*
%TO.C,D102*%
X28800000Y-63550000D02*
X32200000Y-63550000D01*
X32200000Y-63550000D02*
X32200000Y-66550000D01*
X28800000Y-66550000D02*
X28800000Y-63550000D01*
X32200000Y-66550000D02*
X28800000Y-66550000D01*
%TO.C,D178*%
X82800000Y-108550000D02*
X86200000Y-108550000D01*
X86200000Y-108550000D02*
X86200000Y-111550000D01*
X82800000Y-111550000D02*
X82800000Y-108550000D01*
X86200000Y-111550000D02*
X82800000Y-111550000D01*
%TO.C,D194*%
X100800000Y-117550000D02*
X104200000Y-117550000D01*
X104200000Y-117550000D02*
X104200000Y-120550000D01*
X100800000Y-120550000D02*
X100800000Y-117550000D01*
X104200000Y-120550000D02*
X100800000Y-120550000D01*
%TO.C,D95*%
X91800000Y-54550000D02*
X95200000Y-54550000D01*
X95200000Y-54550000D02*
X95200000Y-57550000D01*
X91800000Y-57550000D02*
X91800000Y-54550000D01*
X95200000Y-57550000D02*
X91800000Y-57550000D01*
%TO.C,D135*%
X73800000Y-81550000D02*
X77200000Y-81550000D01*
X77200000Y-81550000D02*
X77200000Y-84550000D01*
X73800000Y-84550000D02*
X73800000Y-81550000D01*
X77200000Y-84550000D02*
X73800000Y-84550000D01*
%TO.C,D186*%
X28800000Y-117550000D02*
X32200000Y-117550000D01*
X32200000Y-117550000D02*
X32200000Y-120550000D01*
X28800000Y-120550000D02*
X28800000Y-117550000D01*
X32200000Y-120550000D02*
X28800000Y-120550000D01*
%TO.C,D156*%
X10800000Y-99550000D02*
X14200000Y-99550000D01*
X14200000Y-99550000D02*
X14200000Y-102550000D01*
X10800000Y-102550000D02*
X10800000Y-99550000D01*
X14200000Y-102550000D02*
X10800000Y-102550000D01*
%TO.C,D111*%
X109800000Y-63550000D02*
X113200000Y-63550000D01*
X113200000Y-63550000D02*
X113200000Y-66550000D01*
X109800000Y-66550000D02*
X109800000Y-63550000D01*
X113200000Y-66550000D02*
X109800000Y-66550000D01*
%TO.C,D169*%
X1800000Y-108550000D02*
X5200000Y-108550000D01*
X5200000Y-108550000D02*
X5200000Y-111550000D01*
X1800000Y-111550000D02*
X1800000Y-108550000D01*
X5200000Y-111550000D02*
X1800000Y-111550000D01*
%TO.C,D53*%
X91800000Y-27550000D02*
X95200000Y-27550000D01*
X95200000Y-27550000D02*
X95200000Y-30550000D01*
X91800000Y-30550000D02*
X91800000Y-27550000D01*
X95200000Y-30550000D02*
X91800000Y-30550000D01*
%TO.C,D89*%
X37800000Y-54550000D02*
X41200000Y-54550000D01*
X41200000Y-54550000D02*
X41200000Y-57550000D01*
X37800000Y-57550000D02*
X37800000Y-54550000D01*
X41200000Y-57550000D02*
X37800000Y-57550000D01*
%TO.C,D71*%
X1800000Y-45550000D02*
X5200000Y-45550000D01*
X5200000Y-45550000D02*
X5200000Y-48550000D01*
X1800000Y-48550000D02*
X1800000Y-45550000D01*
X5200000Y-48550000D02*
X1800000Y-48550000D01*
%TO.C,D146*%
X46800000Y-90550000D02*
X50200000Y-90550000D01*
X50200000Y-90550000D02*
X50200000Y-93550000D01*
X46800000Y-93550000D02*
X46800000Y-90550000D01*
X50200000Y-93550000D02*
X46800000Y-93550000D01*
%TO.C,D158*%
X28800000Y-99550000D02*
X32200000Y-99550000D01*
X32200000Y-99550000D02*
X32200000Y-102550000D01*
X28800000Y-102550000D02*
X28800000Y-99550000D01*
X32200000Y-102550000D02*
X28800000Y-102550000D01*
%TO.C,D159*%
X37800000Y-99550000D02*
X41200000Y-99550000D01*
X41200000Y-99550000D02*
X41200000Y-102550000D01*
X37800000Y-102550000D02*
X37800000Y-99550000D01*
X41200000Y-102550000D02*
X37800000Y-102550000D01*
%TO.C,D133*%
X55800000Y-81550000D02*
X59200000Y-81550000D01*
X59200000Y-81550000D02*
X59200000Y-84550000D01*
X55800000Y-84550000D02*
X55800000Y-81550000D01*
X59200000Y-84550000D02*
X55800000Y-84550000D01*
%TO.C,D93*%
X73800000Y-54550000D02*
X77200000Y-54550000D01*
X77200000Y-54550000D02*
X77200000Y-57550000D01*
X73800000Y-57550000D02*
X73800000Y-54550000D01*
X77200000Y-57550000D02*
X73800000Y-57550000D01*
%TO.C,D33*%
X37800000Y-18550000D02*
X41200000Y-18550000D01*
X41200000Y-18550000D02*
X41200000Y-21550000D01*
X37800000Y-21550000D02*
X37800000Y-18550000D01*
X41200000Y-21550000D02*
X37800000Y-21550000D01*
%TO.C,D125*%
X109800000Y-72550000D02*
X113200000Y-72550000D01*
X113200000Y-72550000D02*
X113200000Y-75550000D01*
X109800000Y-75550000D02*
X109800000Y-72550000D01*
X113200000Y-75550000D02*
X109800000Y-75550000D01*
%TO.C,D173*%
X37800000Y-108550000D02*
X41200000Y-108550000D01*
X41200000Y-108550000D02*
X41200000Y-111550000D01*
X37800000Y-111550000D02*
X37800000Y-108550000D01*
X41200000Y-111550000D02*
X37800000Y-111550000D01*
%TO.C,D67*%
X91800000Y-36550000D02*
X95200000Y-36550000D01*
X95200000Y-36550000D02*
X95200000Y-39550000D01*
X91800000Y-39550000D02*
X91800000Y-36550000D01*
X95200000Y-39550000D02*
X91800000Y-39550000D01*
%TO.C,D57*%
X1800000Y-36550000D02*
X5200000Y-36550000D01*
X5200000Y-36550000D02*
X5200000Y-39550000D01*
X1800000Y-39550000D02*
X1800000Y-36550000D01*
X5200000Y-39550000D02*
X1800000Y-39550000D01*
%TO.C,D61*%
X37800000Y-36550000D02*
X41200000Y-36550000D01*
X41200000Y-36550000D02*
X41200000Y-39550000D01*
X37800000Y-39550000D02*
X37800000Y-36550000D01*
X41200000Y-39550000D02*
X37800000Y-39550000D01*
%TO.C,D124*%
X100800000Y-72550000D02*
X104200000Y-72550000D01*
X104200000Y-72550000D02*
X104200000Y-75550000D01*
X100800000Y-75550000D02*
X100800000Y-72550000D01*
X104200000Y-75550000D02*
X100800000Y-75550000D01*
%TO.C,D138*%
X100800000Y-81550000D02*
X104200000Y-81550000D01*
X104200000Y-81550000D02*
X104200000Y-84550000D01*
X100800000Y-84550000D02*
X100800000Y-81550000D01*
X104200000Y-84550000D02*
X100800000Y-84550000D01*
%TO.C,D38*%
X82800000Y-18550000D02*
X86200000Y-18550000D01*
X86200000Y-18550000D02*
X86200000Y-21550000D01*
X82800000Y-21550000D02*
X82800000Y-18550000D01*
X86200000Y-21550000D02*
X82800000Y-21550000D01*
%TO.C,D174*%
X46800000Y-108550000D02*
X50200000Y-108550000D01*
X50200000Y-108550000D02*
X50200000Y-111550000D01*
X46800000Y-111550000D02*
X46800000Y-108550000D01*
X50200000Y-111550000D02*
X46800000Y-111550000D01*
%TO.C,D9*%
X73800000Y-550000D02*
X77200000Y-550000D01*
X77200000Y-550000D02*
X77200000Y-3550000D01*
X73800000Y-3550000D02*
X73800000Y-550000D01*
X77200000Y-3550000D02*
X73800000Y-3550000D01*
%TO.C,D16*%
X10800000Y-9550000D02*
X14200000Y-9550000D01*
X14200000Y-9550000D02*
X14200000Y-12550000D01*
X10800000Y-12550000D02*
X10800000Y-9550000D01*
X14200000Y-12550000D02*
X10800000Y-12550000D01*
%TO.C,D42*%
X118800000Y-18550000D02*
X122200000Y-18550000D01*
X122200000Y-18550000D02*
X122200000Y-21550000D01*
X118800000Y-21550000D02*
X118800000Y-18550000D01*
X122200000Y-21550000D02*
X118800000Y-21550000D01*
%TO.C,D84*%
X118800000Y-45550000D02*
X122200000Y-45550000D01*
X122200000Y-45550000D02*
X122200000Y-48550000D01*
X118800000Y-48550000D02*
X118800000Y-45550000D01*
X122200000Y-48550000D02*
X118800000Y-48550000D01*
%TO.C,D183*%
X1800000Y-117550000D02*
X5200000Y-117550000D01*
X5200000Y-117550000D02*
X5200000Y-120550000D01*
X1800000Y-120550000D02*
X1800000Y-117550000D01*
X5200000Y-120550000D02*
X1800000Y-120550000D01*
%TO.C,D17*%
X19800000Y-9550000D02*
X23200000Y-9550000D01*
X23200000Y-9550000D02*
X23200000Y-12550000D01*
X19800000Y-12550000D02*
X19800000Y-9550000D01*
X23200000Y-12550000D02*
X19800000Y-12550000D01*
%TO.C,D127*%
X1800000Y-81550000D02*
X5200000Y-81550000D01*
X5200000Y-81550000D02*
X5200000Y-84550000D01*
X1800000Y-84550000D02*
X1800000Y-81550000D01*
X5200000Y-84550000D02*
X1800000Y-84550000D01*
%TO.C,D55*%
X109800000Y-27550000D02*
X113200000Y-27550000D01*
X113200000Y-27550000D02*
X113200000Y-30550000D01*
X109800000Y-30550000D02*
X109800000Y-27550000D01*
X113200000Y-30550000D02*
X109800000Y-30550000D01*
%TO.C,D65*%
X73800000Y-36550000D02*
X77200000Y-36550000D01*
X77200000Y-36550000D02*
X77200000Y-39550000D01*
X73800000Y-39550000D02*
X73800000Y-36550000D01*
X77200000Y-39550000D02*
X73800000Y-39550000D01*
%TO.C,D172*%
X28800000Y-108550000D02*
X32200000Y-108550000D01*
X32200000Y-108550000D02*
X32200000Y-111550000D01*
X28800000Y-111550000D02*
X28800000Y-108550000D01*
X32200000Y-111550000D02*
X28800000Y-111550000D01*
%TO.C,D82*%
X100800000Y-45550000D02*
X104200000Y-45550000D01*
X104200000Y-45550000D02*
X104200000Y-48550000D01*
X100800000Y-48550000D02*
X100800000Y-45550000D01*
X104200000Y-48550000D02*
X100800000Y-48550000D01*
%TO.C,D29*%
X1800000Y-18550000D02*
X5200000Y-18550000D01*
X5200000Y-18550000D02*
X5200000Y-21550000D01*
X1800000Y-21550000D02*
X1800000Y-18550000D01*
X5200000Y-21550000D02*
X1800000Y-21550000D01*
%TO.C,D166*%
X100800000Y-99550000D02*
X104200000Y-99550000D01*
X104200000Y-99550000D02*
X104200000Y-102550000D01*
X100800000Y-102550000D02*
X100800000Y-99550000D01*
X104200000Y-102550000D02*
X100800000Y-102550000D01*
%TO.C,D20*%
X46800000Y-9550000D02*
X50200000Y-9550000D01*
X50200000Y-9550000D02*
X50200000Y-12550000D01*
X46800000Y-12550000D02*
X46800000Y-9550000D01*
X50200000Y-12550000D02*
X46800000Y-12550000D01*
%TO.C,D2*%
X10800000Y-550000D02*
X14200000Y-550000D01*
X14200000Y-550000D02*
X14200000Y-3550000D01*
X10800000Y-3550000D02*
X10800000Y-550000D01*
X14200000Y-3550000D02*
X10800000Y-3550000D01*
%TO.C,D92*%
X64800000Y-54550000D02*
X68200000Y-54550000D01*
X68200000Y-54550000D02*
X68200000Y-57550000D01*
X64800000Y-57550000D02*
X64800000Y-54550000D01*
X68200000Y-57550000D02*
X64800000Y-57550000D01*
%TO.C,D154*%
X118800000Y-90550000D02*
X122200000Y-90550000D01*
X122200000Y-90550000D02*
X122200000Y-93550000D01*
X118800000Y-93550000D02*
X118800000Y-90550000D01*
X122200000Y-93550000D02*
X118800000Y-93550000D01*
%TO.C,D131*%
X37800000Y-81550000D02*
X41200000Y-81550000D01*
X41200000Y-81550000D02*
X41200000Y-84550000D01*
X37800000Y-84550000D02*
X37800000Y-81550000D01*
X41200000Y-84550000D02*
X37800000Y-84550000D01*
%TO.C,D182*%
X118800000Y-108550000D02*
X122200000Y-108550000D01*
X122200000Y-108550000D02*
X122200000Y-111550000D01*
X118800000Y-111550000D02*
X118800000Y-108550000D01*
X122200000Y-111550000D02*
X118800000Y-111550000D01*
%TO.C,D8*%
X64800000Y-550000D02*
X68200000Y-550000D01*
X68200000Y-550000D02*
X68200000Y-3550000D01*
X64800000Y-3550000D02*
X64800000Y-550000D01*
X68200000Y-3550000D02*
X64800000Y-3550000D01*
%TO.C,D142*%
X10800000Y-90550000D02*
X14200000Y-90550000D01*
X14200000Y-90550000D02*
X14200000Y-93550000D01*
X10800000Y-93550000D02*
X10800000Y-90550000D01*
X14200000Y-93550000D02*
X10800000Y-93550000D01*
%TO.C,D130*%
X28800000Y-81550000D02*
X32200000Y-81550000D01*
X32200000Y-81550000D02*
X32200000Y-84550000D01*
X28800000Y-84550000D02*
X28800000Y-81550000D01*
X32200000Y-84550000D02*
X28800000Y-84550000D01*
%TO.C,D41*%
X109800000Y-18550000D02*
X113200000Y-18550000D01*
X113200000Y-18550000D02*
X113200000Y-21550000D01*
X109800000Y-21550000D02*
X109800000Y-18550000D01*
X113200000Y-21550000D02*
X109800000Y-21550000D01*
%TO.C,D165*%
X91800000Y-99550000D02*
X95200000Y-99550000D01*
X95200000Y-99550000D02*
X95200000Y-102550000D01*
X91800000Y-102550000D02*
X91800000Y-99550000D01*
X95200000Y-102550000D02*
X91800000Y-102550000D01*
%TO.C,D4*%
X28800000Y-550000D02*
X32200000Y-550000D01*
X32200000Y-550000D02*
X32200000Y-3550000D01*
X28800000Y-3550000D02*
X28800000Y-550000D01*
X32200000Y-3550000D02*
X28800000Y-3550000D01*
%TO.C,D52*%
X82800000Y-27550000D02*
X86200000Y-27550000D01*
X86200000Y-27550000D02*
X86200000Y-30550000D01*
X82800000Y-30550000D02*
X82800000Y-27550000D01*
X86200000Y-30550000D02*
X82800000Y-30550000D01*
%TO.C,D196*%
X118800000Y-117550000D02*
X122200000Y-117550000D01*
X122200000Y-117550000D02*
X122200000Y-120550000D01*
X118800000Y-120550000D02*
X118800000Y-117550000D01*
X122200000Y-120550000D02*
X118800000Y-120550000D01*
%TO.C,D35*%
X55800000Y-18550000D02*
X59200000Y-18550000D01*
X59200000Y-18550000D02*
X59200000Y-21550000D01*
X55800000Y-21550000D02*
X55800000Y-18550000D01*
X59200000Y-21550000D02*
X55800000Y-21550000D01*
%TO.C,D37*%
X73800000Y-18550000D02*
X77200000Y-18550000D01*
X77200000Y-18550000D02*
X77200000Y-21550000D01*
X73800000Y-21550000D02*
X73800000Y-18550000D01*
X77200000Y-21550000D02*
X73800000Y-21550000D01*
%TO.C,D31*%
X19800000Y-18550000D02*
X23200000Y-18550000D01*
X23200000Y-18550000D02*
X23200000Y-21550000D01*
X19800000Y-21550000D02*
X19800000Y-18550000D01*
X23200000Y-21550000D02*
X19800000Y-21550000D01*
%TO.C,D85*%
X1800000Y-54550000D02*
X5200000Y-54550000D01*
X5200000Y-54550000D02*
X5200000Y-57550000D01*
X1800000Y-57550000D02*
X1800000Y-54550000D01*
X5200000Y-57550000D02*
X1800000Y-57550000D01*
%TO.C,D153*%
X109800000Y-90550000D02*
X113200000Y-90550000D01*
X113200000Y-90550000D02*
X113200000Y-93550000D01*
X109800000Y-93550000D02*
X109800000Y-90550000D01*
X113200000Y-93550000D02*
X109800000Y-93550000D01*
%TO.C,D185*%
X19800000Y-117550000D02*
X23200000Y-117550000D01*
X23200000Y-117550000D02*
X23200000Y-120550000D01*
X19800000Y-120550000D02*
X19800000Y-117550000D01*
X23200000Y-120550000D02*
X19800000Y-120550000D01*
%TO.C,D74*%
X28800000Y-45550000D02*
X32200000Y-45550000D01*
X32200000Y-45550000D02*
X32200000Y-48550000D01*
X28800000Y-48550000D02*
X28800000Y-45550000D01*
X32200000Y-48550000D02*
X28800000Y-48550000D01*
%TO.C,D32*%
X28800000Y-18550000D02*
X32200000Y-18550000D01*
X32200000Y-18550000D02*
X32200000Y-21550000D01*
X28800000Y-21550000D02*
X28800000Y-18550000D01*
X32200000Y-21550000D02*
X28800000Y-21550000D01*
%TO.C,D139*%
X109800000Y-81550000D02*
X113200000Y-81550000D01*
X113200000Y-81550000D02*
X113200000Y-84550000D01*
X109800000Y-84550000D02*
X109800000Y-81550000D01*
X113200000Y-84550000D02*
X109800000Y-84550000D01*
%TO.C,D80*%
X82800000Y-45550000D02*
X86200000Y-45550000D01*
X86200000Y-45550000D02*
X86200000Y-48550000D01*
X82800000Y-48550000D02*
X82800000Y-45550000D01*
X86200000Y-48550000D02*
X82800000Y-48550000D01*
%TO.C,D148*%
X64800000Y-90550000D02*
X68200000Y-90550000D01*
X68200000Y-90550000D02*
X68200000Y-93550000D01*
X64800000Y-93550000D02*
X64800000Y-90550000D01*
X68200000Y-93550000D02*
X64800000Y-93550000D01*
%TO.C,D187*%
X37800000Y-117550000D02*
X41200000Y-117550000D01*
X41200000Y-117550000D02*
X41200000Y-120550000D01*
X37800000Y-120550000D02*
X37800000Y-117550000D01*
X41200000Y-120550000D02*
X37800000Y-120550000D01*
%TO.C,D141*%
X1800000Y-90550000D02*
X5200000Y-90550000D01*
X5200000Y-90550000D02*
X5200000Y-93550000D01*
X1800000Y-93550000D02*
X1800000Y-90550000D01*
X5200000Y-93550000D02*
X1800000Y-93550000D01*
%TO.C,D162*%
X64800000Y-99550000D02*
X68200000Y-99550000D01*
X68200000Y-99550000D02*
X68200000Y-102550000D01*
X64800000Y-102550000D02*
X64800000Y-99550000D01*
X68200000Y-102550000D02*
X64800000Y-102550000D01*
%TO.C,D46*%
X28800000Y-27550000D02*
X32200000Y-27550000D01*
X32200000Y-27550000D02*
X32200000Y-30550000D01*
X28800000Y-30550000D02*
X28800000Y-27550000D01*
X32200000Y-30550000D02*
X28800000Y-30550000D01*
%TO.C,D13*%
X109800000Y-550000D02*
X113200000Y-550000D01*
X113200000Y-550000D02*
X113200000Y-3550000D01*
X109800000Y-3550000D02*
X109800000Y-550000D01*
X113200000Y-3550000D02*
X109800000Y-3550000D01*
%TO.C,D155*%
X1800000Y-99550000D02*
X5200000Y-99550000D01*
X5200000Y-99550000D02*
X5200000Y-102550000D01*
X1800000Y-102550000D02*
X1800000Y-99550000D01*
X5200000Y-102550000D02*
X1800000Y-102550000D01*
%TO.C,D106*%
X64800000Y-63550000D02*
X68200000Y-63550000D01*
X68200000Y-63550000D02*
X68200000Y-66550000D01*
X64800000Y-66550000D02*
X64800000Y-63550000D01*
X68200000Y-66550000D02*
X64800000Y-66550000D01*
%TO.C,D78*%
X64800000Y-45550000D02*
X68200000Y-45550000D01*
X68200000Y-45550000D02*
X68200000Y-48550000D01*
X64800000Y-48550000D02*
X64800000Y-45550000D01*
X68200000Y-48550000D02*
X64800000Y-48550000D01*
%TO.C,D107*%
X73800000Y-63550000D02*
X77200000Y-63550000D01*
X77200000Y-63550000D02*
X77200000Y-66550000D01*
X73800000Y-66550000D02*
X73800000Y-63550000D01*
X77200000Y-66550000D02*
X73800000Y-66550000D01*
%TO.C,D104*%
X46800000Y-63550000D02*
X50200000Y-63550000D01*
X50200000Y-63550000D02*
X50200000Y-66550000D01*
X46800000Y-66550000D02*
X46800000Y-63550000D01*
X50200000Y-66550000D02*
X46800000Y-66550000D01*
%TO.C,D40*%
X100800000Y-18550000D02*
X104200000Y-18550000D01*
X104200000Y-18550000D02*
X104200000Y-21550000D01*
X100800000Y-21550000D02*
X100800000Y-18550000D01*
X104200000Y-21550000D02*
X100800000Y-21550000D01*
%TO.C,D30*%
X10800000Y-18550000D02*
X14200000Y-18550000D01*
X14200000Y-18550000D02*
X14200000Y-21550000D01*
X10800000Y-21550000D02*
X10800000Y-18550000D01*
X14200000Y-21550000D02*
X10800000Y-21550000D01*
%TO.C,D87*%
X19800000Y-54550000D02*
X23200000Y-54550000D01*
X23200000Y-54550000D02*
X23200000Y-57550000D01*
X19800000Y-57550000D02*
X19800000Y-54550000D01*
X23200000Y-57550000D02*
X19800000Y-57550000D01*
%TD*%
M02*
