M48
; DRILL file {KiCad 8.0.8} date 2025-04-11T18:25:23-0400
; FORMAT={-:-/ absolute / inch / decimal}
; #@! TF.CreationDate,2025-04-11T18:25:23-04:00
; #@! TF.GenerationSoftware,Kicad,Pcbnew,8.0.8
; #@! TF.FileFunction,Plated,1,2,PTH
FMAT,2
INCH
; #@! TA.AperFunction,Plated,PTH,ViaDrill
T1C0.0118
; #@! TA.AperFunction,Plated,PTH,ComponentDrill
T2C0.0236
; #@! TA.AperFunction,Plated,PTH,ComponentDrill
T3C0.0276
; #@! TA.AperFunction,Plated,PTH,ComponentDrill
T4C0.0402
; #@! TA.AperFunction,Plated,PTH,ComponentDrill
T5C0.0500
%
G90
G05
T1
X-0.0276Y-0.4646
X-0.0276Y-0.8189
X-0.0276Y-1.1732
X-0.0276Y-1.5276
X-0.0276Y-1.8819
X-0.0276Y-2.2362
X-0.0276Y-2.5906
X-0.0276Y-2.9449
X-0.0276Y-3.2992
X-0.0276Y-3.6535
X-0.0276Y-4.0079
X-0.0276Y-4.3622
X-0.0276Y-4.7165
X-0.0197Y-0.1102
X0.0Y0.2441
X0.0Y0.1457
X0.0433Y-4.8031
X0.1772Y-0.2598
X0.1772Y-0.6142
X0.1772Y-0.9685
X0.1772Y-1.3228
X0.1772Y-1.6772
X0.1772Y-2.0315
X0.1772Y-2.3858
X0.1772Y-2.7402
X0.1772Y-3.0945
X0.1772Y-3.4488
X0.1772Y-3.8031
X0.1772Y-4.1575
X0.1772Y-4.5118
X0.1772Y-4.8661
X0.3268Y-0.1102
X0.3268Y-0.4646
X0.3268Y-0.8189
X0.3268Y-1.1732
X0.3268Y-1.5276
X0.3268Y-1.8819
X0.3268Y-2.2362
X0.3268Y-2.5906
X0.3268Y-2.9449
X0.3268Y-3.2992
X0.3268Y-3.6535
X0.3268Y-4.0079
X0.3268Y-4.3622
X0.3268Y-4.7165
X0.3976Y-4.8031
X0.5315Y-0.2598
X0.5315Y-0.6142
X0.5315Y-0.9685
X0.5315Y-1.3228
X0.5315Y-1.6772
X0.5315Y-2.0315
X0.5315Y-2.3858
X0.5315Y-2.7402
X0.5315Y-3.0945
X0.5315Y-3.4488
X0.5315Y-3.8031
X0.5315Y-4.1575
X0.5315Y-4.5118
X0.5315Y-4.8661
X0.6811Y-0.1102
X0.6811Y-0.4646
X0.6811Y-0.8189
X0.6811Y-1.1732
X0.6811Y-1.5276
X0.6811Y-1.8819
X0.6811Y-2.2362
X0.6811Y-2.5906
X0.6811Y-2.9449
X0.6811Y-3.2992
X0.6811Y-3.6535
X0.6811Y-4.0079
X0.6811Y-4.3622
X0.6811Y-4.7165
X0.752Y-4.8031
X0.8858Y-0.2598
X0.8858Y-0.6142
X0.8858Y-0.9685
X0.8858Y-1.3228
X0.8858Y-1.6772
X0.8858Y-2.0315
X0.8858Y-2.3858
X0.8858Y-2.7402
X0.8858Y-3.0945
X0.8858Y-3.4488
X0.8858Y-3.8031
X0.8858Y-4.1575
X0.8858Y-4.5118
X0.8858Y-4.8661
X1.0354Y-0.1102
X1.0354Y-0.4646
X1.0354Y-0.8189
X1.0354Y-1.1732
X1.0354Y-1.5276
X1.0354Y-1.8819
X1.0354Y-2.2362
X1.0354Y-2.5906
X1.0354Y-2.9449
X1.0354Y-3.2992
X1.0354Y-3.6535
X1.0354Y-4.0079
X1.0354Y-4.3622
X1.0354Y-4.7165
X1.1063Y-4.8031
X1.2402Y-0.2598
X1.2402Y-0.6142
X1.2402Y-0.9685
X1.2402Y-1.3228
X1.2402Y-1.6772
X1.2402Y-2.0315
X1.2402Y-2.3858
X1.2402Y-2.7402
X1.2402Y-3.0945
X1.2402Y-3.4488
X1.2402Y-3.8031
X1.2402Y-4.1575
X1.2402Y-4.5118
X1.2402Y-4.8661
X1.3858Y0.6457
X1.3898Y-0.1102
X1.3898Y-0.4646
X1.3898Y-0.8189
X1.3898Y-1.1732
X1.3898Y-1.5276
X1.3898Y-1.8819
X1.3898Y-2.2362
X1.3898Y-2.5906
X1.3898Y-2.9449
X1.3898Y-3.2992
X1.3898Y-3.6535
X1.3898Y-4.0079
X1.3898Y-4.3622
X1.3898Y-4.7165
X1.4606Y-4.8031
X1.5945Y-0.2598
X1.5945Y-0.6142
X1.5945Y-0.9685
X1.5945Y-1.3228
X1.5945Y-1.6772
X1.5945Y-2.0315
X1.5945Y-2.3858
X1.5945Y-2.7402
X1.5945Y-3.0945
X1.5945Y-3.4488
X1.5945Y-3.8031
X1.5945Y-4.1575
X1.5945Y-4.5118
X1.5945Y-4.8661
X1.7441Y-0.1102
X1.7441Y-0.4646
X1.7441Y-0.8189
X1.7441Y-1.1732
X1.7441Y-1.5276
X1.7441Y-1.8819
X1.7441Y-2.2362
X1.7441Y-2.5906
X1.7441Y-2.9449
X1.7441Y-3.2992
X1.7441Y-3.6535
X1.7441Y-4.0079
X1.7441Y-4.3622
X1.7441Y-4.7165
X1.815Y-4.8031
X1.9488Y-0.2598
X1.9488Y-0.6142
X1.9488Y-0.9685
X1.9488Y-1.3228
X1.9488Y-1.6772
X1.9488Y-2.0315
X1.9488Y-2.3858
X1.9488Y-2.7402
X1.9488Y-3.0945
X1.9488Y-3.4488
X1.9488Y-3.8031
X1.9488Y-4.1575
X1.9488Y-4.5118
X1.9488Y-4.8661
X2.0984Y-0.1102
X2.0984Y-0.4646
X2.0984Y-0.8189
X2.0984Y-1.1732
X2.0984Y-1.5276
X2.0984Y-1.8819
X2.0984Y-2.2362
X2.0984Y-2.5906
X2.0984Y-2.9449
X2.0984Y-3.2992
X2.0984Y-3.6535
X2.0984Y-4.0079
X2.0984Y-4.3622
X2.0984Y-4.7165
X2.1693Y-4.8031
X2.3031Y-0.2598
X2.3031Y-0.6142
X2.3031Y-0.9685
X2.3031Y-1.3228
X2.3031Y-1.6772
X2.3031Y-2.0315
X2.3031Y-2.3858
X2.3031Y-2.7402
X2.3031Y-3.0945
X2.3031Y-3.4488
X2.3031Y-3.8031
X2.3031Y-4.1575
X2.3031Y-4.5118
X2.3031Y-4.8661
X2.4528Y-0.1102
X2.4528Y-0.4646
X2.4528Y-0.8189
X2.4528Y-1.1732
X2.4528Y-1.5276
X2.4528Y-1.8819
X2.4528Y-2.2362
X2.4528Y-2.5906
X2.4528Y-2.9449
X2.4528Y-3.2992
X2.4528Y-3.6535
X2.4528Y-4.0079
X2.4528Y-4.3622
X2.4528Y-4.7165
X2.5236Y-4.8031
X2.6575Y-0.2598
X2.6575Y-0.6142
X2.6575Y-0.9685
X2.6575Y-1.3228
X2.6575Y-1.6772
X2.6575Y-2.0315
X2.6575Y-2.3858
X2.6575Y-2.7402
X2.6575Y-3.0945
X2.6575Y-3.4488
X2.6575Y-3.8031
X2.6575Y-4.1575
X2.6575Y-4.5118
X2.6575Y-4.8661
X2.8071Y-0.1102
X2.8071Y-0.4646
X2.8071Y-0.8189
X2.8071Y-1.1732
X2.8071Y-1.5276
X2.8071Y-1.8819
X2.8071Y-2.2362
X2.8071Y-2.5906
X2.8071Y-2.9449
X2.8071Y-3.2992
X2.8071Y-3.6535
X2.8071Y-4.0079
X2.8071Y-4.3622
X2.8071Y-4.7165
X2.878Y-4.8031
X3.0118Y-0.2598
X3.0118Y-0.6142
X3.0118Y-0.9685
X3.0118Y-1.3228
X3.0118Y-1.6772
X3.0118Y-2.0315
X3.0118Y-2.3858
X3.0118Y-2.7402
X3.0118Y-3.0945
X3.0118Y-3.4488
X3.0118Y-3.8031
X3.0118Y-4.1575
X3.0118Y-4.5118
X3.0118Y-4.8661
X3.1614Y-0.1102
X3.1614Y-0.4646
X3.1614Y-0.8189
X3.1614Y-1.1732
X3.1614Y-1.5276
X3.1614Y-1.8819
X3.1614Y-2.2362
X3.1614Y-2.5906
X3.1614Y-2.9449
X3.1614Y-3.2992
X3.1614Y-3.6535
X3.1614Y-4.0079
X3.1614Y-4.3622
X3.1614Y-4.7165
X3.2323Y-4.8031
X3.3661Y-0.2598
X3.3661Y-0.6142
X3.3661Y-0.9685
X3.3661Y-1.3228
X3.3661Y-1.6772
X3.3661Y-2.0315
X3.3661Y-2.3858
X3.3661Y-2.7402
X3.3661Y-3.0945
X3.3661Y-3.4488
X3.3661Y-3.8031
X3.3661Y-4.1575
X3.3661Y-4.5118
X3.3661Y-4.8661
X3.5157Y-0.1102
X3.5157Y-0.4646
X3.5157Y-0.8189
X3.5157Y-1.1732
X3.5157Y-1.5276
X3.5157Y-1.8819
X3.5157Y-2.2362
X3.5157Y-2.5906
X3.5157Y-2.9449
X3.5157Y-3.2992
X3.5157Y-3.6535
X3.5157Y-4.0079
X3.5157Y-4.3622
X3.5157Y-4.7165
X3.5866Y-4.8031
X3.7205Y-0.2598
X3.7205Y-0.6142
X3.7205Y-0.9685
X3.7205Y-1.3228
X3.7205Y-1.6772
X3.7205Y-2.0315
X3.7205Y-2.3858
X3.7205Y-2.7402
X3.7205Y-3.0945
X3.7205Y-3.4488
X3.7205Y-3.8031
X3.7205Y-4.1575
X3.7205Y-4.5118
X3.7205Y-4.8661
X3.8701Y-0.1102
X3.8701Y-0.4646
X3.8701Y-0.8189
X3.8701Y-1.1732
X3.8701Y-1.5276
X3.8701Y-1.8819
X3.8701Y-2.2362
X3.8701Y-2.5906
X3.8701Y-2.9449
X3.8701Y-3.2992
X3.8701Y-3.6535
X3.8701Y-4.0079
X3.8701Y-4.3622
X3.8701Y-4.7165
X3.9409Y-4.8031
X4.0748Y-0.2598
X4.0748Y-0.6142
X4.0748Y-0.9685
X4.0748Y-1.3228
X4.0748Y-1.6772
X4.0748Y-2.0315
X4.0748Y-2.3858
X4.0748Y-2.7402
X4.0748Y-3.0945
X4.0748Y-3.4488
X4.0748Y-3.8031
X4.0748Y-4.1575
X4.0748Y-4.5118
X4.0748Y-4.8661
X4.2244Y-0.1102
X4.2244Y-0.4646
X4.2244Y-0.8189
X4.2244Y-1.1732
X4.2244Y-1.5276
X4.2244Y-1.8819
X4.2244Y-2.2362
X4.2244Y-2.5906
X4.2244Y-2.9449
X4.2244Y-3.2992
X4.2244Y-3.6535
X4.2244Y-4.0079
X4.2244Y-4.3622
X4.2244Y-4.7165
X4.2953Y-4.8031
X4.4291Y-0.2598
X4.4291Y-0.6142
X4.4291Y-0.9685
X4.4291Y-1.3228
X4.4291Y-1.6772
X4.4291Y-2.0315
X4.4291Y-2.3858
X4.4291Y-2.7402
X4.4291Y-3.0945
X4.4291Y-3.4488
X4.4291Y-3.8031
X4.4291Y-4.1575
X4.4291Y-4.5118
X4.4291Y-4.8661
X4.5787Y-0.1102
X4.5787Y-0.4646
X4.5787Y-0.8189
X4.5787Y-1.1732
X4.5787Y-1.5276
X4.5787Y-1.8819
X4.5787Y-2.2362
X4.5787Y-2.5906
X4.5787Y-2.9449
X4.5787Y-3.2992
X4.5787Y-3.6535
X4.5787Y-4.0079
X4.5787Y-4.3622
X4.5787Y-4.7165
X4.6496Y-4.8031
X4.7835Y-0.2598
X4.7835Y-0.311
X4.7835Y-0.6142
X4.7835Y-0.6654
X4.7835Y-0.9685
X4.7835Y-1.0197
X4.7835Y-1.3228
X4.7835Y-1.374
X4.7835Y-1.6772
X4.7835Y-1.7283
X4.7835Y-2.0315
X4.7835Y-2.0827
X4.7835Y-2.3858
X4.7835Y-2.7402
X4.7835Y-2.7913
X4.7835Y-3.0945
X4.7835Y-3.1457
X4.7835Y-3.4488
X4.7835Y-3.5
X4.7835Y-3.8031
X4.7835Y-3.8543
X4.7835Y-4.1575
X4.7835Y-4.2087
X4.7835Y-4.5118
X4.7835Y-4.563
X4.7835Y-4.8661
T3
X1.6063Y0.6961
T4
X1.0236Y0.0591
X1.1236Y0.0591
X1.2236Y0.0591
X1.3236Y0.0591
X1.4236Y0.0591
X1.5236Y0.0591
X1.6236Y0.0591
X1.7236Y0.0591
X1.8236Y0.0591
X1.9236Y0.0591
X2.0236Y0.0591
X2.1236Y0.0591
X2.2236Y0.0591
X2.3236Y0.0591
X2.4236Y0.0591
X2.5236Y0.0591
T5
X0.0642Y0.8465
X0.0642Y0.7465
X0.0642Y0.6465
X0.0642Y0.5465
X0.0642Y0.4465
X0.0642Y0.3465
X0.0642Y0.2465
X0.0642Y0.1465
X0.6642Y0.8465
X0.6642Y0.7465
X0.6642Y0.6465
X0.6642Y0.5465
X0.6642Y0.4465
X0.6642Y0.3465
X0.6642Y0.2465
X0.6642Y0.1465
T2
G00X1.1567Y0.8622
M15
G01X1.1567Y0.8386
M16
G05
G00X1.1567Y0.7126
M15
G01X1.1567Y0.689
M16
G05
G00X1.4969Y0.8622
M15
G01X1.4969Y0.8386
M16
G05
G00X1.4969Y0.7126
M15
G01X1.4969Y0.689
M16
G05
M30
