<svg width="32" height="32" viewBox="0 0 32 32" fill="none" xmlns="http://www.w3.org/2000/svg">
<path d="M26.5 3.49999H5.5C4.39543 3.49999 3.5 4.39542 3.5 5.49999V26.5C3.5 27.6046 4.39543 28.5 5.5 28.5H26.5C27.6046 28.5 28.5 27.6046 28.5 26.5V5.49999C28.5 4.39542 27.6046 3.49999 26.5 3.49999Z" stroke="#288FFF" stroke-width="1.5"/>
<path d="M16 23C19.866 23 23 19.866 23 16C23 12.134 19.866 8.99999 16 8.99999C12.134 8.99999 9 12.134 9 16C9 19.866 12.134 23 16 23Z" stroke="#288FFF" stroke-width="1.5"/>
<path d="M3.5 7.99999C3.5 7.44771 3.05228 6.99999 2.5 6.99999C1.94772 6.99999 1.5 7.44771 1.5 7.99999V11C1.5 11.5523 1.94772 12 2.5 12C3.05228 12 3.5 11.5523 3.5 11V7.99999Z" stroke="#288FFF"/>
<path d="M30.5 7.99999C30.5 7.44771 30.0523 6.99999 29.5 6.99999C28.9477 6.99999 28.5 7.44771 28.5 7.99999V11C28.5 11.5523 28.9477 12 29.5 12C30.0523 12 30.5 11.5523 30.5 11V7.99999Z" stroke="#288FFF"/>
<path d="M3.5 21C3.5 20.4477 3.05228 20 2.5 20C1.94772 20 1.5 20.4477 1.5 21V24C1.5 24.5523 1.94772 25 2.5 25C3.05228 25 3.5 24.5523 3.5 24V21Z" stroke="#288FFF"/>
<path d="M30.5 21C30.5 20.4477 30.0523 20 29.5 20C28.9477 20 28.5 20.4477 28.5 21V24C28.5 24.5523 28.9477 25 29.5 25C30.0523 25 30.5 24.5523 30.5 24V21Z" stroke="#288FFF"/>
</svg>
