%TF.GenerationSoftware,KiCad,Pcbnew,9.0.0*%
%TF.CreationDate,2025-04-05T15:43:16+05:30*%
%TF.ProjectId,PixelDoro,50697865-6c44-46f7-926f-2e6b69636164,rev?*%
%TF.SameCoordinates,Original*%
%TF.FileFunction,Copper,L2,Bot*%
%TF.FilePolarity,Positive*%
%FSLAX46Y46*%
G04 Gerber Fmt 4.6, Leading zero omitted, Abs format (unit mm)*
G04 Created by KiCad (PCBNEW 9.0.0) date 2025-04-05 15:43:16*
%MOMM*%
%LPD*%
G01*
G04 APERTURE LIST*
%TA.AperFunction,ComponentPad*%
%ADD10O,3.200000X1.900000*%
%TD*%
%TA.AperFunction,ComponentPad*%
%ADD11C,1.500000*%
%TD*%
%TA.AperFunction,ComponentPad*%
%ADD12R,2.000000X2.000000*%
%TD*%
%TA.AperFunction,ComponentPad*%
%ADD13C,2.000000*%
%TD*%
%TA.AperFunction,ComponentPad*%
%ADD14C,3.200000*%
%TD*%
%TA.AperFunction,ViaPad*%
%ADD15C,0.600000*%
%TD*%
%TA.AperFunction,Conductor*%
%ADD16C,0.200000*%
%TD*%
G04 APERTURE END LIST*
D10*
%TO.P,SW2,1,1*%
%TO.N,GND*%
X118468750Y-85725000D03*
X130968750Y-85725000D03*
%TO.P,SW2,2,2*%
%TO.N,Net-(U1-GPIO1_D7_CSn_RX)*%
X118468750Y-90725000D03*
X130968750Y-90725000D03*
%TD*%
D11*
%TO.P,SW1,*%
%TO.N,*%
X154781250Y-85687500D03*
X154781250Y-90687500D03*
D12*
%TO.P,SW1,A,A*%
%TO.N,Net-(U1-GPIO4_D9_MISO)*%
X140281250Y-85687500D03*
D13*
%TO.P,SW1,B,B*%
%TO.N,Net-(U1-GPIO2_D8_SCK)*%
X140281250Y-90687500D03*
%TO.P,SW1,C,C*%
%TO.N,GND*%
X140281250Y-88187500D03*
D14*
%TO.P,SW1,MP*%
%TO.N,N/C*%
X147781250Y-82587500D03*
X147781250Y-93787500D03*
%TD*%
D15*
%TO.N,Net-(D1-DIN)*%
X136840000Y-35460000D03*
X117740000Y-59440000D03*
%TO.N,Net-(D2-DOUT)*%
X134700000Y-60530000D03*
X123210000Y-57800000D03*
%TO.N,Net-(D3-DOUT)*%
X138680000Y-60530000D03*
X143090000Y-60530000D03*
%TO.N,Net-(D6-DOUT)*%
X166620000Y-58720000D03*
X172420000Y-61050000D03*
%TO.N,Net-(D8-DOUT)*%
X189908065Y-57659535D03*
X180420000Y-57310000D03*
%TO.N,Net-(D38-DOUT)*%
X164950000Y-68140000D03*
X119690000Y-106120000D03*
%TO.N,Net-(D23-VSS)*%
X104340000Y-73020000D03*
X123930000Y-71860000D03*
X113610000Y-107410000D03*
X113590000Y-115540000D03*
%TO.N,Net-(D34-DOUT)*%
X127240000Y-69640000D03*
X104050000Y-58400000D03*
%TO.N,Net-(D36-DOUT)*%
X135730000Y-66220000D03*
X156420000Y-71210000D03*
X145710000Y-70440000D03*
X152090000Y-71200000D03*
%TO.N,Net-(U1-GPIO2_D8_SCK)*%
X152120000Y-48430000D03*
%TO.N,Net-(U1-GPIO1_D7_CSn_RX)*%
X156050000Y-52150000D03*
%TO.N,Net-(U1-GPIO4_D9_MISO)*%
X155450000Y-52790000D03*
%TO.N,GND*%
X158460000Y-39100000D03*
X160600000Y-77950000D03*
%TD*%
D16*
%TO.N,Net-(D1-DIN)*%
X135210000Y-37070000D02*
X136820000Y-35460000D01*
X135210000Y-53250000D02*
X135210000Y-37070000D01*
X119560000Y-55240000D02*
X120680000Y-54120000D01*
X136820000Y-35460000D02*
X136840000Y-35460000D01*
X120680000Y-54120000D02*
X134340000Y-54120000D01*
X119560000Y-57620000D02*
X119560000Y-55240000D01*
X134340000Y-54120000D02*
X135210000Y-53250000D01*
X117740000Y-59440000D02*
X119560000Y-57620000D01*
%TO.N,Net-(D2-DOUT)*%
X127420000Y-62010000D02*
X133820000Y-62010000D01*
X123210000Y-57800000D02*
X127420000Y-62010000D01*
X134700000Y-61130000D02*
X134700000Y-60530000D01*
X133820000Y-62010000D02*
X134700000Y-61130000D01*
%TO.N,Net-(D3-DOUT)*%
X142870000Y-60750000D02*
X143090000Y-60530000D01*
X138680000Y-60530000D02*
X138900000Y-60750000D01*
X138900000Y-60750000D02*
X142870000Y-60750000D01*
%TO.N,Net-(D6-DOUT)*%
X166620000Y-58720000D02*
X166620000Y-60140000D01*
X167990000Y-61510000D02*
X171960000Y-61510000D01*
X166620000Y-60140000D02*
X167990000Y-61510000D01*
X171960000Y-61510000D02*
X172420000Y-61050000D01*
%TO.N,Net-(D8-DOUT)*%
X189558530Y-57310000D02*
X180420000Y-57310000D01*
X189908065Y-57659535D02*
X189558530Y-57310000D01*
%TO.N,Net-(D38-DOUT)*%
X120300000Y-106730000D02*
X119690000Y-106120000D01*
X120660000Y-106730000D02*
X120300000Y-106730000D01*
X157150000Y-106730000D02*
X120660000Y-106730000D01*
X164950000Y-68140000D02*
X164950000Y-98930000D01*
X159030000Y-104850000D02*
X157150000Y-106730000D01*
X164950000Y-98930000D02*
X159030000Y-104850000D01*
%TO.N,Net-(D23-VSS)*%
X113590000Y-107430000D02*
X113610000Y-107410000D01*
X113590000Y-115540000D02*
X113590000Y-107430000D01*
X122770000Y-73020000D02*
X123930000Y-71860000D01*
X104340000Y-73020000D02*
X122770000Y-73020000D01*
%TO.N,Net-(D34-DOUT)*%
X104050000Y-58400000D02*
X114570000Y-68920000D01*
X126520000Y-68920000D02*
X127240000Y-69640000D01*
X126440000Y-68920000D02*
X126520000Y-68920000D01*
X114570000Y-68920000D02*
X126440000Y-68920000D01*
%TO.N,Net-(D36-DOUT)*%
X156410000Y-71200000D02*
X156420000Y-71210000D01*
X152090000Y-71200000D02*
X156410000Y-71200000D01*
X135730000Y-66220000D02*
X141490000Y-66220000D01*
X141490000Y-66220000D02*
X145710000Y-70440000D01*
%TO.N,Net-(U1-GPIO2_D8_SCK)*%
X140281250Y-90687500D02*
X136057500Y-90687500D01*
X134280000Y-88910000D02*
X134280000Y-83150000D01*
X147590000Y-52930000D02*
X152090000Y-48430000D01*
X152090000Y-48430000D02*
X152120000Y-48430000D01*
X147590000Y-69840000D02*
X147590000Y-52930000D01*
X134280000Y-83150000D02*
X147590000Y-69840000D01*
X136057500Y-90687500D02*
X134280000Y-88910000D01*
%TO.N,Net-(U1-GPIO1_D7_CSn_RX)*%
X155540000Y-101010000D02*
X159960000Y-96590000D01*
X159960000Y-64160000D02*
X156050000Y-60250000D01*
X159960000Y-96590000D02*
X159960000Y-64160000D01*
X141253750Y-101010000D02*
X155540000Y-101010000D01*
X130968750Y-90725000D02*
X141253750Y-101010000D01*
X156050000Y-60250000D02*
X156050000Y-52150000D01*
%TO.N,Net-(U1-GPIO4_D9_MISO)*%
X151300000Y-62260000D02*
X153720000Y-62260000D01*
X155390000Y-60590000D02*
X155390000Y-52850000D01*
X149920000Y-70370000D02*
X149920000Y-63640000D01*
X153720000Y-62260000D02*
X155390000Y-60590000D01*
X149920000Y-63640000D02*
X150910000Y-62650000D01*
X155390000Y-52850000D02*
X155450000Y-52790000D01*
X150910000Y-62650000D02*
X151300000Y-62260000D01*
X140281250Y-80008750D02*
X149920000Y-70370000D01*
X140281250Y-85687500D02*
X140281250Y-80008750D01*
%TO.N,GND*%
X161140000Y-77390000D02*
X160810000Y-77720000D01*
X158650000Y-39290000D02*
X158460000Y-39100000D01*
X158650000Y-39410000D02*
X158650000Y-55220000D01*
X159160000Y-55730000D02*
X164300000Y-55730000D01*
X165610000Y-57040000D02*
X165610000Y-61070000D01*
X160810000Y-77720000D02*
X160600000Y-77930000D01*
X158650000Y-39410000D02*
X158650000Y-39290000D01*
X164300000Y-55730000D02*
X165610000Y-57040000D01*
X158650000Y-55220000D02*
X159160000Y-55730000D01*
X161140000Y-65540000D02*
X161140000Y-77390000D01*
X160600000Y-77930000D02*
X160600000Y-77950000D01*
X165610000Y-61070000D02*
X161140000Y-65540000D01*
%TD*%
%TA.AperFunction,NonConductor*%
G36*
X159992447Y-33299816D02*
G01*
X160038323Y-33352515D01*
X160049646Y-33404636D01*
X159992836Y-53439878D01*
X159990000Y-54440000D01*
X194365878Y-54509748D01*
X194432877Y-54529569D01*
X194478525Y-54582466D01*
X194489625Y-54634123D01*
X194301262Y-116991775D01*
X194301225Y-117003868D01*
X194301225Y-117003870D01*
X194280000Y-117110000D01*
X194300770Y-117154509D01*
X194300687Y-117182215D01*
X194299944Y-117428204D01*
X194304967Y-117429748D01*
X194350053Y-117483125D01*
X194360523Y-117528351D01*
X194444951Y-119681262D01*
X194427908Y-119749021D01*
X194376938Y-119796810D01*
X194321163Y-119810121D01*
X98984117Y-119899883D01*
X98917059Y-119880262D01*
X98871254Y-119827501D01*
X98860000Y-119775883D01*
X98860000Y-115461153D01*
X112789500Y-115461153D01*
X112789500Y-115618846D01*
X112820261Y-115773489D01*
X112820264Y-115773501D01*
X112880602Y-115919172D01*
X112880609Y-115919185D01*
X112968210Y-116050288D01*
X112968213Y-116050292D01*
X113079707Y-116161786D01*
X113079711Y-116161789D01*
X113210814Y-116249390D01*
X113210827Y-116249397D01*
X113356498Y-116309735D01*
X113356503Y-116309737D01*
X113511153Y-116340499D01*
X113511156Y-116340500D01*
X113511158Y-116340500D01*
X113668844Y-116340500D01*
X113668845Y-116340499D01*
X113823497Y-116309737D01*
X113969179Y-116249394D01*
X114100289Y-116161789D01*
X114211789Y-116050289D01*
X114299394Y-115919179D01*
X114359737Y-115773497D01*
X114390500Y-115618842D01*
X114390500Y-115461158D01*
X114390500Y-115461155D01*
X114390499Y-115461153D01*
X114359738Y-115306510D01*
X114359737Y-115306503D01*
X114359735Y-115306498D01*
X114299397Y-115160827D01*
X114299390Y-115160814D01*
X114211398Y-115029125D01*
X114190520Y-114962447D01*
X114190500Y-114960234D01*
X114190500Y-108012940D01*
X114210185Y-107945901D01*
X114226818Y-107925259D01*
X114231789Y-107920289D01*
X114319394Y-107789179D01*
X114379737Y-107643497D01*
X114410500Y-107488842D01*
X114410500Y-107331158D01*
X114410500Y-107331155D01*
X114410499Y-107331153D01*
X114379738Y-107176510D01*
X114379737Y-107176503D01*
X114345723Y-107094385D01*
X114319397Y-107030827D01*
X114319390Y-107030814D01*
X114231789Y-106899711D01*
X114231786Y-106899707D01*
X114120292Y-106788213D01*
X114120288Y-106788210D01*
X113989185Y-106700609D01*
X113989172Y-106700602D01*
X113843501Y-106640264D01*
X113843489Y-106640261D01*
X113688845Y-106609500D01*
X113688842Y-106609500D01*
X113531158Y-106609500D01*
X113531155Y-106609500D01*
X113376510Y-106640261D01*
X113376498Y-106640264D01*
X113230827Y-106700602D01*
X113230814Y-106700609D01*
X113099711Y-106788210D01*
X113099707Y-106788213D01*
X112988213Y-106899707D01*
X112988210Y-106899711D01*
X112900609Y-107030814D01*
X112900602Y-107030827D01*
X112840264Y-107176498D01*
X112840261Y-107176510D01*
X112809500Y-107331153D01*
X112809500Y-107488846D01*
X112840261Y-107643489D01*
X112840264Y-107643501D01*
X112900602Y-107789172D01*
X112900609Y-107789184D01*
X112968602Y-107890942D01*
X112989480Y-107957619D01*
X112989500Y-107959833D01*
X112989500Y-114960234D01*
X112969815Y-115027273D01*
X112968602Y-115029125D01*
X112880609Y-115160814D01*
X112880602Y-115160827D01*
X112820264Y-115306498D01*
X112820261Y-115306510D01*
X112789500Y-115461153D01*
X98860000Y-115461153D01*
X98860000Y-106041153D01*
X118889500Y-106041153D01*
X118889500Y-106198846D01*
X118920261Y-106353489D01*
X118920264Y-106353501D01*
X118980602Y-106499172D01*
X118980609Y-106499185D01*
X119068210Y-106630288D01*
X119068213Y-106630292D01*
X119179707Y-106741786D01*
X119179711Y-106741789D01*
X119310814Y-106829390D01*
X119310827Y-106829397D01*
X119456498Y-106889735D01*
X119456503Y-106889737D01*
X119521147Y-106902595D01*
X119611849Y-106920638D01*
X119628605Y-106929402D01*
X119647085Y-106933423D01*
X119672123Y-106952167D01*
X119673760Y-106953023D01*
X119675339Y-106954574D01*
X119815139Y-107094374D01*
X119815149Y-107094385D01*
X119819479Y-107098715D01*
X119819480Y-107098716D01*
X119931284Y-107210520D01*
X120018095Y-107260639D01*
X120018097Y-107260641D01*
X120068213Y-107289576D01*
X120068215Y-107289577D01*
X120220942Y-107330500D01*
X120220943Y-107330500D01*
X120580943Y-107330500D01*
X157063331Y-107330500D01*
X157063347Y-107330501D01*
X157070943Y-107330501D01*
X157229054Y-107330501D01*
X157229057Y-107330501D01*
X157381785Y-107289577D01*
X157431904Y-107260639D01*
X157518716Y-107210520D01*
X157630520Y-107098716D01*
X157630520Y-107098714D01*
X157640728Y-107088507D01*
X157640729Y-107088504D01*
X159510519Y-105218716D01*
X165318713Y-99410521D01*
X165318716Y-99410520D01*
X165430520Y-99298716D01*
X165480639Y-99211904D01*
X165509577Y-99161785D01*
X165550500Y-99009058D01*
X165550500Y-98850943D01*
X165550500Y-68719765D01*
X165570185Y-68652726D01*
X165571398Y-68650874D01*
X165659390Y-68519185D01*
X165659390Y-68519184D01*
X165659394Y-68519179D01*
X165719737Y-68373497D01*
X165750500Y-68218842D01*
X165750500Y-68061158D01*
X165750500Y-68061155D01*
X165750499Y-68061153D01*
X165719738Y-67906510D01*
X165719737Y-67906503D01*
X165719735Y-67906498D01*
X165659397Y-67760827D01*
X165659390Y-67760814D01*
X165571789Y-67629711D01*
X165571786Y-67629707D01*
X165460292Y-67518213D01*
X165460288Y-67518210D01*
X165329185Y-67430609D01*
X165329172Y-67430602D01*
X165183501Y-67370264D01*
X165183489Y-67370261D01*
X165028845Y-67339500D01*
X165028842Y-67339500D01*
X164871158Y-67339500D01*
X164871155Y-67339500D01*
X164716510Y-67370261D01*
X164716498Y-67370264D01*
X164570827Y-67430602D01*
X164570814Y-67430609D01*
X164439711Y-67518210D01*
X164439707Y-67518213D01*
X164328213Y-67629707D01*
X164328210Y-67629711D01*
X164240609Y-67760814D01*
X164240602Y-67760827D01*
X164180264Y-67906498D01*
X164180261Y-67906510D01*
X164149500Y-68061153D01*
X164149500Y-68218846D01*
X164180261Y-68373489D01*
X164180264Y-68373501D01*
X164240602Y-68519172D01*
X164240609Y-68519185D01*
X164328602Y-68650874D01*
X164349480Y-68717551D01*
X164349500Y-68719765D01*
X164349500Y-98629903D01*
X164329815Y-98696942D01*
X164313181Y-98717584D01*
X156937584Y-106093181D01*
X156876261Y-106126666D01*
X156849903Y-106129500D01*
X120609837Y-106129500D01*
X120542798Y-106109815D01*
X120497043Y-106057011D01*
X120488220Y-106029692D01*
X120459738Y-105886508D01*
X120459737Y-105886507D01*
X120459737Y-105886503D01*
X120459735Y-105886498D01*
X120399397Y-105740827D01*
X120399390Y-105740814D01*
X120311789Y-105609711D01*
X120311786Y-105609707D01*
X120200292Y-105498213D01*
X120200288Y-105498210D01*
X120069185Y-105410609D01*
X120069172Y-105410602D01*
X119923501Y-105350264D01*
X119923489Y-105350261D01*
X119768845Y-105319500D01*
X119768842Y-105319500D01*
X119611158Y-105319500D01*
X119611155Y-105319500D01*
X119456510Y-105350261D01*
X119456498Y-105350264D01*
X119310827Y-105410602D01*
X119310814Y-105410609D01*
X119179711Y-105498210D01*
X119179707Y-105498213D01*
X119068213Y-105609707D01*
X119068210Y-105609711D01*
X118980609Y-105740814D01*
X118980602Y-105740827D01*
X118920264Y-105886498D01*
X118920261Y-105886510D01*
X118889500Y-106041153D01*
X98860000Y-106041153D01*
X98860000Y-90610837D01*
X116368250Y-90610837D01*
X116368250Y-90839162D01*
X116403965Y-91064660D01*
X116474520Y-91281803D01*
X116572416Y-91473933D01*
X116578171Y-91485228D01*
X116712371Y-91669937D01*
X116873813Y-91831379D01*
X117058522Y-91965579D01*
X117154634Y-92014550D01*
X117261946Y-92069229D01*
X117261948Y-92069229D01*
X117261951Y-92069231D01*
X117378342Y-92107049D01*
X117479089Y-92139784D01*
X117704588Y-92175500D01*
X117704593Y-92175500D01*
X119232912Y-92175500D01*
X119458410Y-92139784D01*
X119675549Y-92069231D01*
X119878978Y-91965579D01*
X120063687Y-91831379D01*
X120225129Y-91669937D01*
X120359329Y-91485228D01*
X120462981Y-91281799D01*
X120533534Y-91064660D01*
X120546891Y-90980326D01*
X120569250Y-90839162D01*
X120569250Y-90610837D01*
X128868250Y-90610837D01*
X128868250Y-90839162D01*
X128903965Y-91064660D01*
X128974520Y-91281803D01*
X129072416Y-91473933D01*
X129078171Y-91485228D01*
X129212371Y-91669937D01*
X129373813Y-91831379D01*
X129558522Y-91965579D01*
X129654634Y-92014550D01*
X129761946Y-92069229D01*
X129761948Y-92069229D01*
X129761951Y-92069231D01*
X129878342Y-92107049D01*
X129979089Y-92139784D01*
X130204588Y-92175500D01*
X130204593Y-92175500D01*
X131518653Y-92175500D01*
X131585692Y-92195185D01*
X131606334Y-92211819D01*
X140768889Y-101374374D01*
X140768899Y-101374385D01*
X140773229Y-101378715D01*
X140773230Y-101378716D01*
X140885034Y-101490520D01*
X140885036Y-101490521D01*
X140885040Y-101490524D01*
X141021959Y-101569573D01*
X141021966Y-101569577D01*
X141133769Y-101599534D01*
X141174692Y-101610500D01*
X141174693Y-101610500D01*
X155453331Y-101610500D01*
X155453347Y-101610501D01*
X155460943Y-101610501D01*
X155619054Y-101610501D01*
X155619057Y-101610501D01*
X155771785Y-101569577D01*
X155821904Y-101540639D01*
X155908716Y-101490520D01*
X156020520Y-101378716D01*
X156020520Y-101378714D01*
X156030728Y-101368507D01*
X156030730Y-101368504D01*
X160328713Y-97070521D01*
X160328716Y-97070520D01*
X160440520Y-96958716D01*
X160490639Y-96871904D01*
X160519577Y-96821785D01*
X160560501Y-96669057D01*
X160560501Y-96510943D01*
X160560501Y-96503348D01*
X160560500Y-96503330D01*
X160560500Y-78874500D01*
X160580185Y-78807461D01*
X160632989Y-78761706D01*
X160672970Y-78753008D01*
X160672782Y-78751097D01*
X160678836Y-78750500D01*
X160678842Y-78750500D01*
X160833497Y-78719737D01*
X160979179Y-78659394D01*
X161110289Y-78571789D01*
X161221789Y-78460289D01*
X161309394Y-78329179D01*
X161369737Y-78183497D01*
X161400500Y-78028842D01*
X161400500Y-78028835D01*
X161401097Y-78022782D01*
X161402604Y-78022930D01*
X161409143Y-78000660D01*
X161415667Y-77970671D01*
X161419422Y-77965653D01*
X161420185Y-77963058D01*
X161436815Y-77942419D01*
X161498505Y-77880728D01*
X161498510Y-77880725D01*
X161508714Y-77870520D01*
X161508716Y-77870520D01*
X161620520Y-77758716D01*
X161699577Y-77621784D01*
X161740500Y-77469057D01*
X161740500Y-65840097D01*
X161760185Y-65773058D01*
X161776819Y-65752416D01*
X163854096Y-63675139D01*
X166090520Y-61438716D01*
X166169577Y-61301784D01*
X166210501Y-61149057D01*
X166210501Y-60990942D01*
X166210501Y-60983347D01*
X166210500Y-60983329D01*
X166210500Y-60879097D01*
X166230185Y-60812058D01*
X166282989Y-60766303D01*
X166352147Y-60756359D01*
X166415703Y-60785384D01*
X166422179Y-60791414D01*
X167621284Y-61990520D01*
X167621286Y-61990521D01*
X167621290Y-61990524D01*
X167758209Y-62069573D01*
X167758212Y-62069575D01*
X167758216Y-62069577D01*
X167910943Y-62110501D01*
X167910945Y-62110501D01*
X168076654Y-62110501D01*
X168076670Y-62110500D01*
X171873331Y-62110500D01*
X171873347Y-62110501D01*
X171880943Y-62110501D01*
X172039054Y-62110501D01*
X172039057Y-62110501D01*
X172191785Y-62069577D01*
X172263424Y-62028216D01*
X172328716Y-61990520D01*
X172434665Y-61884570D01*
X172495984Y-61851088D01*
X172498152Y-61850637D01*
X172498841Y-61850500D01*
X172498842Y-61850500D01*
X172653497Y-61819737D01*
X172799179Y-61759394D01*
X172930289Y-61671789D01*
X173041789Y-61560289D01*
X173129394Y-61429179D01*
X173189737Y-61283497D01*
X173220500Y-61128842D01*
X173220500Y-60971158D01*
X173220500Y-60971155D01*
X173220499Y-60971153D01*
X173208173Y-60909185D01*
X173189737Y-60816503D01*
X173176847Y-60785384D01*
X173129397Y-60670827D01*
X173129390Y-60670814D01*
X173041789Y-60539711D01*
X173041786Y-60539707D01*
X172930292Y-60428213D01*
X172930288Y-60428210D01*
X172799185Y-60340609D01*
X172799172Y-60340602D01*
X172653501Y-60280264D01*
X172653489Y-60280261D01*
X172498845Y-60249500D01*
X172498842Y-60249500D01*
X172341158Y-60249500D01*
X172341155Y-60249500D01*
X172186510Y-60280261D01*
X172186498Y-60280264D01*
X172040827Y-60340602D01*
X172040814Y-60340609D01*
X171909711Y-60428210D01*
X171909707Y-60428213D01*
X171798213Y-60539707D01*
X171798210Y-60539711D01*
X171710609Y-60670814D01*
X171710602Y-60670827D01*
X171650262Y-60816503D01*
X171648747Y-60821500D01*
X171610447Y-60879937D01*
X171546634Y-60908391D01*
X171530088Y-60909500D01*
X168290098Y-60909500D01*
X168223059Y-60889815D01*
X168202417Y-60873181D01*
X167256819Y-59927583D01*
X167223334Y-59866260D01*
X167220500Y-59839902D01*
X167220500Y-59299765D01*
X167240185Y-59232726D01*
X167241398Y-59230874D01*
X167329390Y-59099185D01*
X167329390Y-59099184D01*
X167329394Y-59099179D01*
X167389737Y-58953497D01*
X167420500Y-58798842D01*
X167420500Y-58641158D01*
X167420500Y-58641155D01*
X167420499Y-58641153D01*
X167412440Y-58600638D01*
X167389737Y-58486503D01*
X167366032Y-58429273D01*
X167329397Y-58340827D01*
X167329390Y-58340814D01*
X167241789Y-58209711D01*
X167241786Y-58209707D01*
X167130292Y-58098213D01*
X167130288Y-58098210D01*
X166999185Y-58010609D01*
X166999172Y-58010602D01*
X166853501Y-57950264D01*
X166853489Y-57950261D01*
X166698845Y-57919500D01*
X166698842Y-57919500D01*
X166541158Y-57919500D01*
X166541155Y-57919500D01*
X166386510Y-57950261D01*
X166386500Y-57950263D01*
X166381944Y-57952151D01*
X166312475Y-57959614D01*
X166249998Y-57928335D01*
X166214350Y-57868243D01*
X166210500Y-57837586D01*
X166210500Y-57231153D01*
X179619500Y-57231153D01*
X179619500Y-57388846D01*
X179650261Y-57543489D01*
X179650264Y-57543501D01*
X179710602Y-57689172D01*
X179710609Y-57689185D01*
X179798210Y-57820288D01*
X179798213Y-57820292D01*
X179909707Y-57931786D01*
X179909711Y-57931789D01*
X180040814Y-58019390D01*
X180040827Y-58019397D01*
X180087478Y-58038720D01*
X180186503Y-58079737D01*
X180341153Y-58110499D01*
X180341156Y-58110500D01*
X180341158Y-58110500D01*
X180498844Y-58110500D01*
X180498845Y-58110499D01*
X180653497Y-58079737D01*
X180771485Y-58030865D01*
X180799172Y-58019397D01*
X180799172Y-58019396D01*
X180799179Y-58019394D01*
X180812337Y-58010602D01*
X180930875Y-57931398D01*
X180997553Y-57910520D01*
X180999766Y-57910500D01*
X189062709Y-57910500D01*
X189129748Y-57930185D01*
X189175503Y-57982989D01*
X189177270Y-57987048D01*
X189198667Y-58038707D01*
X189198674Y-58038720D01*
X189286275Y-58169823D01*
X189286278Y-58169827D01*
X189397772Y-58281321D01*
X189397776Y-58281324D01*
X189528879Y-58368925D01*
X189528892Y-58368932D01*
X189656495Y-58421786D01*
X189674568Y-58429272D01*
X189829218Y-58460034D01*
X189829221Y-58460035D01*
X189829223Y-58460035D01*
X189986909Y-58460035D01*
X189986910Y-58460034D01*
X190141562Y-58429272D01*
X190287244Y-58368929D01*
X190418354Y-58281324D01*
X190529854Y-58169824D01*
X190617459Y-58038714D01*
X190624871Y-58020821D01*
X190661748Y-57931789D01*
X190677802Y-57893032D01*
X190708565Y-57738377D01*
X190708565Y-57580693D01*
X190708565Y-57580690D01*
X190708564Y-57580688D01*
X190677803Y-57426045D01*
X190677802Y-57426038D01*
X190655114Y-57371264D01*
X190617462Y-57280362D01*
X190617455Y-57280349D01*
X190529854Y-57149246D01*
X190529851Y-57149242D01*
X190418357Y-57037748D01*
X190418353Y-57037745D01*
X190287250Y-56950144D01*
X190287237Y-56950137D01*
X190141566Y-56889799D01*
X190141556Y-56889796D01*
X189986216Y-56858897D01*
X189946233Y-56843382D01*
X189933364Y-56835598D01*
X189927246Y-56829480D01*
X189840434Y-56779360D01*
X189790315Y-56750423D01*
X189637587Y-56709499D01*
X189479473Y-56709499D01*
X189471877Y-56709499D01*
X189471861Y-56709500D01*
X180999766Y-56709500D01*
X180932727Y-56689815D01*
X180930875Y-56688602D01*
X180799185Y-56600609D01*
X180799172Y-56600602D01*
X180653501Y-56540264D01*
X180653489Y-56540261D01*
X180498845Y-56509500D01*
X180498842Y-56509500D01*
X180341158Y-56509500D01*
X180341155Y-56509500D01*
X180186510Y-56540261D01*
X180186498Y-56540264D01*
X180040827Y-56600602D01*
X180040814Y-56600609D01*
X179909711Y-56688210D01*
X179909707Y-56688213D01*
X179798213Y-56799707D01*
X179798210Y-56799711D01*
X179710609Y-56930814D01*
X179710602Y-56930827D01*
X179650264Y-57076498D01*
X179650261Y-57076510D01*
X179619500Y-57231153D01*
X166210500Y-57231153D01*
X166210500Y-57129060D01*
X166210501Y-57129047D01*
X166210501Y-56960944D01*
X166207607Y-56950144D01*
X166169577Y-56808216D01*
X166112584Y-56709500D01*
X166090524Y-56671290D01*
X166090518Y-56671282D01*
X164787590Y-55368355D01*
X164787588Y-55368352D01*
X164668717Y-55249481D01*
X164668716Y-55249480D01*
X164581904Y-55199360D01*
X164581904Y-55199359D01*
X164581900Y-55199358D01*
X164531785Y-55170423D01*
X164379057Y-55129499D01*
X164220943Y-55129499D01*
X164213347Y-55129499D01*
X164213331Y-55129500D01*
X159460097Y-55129500D01*
X159430656Y-55120855D01*
X159400670Y-55114332D01*
X159395654Y-55110577D01*
X159393058Y-55109815D01*
X159372416Y-55093181D01*
X159286819Y-55007584D01*
X159253334Y-54946261D01*
X159250500Y-54919903D01*
X159250500Y-39379060D01*
X159250501Y-39379047D01*
X159250501Y-39241321D01*
X159252884Y-39217128D01*
X159260500Y-39178843D01*
X159260500Y-39021155D01*
X159260499Y-39021153D01*
X159229738Y-38866510D01*
X159229737Y-38866503D01*
X159229735Y-38866498D01*
X159169397Y-38720827D01*
X159169390Y-38720814D01*
X159081789Y-38589711D01*
X159081786Y-38589707D01*
X158970292Y-38478213D01*
X158970288Y-38478210D01*
X158839185Y-38390609D01*
X158839172Y-38390602D01*
X158693501Y-38330264D01*
X158693489Y-38330261D01*
X158538845Y-38299500D01*
X158538842Y-38299500D01*
X158381158Y-38299500D01*
X158381155Y-38299500D01*
X158226510Y-38330261D01*
X158226498Y-38330264D01*
X158080827Y-38390602D01*
X158080814Y-38390609D01*
X157949711Y-38478210D01*
X157949707Y-38478213D01*
X157838213Y-38589707D01*
X157838210Y-38589711D01*
X157750609Y-38720814D01*
X157750602Y-38720827D01*
X157690264Y-38866498D01*
X157690261Y-38866510D01*
X157659500Y-39021153D01*
X157659500Y-39178846D01*
X157690261Y-39333489D01*
X157690264Y-39333501D01*
X157750602Y-39479172D01*
X157750609Y-39479185D01*
X157838210Y-39610288D01*
X157838213Y-39610292D01*
X157949705Y-39721784D01*
X157949710Y-39721788D01*
X157949711Y-39721789D01*
X157994389Y-39751642D01*
X158039195Y-39805253D01*
X158049500Y-39854744D01*
X158049500Y-55133330D01*
X158049499Y-55133348D01*
X158049499Y-55299054D01*
X158049498Y-55299054D01*
X158049499Y-55299057D01*
X158066173Y-55361286D01*
X158090424Y-55451787D01*
X158101969Y-55471783D01*
X158101970Y-55471785D01*
X158169477Y-55588712D01*
X158169481Y-55588717D01*
X158288349Y-55707585D01*
X158288355Y-55707590D01*
X158675139Y-56094374D01*
X158675149Y-56094385D01*
X158679479Y-56098715D01*
X158679480Y-56098716D01*
X158791284Y-56210520D01*
X158878095Y-56260639D01*
X158878097Y-56260641D01*
X158916151Y-56282611D01*
X158928215Y-56289577D01*
X159080943Y-56330501D01*
X159080946Y-56330501D01*
X159246653Y-56330501D01*
X159246669Y-56330500D01*
X163999903Y-56330500D01*
X164066942Y-56350185D01*
X164087584Y-56366819D01*
X164973181Y-57252416D01*
X165006666Y-57313739D01*
X165009500Y-57340097D01*
X165009500Y-60769902D01*
X164989815Y-60836941D01*
X164973181Y-60857583D01*
X160772181Y-65058583D01*
X160710858Y-65092068D01*
X160641166Y-65087084D01*
X160585233Y-65045212D01*
X160560816Y-64979748D01*
X160560500Y-64970902D01*
X160560500Y-64249059D01*
X160560501Y-64249046D01*
X160560501Y-64080945D01*
X160560501Y-64080943D01*
X160519577Y-63928215D01*
X160486997Y-63871785D01*
X160440520Y-63791284D01*
X160328716Y-63679480D01*
X160328715Y-63679479D01*
X160324385Y-63675149D01*
X160324374Y-63675139D01*
X156686819Y-60037584D01*
X156653334Y-59976261D01*
X156650500Y-59949903D01*
X156650500Y-52729765D01*
X156670185Y-52662726D01*
X156671398Y-52660874D01*
X156759390Y-52529185D01*
X156759390Y-52529184D01*
X156759394Y-52529179D01*
X156764066Y-52517901D01*
X156792407Y-52449478D01*
X156819737Y-52383497D01*
X156850500Y-52228842D01*
X156850500Y-52071158D01*
X156850500Y-52071155D01*
X156850499Y-52071153D01*
X156819738Y-51916510D01*
X156819737Y-51916503D01*
X156807148Y-51886110D01*
X156759397Y-51770827D01*
X156759390Y-51770814D01*
X156671789Y-51639711D01*
X156671786Y-51639707D01*
X156560292Y-51528213D01*
X156560288Y-51528210D01*
X156429185Y-51440609D01*
X156429172Y-51440602D01*
X156283501Y-51380264D01*
X156283489Y-51380261D01*
X156128845Y-51349500D01*
X156128842Y-51349500D01*
X155971158Y-51349500D01*
X155971155Y-51349500D01*
X155816510Y-51380261D01*
X155816498Y-51380264D01*
X155670827Y-51440602D01*
X155670814Y-51440609D01*
X155539711Y-51528210D01*
X155539707Y-51528213D01*
X155428213Y-51639707D01*
X155428210Y-51639711D01*
X155340609Y-51770814D01*
X155340602Y-51770827D01*
X155280264Y-51916498D01*
X155280262Y-51916506D01*
X155276425Y-51935795D01*
X155244038Y-51997706D01*
X155202260Y-52026162D01*
X155070827Y-52080602D01*
X155070814Y-52080609D01*
X154939711Y-52168210D01*
X154939707Y-52168213D01*
X154828213Y-52279707D01*
X154828210Y-52279711D01*
X154740609Y-52410814D01*
X154740602Y-52410827D01*
X154680264Y-52556498D01*
X154680261Y-52556510D01*
X154649500Y-52711153D01*
X154649500Y-52868846D01*
X154680261Y-53023489D01*
X154680264Y-53023501D01*
X154740603Y-53169174D01*
X154740604Y-53169175D01*
X154740606Y-53169179D01*
X154768602Y-53211077D01*
X154789480Y-53277754D01*
X154789500Y-53279968D01*
X154789500Y-60289902D01*
X154769815Y-60356941D01*
X154753181Y-60377583D01*
X153507584Y-61623181D01*
X153446261Y-61656666D01*
X153419903Y-61659500D01*
X151379057Y-61659500D01*
X151220942Y-61659500D01*
X151068215Y-61700423D01*
X151068214Y-61700423D01*
X151068212Y-61700424D01*
X151068209Y-61700425D01*
X151018096Y-61729359D01*
X151018095Y-61729360D01*
X150974689Y-61754420D01*
X150931285Y-61779479D01*
X150931282Y-61779481D01*
X150819478Y-61891286D01*
X150541284Y-62169481D01*
X149551286Y-63159478D01*
X149439481Y-63271282D01*
X149439479Y-63271285D01*
X149389361Y-63358094D01*
X149389359Y-63358096D01*
X149360425Y-63408209D01*
X149360424Y-63408210D01*
X149360423Y-63408215D01*
X149319499Y-63560943D01*
X149319499Y-63560945D01*
X149319499Y-63729046D01*
X149319500Y-63729059D01*
X149319500Y-70069902D01*
X149299815Y-70136941D01*
X149283181Y-70157583D01*
X139800731Y-79640032D01*
X139800729Y-79640035D01*
X139750611Y-79726844D01*
X139750609Y-79726846D01*
X139721675Y-79776959D01*
X139721674Y-79776960D01*
X139721673Y-79776965D01*
X139680749Y-79929693D01*
X139680749Y-79929695D01*
X139680749Y-80097796D01*
X139680750Y-80097809D01*
X139680750Y-84063000D01*
X139661065Y-84130039D01*
X139608261Y-84175794D01*
X139556750Y-84187000D01*
X139233380Y-84187000D01*
X139233373Y-84187001D01*
X139173766Y-84193408D01*
X139038921Y-84243702D01*
X139038914Y-84243706D01*
X138923705Y-84329952D01*
X138923702Y-84329955D01*
X138837456Y-84445164D01*
X138837452Y-84445171D01*
X138787158Y-84580017D01*
X138783008Y-84618621D01*
X138780751Y-84639623D01*
X138780750Y-84639635D01*
X138780750Y-86735370D01*
X138780751Y-86735376D01*
X138787158Y-86794983D01*
X138837452Y-86929828D01*
X138837456Y-86929835D01*
X138923702Y-87045044D01*
X138923705Y-87045047D01*
X139041448Y-87133190D01*
X139083319Y-87189123D01*
X139088303Y-87258815D01*
X139067455Y-87305341D01*
X138997909Y-87401063D01*
X138890683Y-87611503D01*
X138817696Y-87836131D01*
X138780750Y-88069402D01*
X138780750Y-88305597D01*
X138817696Y-88538868D01*
X138890683Y-88763496D01*
X138997907Y-88973933D01*
X139136733Y-89165010D01*
X139136735Y-89165012D01*
X139303740Y-89332017D01*
X139310853Y-89337185D01*
X139353516Y-89392517D01*
X139359492Y-89462130D01*
X139326884Y-89523924D01*
X139310853Y-89537815D01*
X139303740Y-89542982D01*
X139136735Y-89709987D01*
X139136735Y-89709988D01*
X139136733Y-89709990D01*
X139119527Y-89733672D01*
X138997907Y-89901066D01*
X138937667Y-90019295D01*
X138889692Y-90070091D01*
X138827182Y-90087000D01*
X136357598Y-90087000D01*
X136290559Y-90067315D01*
X136269917Y-90050681D01*
X134916819Y-88697583D01*
X134883334Y-88636260D01*
X134880500Y-88609902D01*
X134880500Y-83450097D01*
X134900185Y-83383058D01*
X134916819Y-83362416D01*
X140810180Y-77469055D01*
X148070520Y-70208716D01*
X148149577Y-70071784D01*
X148190501Y-69919057D01*
X148190501Y-69760942D01*
X148190501Y-69753347D01*
X148190500Y-69753329D01*
X148190500Y-53230097D01*
X148210185Y-53163058D01*
X148226819Y-53142416D01*
X152102416Y-49266819D01*
X152163739Y-49233334D01*
X152190097Y-49230500D01*
X152198844Y-49230500D01*
X152198845Y-49230499D01*
X152353497Y-49199737D01*
X152499179Y-49139394D01*
X152630289Y-49051789D01*
X152741789Y-48940289D01*
X152829394Y-48809179D01*
X152889737Y-48663497D01*
X152920500Y-48508842D01*
X152920500Y-48351158D01*
X152920500Y-48351155D01*
X152920499Y-48351153D01*
X152889738Y-48196510D01*
X152889738Y-48196508D01*
X152889737Y-48196503D01*
X152889735Y-48196498D01*
X152829397Y-48050827D01*
X152829390Y-48050814D01*
X152741789Y-47919711D01*
X152741786Y-47919707D01*
X152630292Y-47808213D01*
X152630288Y-47808210D01*
X152499185Y-47720609D01*
X152499172Y-47720602D01*
X152353501Y-47660264D01*
X152353489Y-47660261D01*
X152198845Y-47629500D01*
X152198842Y-47629500D01*
X152041158Y-47629500D01*
X152041155Y-47629500D01*
X151886510Y-47660261D01*
X151886498Y-47660264D01*
X151740827Y-47720602D01*
X151740814Y-47720609D01*
X151609711Y-47808210D01*
X151609707Y-47808213D01*
X151498213Y-47919707D01*
X151498210Y-47919711D01*
X151410609Y-48050814D01*
X151410602Y-48050827D01*
X151350264Y-48196498D01*
X151350261Y-48196508D01*
X151326811Y-48314400D01*
X151294426Y-48376311D01*
X151292875Y-48377889D01*
X147109481Y-52561282D01*
X147109479Y-52561285D01*
X147076612Y-52618214D01*
X147076611Y-52618216D01*
X147030423Y-52698214D01*
X147030423Y-52698215D01*
X146989499Y-52850943D01*
X146989499Y-52850945D01*
X146989499Y-53019046D01*
X146989500Y-53019059D01*
X146989500Y-69539901D01*
X146969815Y-69606940D01*
X146953181Y-69627582D01*
X146566507Y-70014255D01*
X146505184Y-70047740D01*
X146435492Y-70042756D01*
X146379559Y-70000884D01*
X146375737Y-69995484D01*
X146331789Y-69929711D01*
X146331787Y-69929708D01*
X146220292Y-69818213D01*
X146220288Y-69818210D01*
X146089185Y-69730609D01*
X146089172Y-69730602D01*
X145943501Y-69670264D01*
X145943491Y-69670261D01*
X145788149Y-69639361D01*
X145726238Y-69606976D01*
X145724660Y-69605425D01*
X141977590Y-65858355D01*
X141977588Y-65858352D01*
X141858717Y-65739481D01*
X141858716Y-65739480D01*
X141771904Y-65689360D01*
X141771904Y-65689359D01*
X141771900Y-65689358D01*
X141721785Y-65660423D01*
X141569057Y-65619499D01*
X141410943Y-65619499D01*
X141403347Y-65619499D01*
X141403331Y-65619500D01*
X136309766Y-65619500D01*
X136242727Y-65599815D01*
X136240875Y-65598602D01*
X136109185Y-65510609D01*
X136109172Y-65510602D01*
X135963501Y-65450264D01*
X135963489Y-65450261D01*
X135808845Y-65419500D01*
X135808842Y-65419500D01*
X135651158Y-65419500D01*
X135651155Y-65419500D01*
X135496510Y-65450261D01*
X135496498Y-65450264D01*
X135350827Y-65510602D01*
X135350814Y-65510609D01*
X135219711Y-65598210D01*
X135219707Y-65598213D01*
X135108213Y-65709707D01*
X135108210Y-65709711D01*
X135020609Y-65840814D01*
X135020602Y-65840827D01*
X134960264Y-65986498D01*
X134960261Y-65986510D01*
X134929500Y-66141153D01*
X134929500Y-66298846D01*
X134960261Y-66453489D01*
X134960264Y-66453501D01*
X135020602Y-66599172D01*
X135020609Y-66599185D01*
X135108210Y-66730288D01*
X135108213Y-66730292D01*
X135219707Y-66841786D01*
X135219711Y-66841789D01*
X135350814Y-66929390D01*
X135350827Y-66929397D01*
X135496498Y-66989735D01*
X135496503Y-66989737D01*
X135651153Y-67020499D01*
X135651156Y-67020500D01*
X135651158Y-67020500D01*
X135808844Y-67020500D01*
X135808845Y-67020499D01*
X135963497Y-66989737D01*
X136109179Y-66929394D01*
X136109185Y-66929390D01*
X136240875Y-66841398D01*
X136307553Y-66820520D01*
X136309766Y-66820500D01*
X141189903Y-66820500D01*
X141256942Y-66840185D01*
X141277584Y-66856819D01*
X144875425Y-70454660D01*
X144908910Y-70515983D01*
X144909361Y-70518149D01*
X144940261Y-70673491D01*
X144940264Y-70673501D01*
X145000602Y-70819172D01*
X145000609Y-70819185D01*
X145088210Y-70950288D01*
X145088213Y-70950292D01*
X145199707Y-71061786D01*
X145199711Y-71061789D01*
X145265465Y-71105725D01*
X145310270Y-71159337D01*
X145318977Y-71228662D01*
X145288822Y-71291690D01*
X145284255Y-71296508D01*
X133911286Y-82669478D01*
X133799481Y-82781282D01*
X133799479Y-82781285D01*
X133749361Y-82868094D01*
X133749359Y-82868096D01*
X133720425Y-82918209D01*
X133720424Y-82918210D01*
X133720423Y-82918215D01*
X133679499Y-83070943D01*
X133679499Y-83070945D01*
X133679499Y-83239046D01*
X133679500Y-83239059D01*
X133679500Y-88823330D01*
X133679499Y-88823348D01*
X133679499Y-88989054D01*
X133679498Y-88989054D01*
X133679499Y-88989057D01*
X133720423Y-89141785D01*
X133724902Y-89149542D01*
X133724904Y-89149552D01*
X133724907Y-89149551D01*
X133799477Y-89278712D01*
X133799481Y-89278717D01*
X133918349Y-89397585D01*
X133918354Y-89397589D01*
X135688784Y-91168020D01*
X135688786Y-91168021D01*
X135688790Y-91168024D01*
X135825709Y-91247073D01*
X135825716Y-91247077D01*
X135978443Y-91288001D01*
X135978445Y-91288001D01*
X136144154Y-91288001D01*
X136144170Y-91288000D01*
X138827182Y-91288000D01*
X138894221Y-91307685D01*
X138937666Y-91355703D01*
X138997907Y-91473933D01*
X139136733Y-91665010D01*
X139303740Y-91832017D01*
X139494817Y-91970843D01*
X139594241Y-92021502D01*
X139705253Y-92078066D01*
X139705255Y-92078066D01*
X139705258Y-92078068D01*
X139825662Y-92117189D01*
X139929881Y-92151053D01*
X140163153Y-92188000D01*
X140163158Y-92188000D01*
X140399347Y-92188000D01*
X140632618Y-92151053D01*
X140667300Y-92139784D01*
X140857242Y-92078068D01*
X141067683Y-91970843D01*
X141258760Y-91832017D01*
X141425767Y-91665010D01*
X141564593Y-91473933D01*
X141671818Y-91263492D01*
X141744803Y-91038868D01*
X141754075Y-90980326D01*
X141781750Y-90805597D01*
X141781750Y-90589077D01*
X153530750Y-90589077D01*
X153530750Y-90785922D01*
X153561540Y-90980326D01*
X153622367Y-91167529D01*
X153711726Y-91342905D01*
X153827422Y-91502146D01*
X153966604Y-91641328D01*
X154125845Y-91757024D01*
X154198815Y-91794204D01*
X154301220Y-91846382D01*
X154301222Y-91846382D01*
X154301225Y-91846384D01*
X154401567Y-91878987D01*
X154488423Y-91907209D01*
X154682828Y-91938000D01*
X154682833Y-91938000D01*
X154879672Y-91938000D01*
X155074076Y-91907209D01*
X155261275Y-91846384D01*
X155436655Y-91757024D01*
X155595896Y-91641328D01*
X155735078Y-91502146D01*
X155850774Y-91342905D01*
X155940134Y-91167525D01*
X156000959Y-90980326D01*
X156023318Y-90839157D01*
X156031750Y-90785922D01*
X156031750Y-90589077D01*
X156000959Y-90394673D01*
X155940132Y-90207470D01*
X155850773Y-90032094D01*
X155841474Y-90019295D01*
X155735078Y-89872854D01*
X155595896Y-89733672D01*
X155436655Y-89617976D01*
X155261279Y-89528617D01*
X155074076Y-89467790D01*
X154879672Y-89437000D01*
X154879667Y-89437000D01*
X154682833Y-89437000D01*
X154682828Y-89437000D01*
X154488423Y-89467790D01*
X154301220Y-89528617D01*
X154125844Y-89617976D01*
X154034991Y-89683985D01*
X153966604Y-89733672D01*
X153966602Y-89733674D01*
X153966601Y-89733674D01*
X153827424Y-89872851D01*
X153827424Y-89872852D01*
X153827422Y-89872854D01*
X153806925Y-89901066D01*
X153711726Y-90032094D01*
X153622367Y-90207470D01*
X153561540Y-90394673D01*
X153530750Y-90589077D01*
X141781750Y-90589077D01*
X141781750Y-90569402D01*
X141744803Y-90336131D01*
X141671816Y-90111503D01*
X141564592Y-89901066D01*
X141544095Y-89872854D01*
X141425767Y-89709990D01*
X141258760Y-89542983D01*
X141251651Y-89537818D01*
X141208985Y-89482488D01*
X141203006Y-89412875D01*
X141235612Y-89351080D01*
X141251651Y-89337182D01*
X141251750Y-89337109D01*
X141258760Y-89332017D01*
X141425767Y-89165010D01*
X141564593Y-88973933D01*
X141671818Y-88763492D01*
X141744803Y-88538868D01*
X141781750Y-88305597D01*
X141781750Y-88069402D01*
X141744803Y-87836131D01*
X141671816Y-87611503D01*
X141564592Y-87401066D01*
X141495044Y-87305342D01*
X141471564Y-87239536D01*
X141487389Y-87171482D01*
X141521051Y-87133189D01*
X141523578Y-87131296D01*
X141523581Y-87131296D01*
X141638796Y-87045046D01*
X141725046Y-86929831D01*
X141775341Y-86794983D01*
X141781750Y-86735373D01*
X141781749Y-85589077D01*
X153530750Y-85589077D01*
X153530750Y-85785922D01*
X153561540Y-85980326D01*
X153622367Y-86167529D01*
X153680591Y-86281799D01*
X153711726Y-86342905D01*
X153827422Y-86502146D01*
X153966604Y-86641328D01*
X154125845Y-86757024D01*
X154200342Y-86794982D01*
X154301220Y-86846382D01*
X154301222Y-86846382D01*
X154301225Y-86846384D01*
X154401567Y-86878987D01*
X154488423Y-86907209D01*
X154682828Y-86938000D01*
X154682833Y-86938000D01*
X154879672Y-86938000D01*
X155074076Y-86907209D01*
X155261275Y-86846384D01*
X155436655Y-86757024D01*
X155595896Y-86641328D01*
X155735078Y-86502146D01*
X155850774Y-86342905D01*
X155940134Y-86167525D01*
X156000959Y-85980326D01*
X156023318Y-85839157D01*
X156031750Y-85785922D01*
X156031750Y-85589077D01*
X156000959Y-85394673D01*
X155940132Y-85207470D01*
X155850773Y-85032094D01*
X155735078Y-84872854D01*
X155595896Y-84733672D01*
X155436655Y-84617976D01*
X155261279Y-84528617D01*
X155074076Y-84467790D01*
X154879672Y-84437000D01*
X154879667Y-84437000D01*
X154682833Y-84437000D01*
X154682828Y-84437000D01*
X154488423Y-84467790D01*
X154301220Y-84528617D01*
X154125844Y-84617976D01*
X154078931Y-84652061D01*
X153966604Y-84733672D01*
X153966602Y-84733674D01*
X153966601Y-84733674D01*
X153827424Y-84872851D01*
X153827424Y-84872852D01*
X153827422Y-84872854D01*
X153777735Y-84941241D01*
X153711726Y-85032094D01*
X153622367Y-85207470D01*
X153561540Y-85394673D01*
X153530750Y-85589077D01*
X141781749Y-85589077D01*
X141781749Y-84639628D01*
X141775341Y-84580017D01*
X141736330Y-84475424D01*
X141725047Y-84445171D01*
X141725043Y-84445164D01*
X141638797Y-84329955D01*
X141638794Y-84329952D01*
X141523585Y-84243706D01*
X141523578Y-84243702D01*
X141388732Y-84193408D01*
X141388733Y-84193408D01*
X141329133Y-84187001D01*
X141329131Y-84187000D01*
X141329123Y-84187000D01*
X141329115Y-84187000D01*
X141005750Y-84187000D01*
X140938711Y-84167315D01*
X140892956Y-84114511D01*
X140881750Y-84063000D01*
X140881750Y-82449832D01*
X145680750Y-82449832D01*
X145680750Y-82725167D01*
X145680751Y-82725184D01*
X145716688Y-82998155D01*
X145716689Y-82998160D01*
X145716690Y-82998166D01*
X145736191Y-83070945D01*
X145787954Y-83264130D01*
X145893325Y-83518517D01*
X145893330Y-83518528D01*
X145976111Y-83661907D01*
X146031001Y-83756979D01*
X146031003Y-83756982D01*
X146031004Y-83756983D01*
X146198620Y-83975426D01*
X146198626Y-83975433D01*
X146393316Y-84170123D01*
X146393323Y-84170129D01*
X146489211Y-84243706D01*
X146611771Y-84337749D01*
X146765028Y-84426232D01*
X146850221Y-84475419D01*
X146850226Y-84475421D01*
X146850229Y-84475423D01*
X147104618Y-84580795D01*
X147370584Y-84652060D01*
X147643576Y-84688000D01*
X147643583Y-84688000D01*
X147918917Y-84688000D01*
X147918924Y-84688000D01*
X148191916Y-84652060D01*
X148457882Y-84580795D01*
X148712271Y-84475423D01*
X148950729Y-84337749D01*
X149169178Y-84170128D01*
X149363878Y-83975428D01*
X149531499Y-83756979D01*
X149669173Y-83518521D01*
X149774545Y-83264132D01*
X149845810Y-82998166D01*
X149881750Y-82725174D01*
X149881750Y-82449826D01*
X149845810Y-82176834D01*
X149774545Y-81910868D01*
X149669173Y-81656479D01*
X149669171Y-81656476D01*
X149669169Y-81656471D01*
X149619982Y-81571278D01*
X149531499Y-81418021D01*
X149363878Y-81199572D01*
X149363873Y-81199566D01*
X149169183Y-81004876D01*
X149169176Y-81004870D01*
X148950733Y-80837254D01*
X148950732Y-80837253D01*
X148950729Y-80837251D01*
X148855657Y-80782361D01*
X148712278Y-80699580D01*
X148712267Y-80699575D01*
X148457880Y-80594204D01*
X148324899Y-80558572D01*
X148191916Y-80522940D01*
X148191910Y-80522939D01*
X148191905Y-80522938D01*
X147918934Y-80487001D01*
X147918929Y-80487000D01*
X147918924Y-80487000D01*
X147643576Y-80487000D01*
X147643570Y-80487000D01*
X147643565Y-80487001D01*
X147370594Y-80522938D01*
X147370587Y-80522939D01*
X147370584Y-80522940D01*
X147314375Y-80538000D01*
X147104619Y-80594204D01*
X146850232Y-80699575D01*
X146850221Y-80699580D01*
X146611766Y-80837254D01*
X146393323Y-81004870D01*
X146393316Y-81004876D01*
X146198626Y-81199566D01*
X146198620Y-81199573D01*
X146031004Y-81418016D01*
X145893330Y-81656471D01*
X145893325Y-81656482D01*
X145787954Y-81910869D01*
X145716691Y-82176831D01*
X145716688Y-82176844D01*
X145680751Y-82449815D01*
X145680750Y-82449832D01*
X140881750Y-82449832D01*
X140881750Y-80308846D01*
X140901435Y-80241807D01*
X140918064Y-80221170D01*
X150018080Y-71121153D01*
X151289500Y-71121153D01*
X151289500Y-71278846D01*
X151320261Y-71433489D01*
X151320264Y-71433501D01*
X151380602Y-71579172D01*
X151380609Y-71579185D01*
X151468210Y-71710288D01*
X151468213Y-71710292D01*
X151579707Y-71821786D01*
X151579711Y-71821789D01*
X151710814Y-71909390D01*
X151710827Y-71909397D01*
X151856498Y-71969735D01*
X151856503Y-71969737D01*
X152011153Y-72000499D01*
X152011156Y-72000500D01*
X152011158Y-72000500D01*
X152168844Y-72000500D01*
X152168845Y-72000499D01*
X152323497Y-71969737D01*
X152436166Y-71923067D01*
X152469172Y-71909397D01*
X152469172Y-71909396D01*
X152469179Y-71909394D01*
X152469185Y-71909390D01*
X152600875Y-71821398D01*
X152667553Y-71800520D01*
X152669766Y-71800500D01*
X155827217Y-71800500D01*
X155894256Y-71820185D01*
X155905882Y-71828647D01*
X155909710Y-71831789D01*
X156040814Y-71919390D01*
X156040827Y-71919397D01*
X156162363Y-71969738D01*
X156186503Y-71979737D01*
X156341153Y-72010499D01*
X156341156Y-72010500D01*
X156341158Y-72010500D01*
X156498844Y-72010500D01*
X156498845Y-72010499D01*
X156653497Y-71979737D01*
X156799179Y-71919394D01*
X156930289Y-71831789D01*
X157041789Y-71720289D01*
X157129394Y-71589179D01*
X157189737Y-71443497D01*
X157220500Y-71288842D01*
X157220500Y-71131158D01*
X157220500Y-71131155D01*
X157220499Y-71131153D01*
X157212365Y-71090261D01*
X157189737Y-70976503D01*
X157178879Y-70950289D01*
X157129397Y-70830827D01*
X157129390Y-70830814D01*
X157041789Y-70699711D01*
X157041786Y-70699707D01*
X156930292Y-70588213D01*
X156930288Y-70588210D01*
X156799185Y-70500609D01*
X156799172Y-70500602D01*
X156653501Y-70440264D01*
X156653489Y-70440261D01*
X156498845Y-70409500D01*
X156498842Y-70409500D01*
X156341158Y-70409500D01*
X156341155Y-70409500D01*
X156186510Y-70440261D01*
X156186498Y-70440264D01*
X156040827Y-70500602D01*
X156040814Y-70500609D01*
X155924091Y-70578602D01*
X155857413Y-70599480D01*
X155855200Y-70599500D01*
X152669766Y-70599500D01*
X152602727Y-70579815D01*
X152600875Y-70578602D01*
X152469185Y-70490609D01*
X152469172Y-70490602D01*
X152323501Y-70430264D01*
X152323489Y-70430261D01*
X152168845Y-70399500D01*
X152168842Y-70399500D01*
X152011158Y-70399500D01*
X152011155Y-70399500D01*
X151856510Y-70430261D01*
X151856498Y-70430264D01*
X151710827Y-70490602D01*
X151710814Y-70490609D01*
X151579711Y-70578210D01*
X151579707Y-70578213D01*
X151468213Y-70689707D01*
X151468210Y-70689711D01*
X151380609Y-70820814D01*
X151380602Y-70820827D01*
X151320264Y-70966498D01*
X151320261Y-70966510D01*
X151289500Y-71121153D01*
X150018080Y-71121153D01*
X150278506Y-70860727D01*
X150278511Y-70860724D01*
X150288714Y-70850520D01*
X150288716Y-70850520D01*
X150400520Y-70738716D01*
X150461246Y-70633535D01*
X150479577Y-70601785D01*
X150520501Y-70449057D01*
X150520501Y-70290943D01*
X150520501Y-70283348D01*
X150520500Y-70283330D01*
X150520500Y-63940097D01*
X150540185Y-63873058D01*
X150556819Y-63852416D01*
X151512416Y-62896819D01*
X151573739Y-62863334D01*
X151600097Y-62860500D01*
X153633331Y-62860500D01*
X153633347Y-62860501D01*
X153640943Y-62860501D01*
X153799054Y-62860501D01*
X153799057Y-62860501D01*
X153951785Y-62819577D01*
X154001904Y-62790639D01*
X154088716Y-62740520D01*
X154200520Y-62628716D01*
X154200520Y-62628714D01*
X154210728Y-62618507D01*
X154210729Y-62618504D01*
X155802321Y-61026914D01*
X155863642Y-60993431D01*
X155933334Y-60998415D01*
X155977681Y-61026916D01*
X159323181Y-64372416D01*
X159356666Y-64433739D01*
X159359500Y-64460097D01*
X159359500Y-96289903D01*
X159339815Y-96356942D01*
X159323181Y-96377584D01*
X155327584Y-100373181D01*
X155266261Y-100406666D01*
X155239903Y-100409500D01*
X141553847Y-100409500D01*
X141486808Y-100389815D01*
X141466166Y-100373181D01*
X134742817Y-93649832D01*
X145680750Y-93649832D01*
X145680750Y-93925167D01*
X145680751Y-93925184D01*
X145716688Y-94198155D01*
X145716689Y-94198160D01*
X145716690Y-94198166D01*
X145716691Y-94198168D01*
X145787954Y-94464130D01*
X145893325Y-94718517D01*
X145893330Y-94718528D01*
X145976111Y-94861907D01*
X146031001Y-94956979D01*
X146031003Y-94956982D01*
X146031004Y-94956983D01*
X146198620Y-95175426D01*
X146198626Y-95175433D01*
X146393316Y-95370123D01*
X146393322Y-95370128D01*
X146611771Y-95537749D01*
X146765028Y-95626232D01*
X146850221Y-95675419D01*
X146850226Y-95675421D01*
X146850229Y-95675423D01*
X147104618Y-95780795D01*
X147370584Y-95852060D01*
X147643576Y-95888000D01*
X147643583Y-95888000D01*
X147918917Y-95888000D01*
X147918924Y-95888000D01*
X148191916Y-95852060D01*
X148457882Y-95780795D01*
X148712271Y-95675423D01*
X148950729Y-95537749D01*
X149169178Y-95370128D01*
X149363878Y-95175428D01*
X149531499Y-94956979D01*
X149669173Y-94718521D01*
X149774545Y-94464132D01*
X149845810Y-94198166D01*
X149881750Y-93925174D01*
X149881750Y-93649826D01*
X149845810Y-93376834D01*
X149774545Y-93110868D01*
X149669173Y-92856479D01*
X149669171Y-92856476D01*
X149669169Y-92856471D01*
X149619982Y-92771278D01*
X149531499Y-92618021D01*
X149363878Y-92399572D01*
X149363873Y-92399566D01*
X149169183Y-92204876D01*
X149169176Y-92204870D01*
X148950733Y-92037254D01*
X148950732Y-92037253D01*
X148950729Y-92037251D01*
X148835707Y-91970843D01*
X148712278Y-91899580D01*
X148712267Y-91899575D01*
X148457880Y-91794204D01*
X148319116Y-91757023D01*
X148191916Y-91722940D01*
X148191910Y-91722939D01*
X148191905Y-91722938D01*
X147918934Y-91687001D01*
X147918929Y-91687000D01*
X147918924Y-91687000D01*
X147643576Y-91687000D01*
X147643570Y-91687000D01*
X147643565Y-91687001D01*
X147370594Y-91722938D01*
X147370587Y-91722939D01*
X147370584Y-91722940D01*
X147314375Y-91738000D01*
X147104619Y-91794204D01*
X146850232Y-91899575D01*
X146850221Y-91899580D01*
X146611766Y-92037254D01*
X146393323Y-92204870D01*
X146393316Y-92204876D01*
X146198626Y-92399566D01*
X146198620Y-92399573D01*
X146031004Y-92618016D01*
X145893330Y-92856471D01*
X145893325Y-92856482D01*
X145787954Y-93110869D01*
X145716691Y-93376831D01*
X145716688Y-93376844D01*
X145680751Y-93649815D01*
X145680750Y-93649832D01*
X134742817Y-93649832D01*
X132815919Y-91722934D01*
X132782434Y-91661611D01*
X132787418Y-91591919D01*
X132803283Y-91562367D01*
X132859329Y-91485228D01*
X132962981Y-91281799D01*
X133033534Y-91064660D01*
X133046891Y-90980326D01*
X133069250Y-90839162D01*
X133069250Y-90610837D01*
X133033534Y-90385339D01*
X132962979Y-90168196D01*
X132859328Y-89964771D01*
X132813044Y-89901067D01*
X132725129Y-89780063D01*
X132563687Y-89618621D01*
X132378978Y-89484421D01*
X132346338Y-89467790D01*
X132175553Y-89380770D01*
X131958410Y-89310215D01*
X131732912Y-89274500D01*
X131732907Y-89274500D01*
X130204593Y-89274500D01*
X130204588Y-89274500D01*
X129979089Y-89310215D01*
X129761946Y-89380770D01*
X129558521Y-89484421D01*
X129373811Y-89618622D01*
X129212372Y-89780061D01*
X129078171Y-89964771D01*
X128974520Y-90168196D01*
X128903965Y-90385339D01*
X128868250Y-90610837D01*
X120569250Y-90610837D01*
X120533534Y-90385339D01*
X120462979Y-90168196D01*
X120359328Y-89964771D01*
X120313044Y-89901067D01*
X120225129Y-89780063D01*
X120063687Y-89618621D01*
X119878978Y-89484421D01*
X119846338Y-89467790D01*
X119675553Y-89380770D01*
X119458410Y-89310215D01*
X119232912Y-89274500D01*
X119232907Y-89274500D01*
X117704593Y-89274500D01*
X117704588Y-89274500D01*
X117479089Y-89310215D01*
X117261946Y-89380770D01*
X117058521Y-89484421D01*
X116873811Y-89618622D01*
X116712372Y-89780061D01*
X116578171Y-89964771D01*
X116474520Y-90168196D01*
X116403965Y-90385339D01*
X116368250Y-90610837D01*
X98860000Y-90610837D01*
X98860000Y-85610837D01*
X116368250Y-85610837D01*
X116368250Y-85839162D01*
X116403965Y-86064660D01*
X116474520Y-86281803D01*
X116578171Y-86485228D01*
X116712371Y-86669937D01*
X116873813Y-86831379D01*
X117058522Y-86965579D01*
X117154634Y-87014550D01*
X117261946Y-87069229D01*
X117261948Y-87069229D01*
X117261951Y-87069231D01*
X117378342Y-87107049D01*
X117479089Y-87139784D01*
X117704588Y-87175500D01*
X117704593Y-87175500D01*
X119232912Y-87175500D01*
X119458410Y-87139784D01*
X119484533Y-87131296D01*
X119675549Y-87069231D01*
X119878978Y-86965579D01*
X120063687Y-86831379D01*
X120225129Y-86669937D01*
X120359329Y-86485228D01*
X120462981Y-86281799D01*
X120533534Y-86064660D01*
X120546891Y-85980326D01*
X120569250Y-85839162D01*
X120569250Y-85610837D01*
X128868250Y-85610837D01*
X128868250Y-85839162D01*
X128903965Y-86064660D01*
X128974520Y-86281803D01*
X129078171Y-86485228D01*
X129212371Y-86669937D01*
X129373813Y-86831379D01*
X129558522Y-86965579D01*
X129654634Y-87014550D01*
X129761946Y-87069229D01*
X129761948Y-87069229D01*
X129761951Y-87069231D01*
X129878342Y-87107049D01*
X129979089Y-87139784D01*
X130204588Y-87175500D01*
X130204593Y-87175500D01*
X131732912Y-87175500D01*
X131958410Y-87139784D01*
X131984533Y-87131296D01*
X132175549Y-87069231D01*
X132378978Y-86965579D01*
X132563687Y-86831379D01*
X132725129Y-86669937D01*
X132859329Y-86485228D01*
X132962981Y-86281799D01*
X133033534Y-86064660D01*
X133046891Y-85980326D01*
X133069250Y-85839162D01*
X133069250Y-85610837D01*
X133033534Y-85385339D01*
X132962979Y-85168196D01*
X132859328Y-84964771D01*
X132792546Y-84872854D01*
X132725129Y-84780063D01*
X132563687Y-84618621D01*
X132378978Y-84484421D01*
X132175553Y-84380770D01*
X131958410Y-84310215D01*
X131732912Y-84274500D01*
X131732907Y-84274500D01*
X130204593Y-84274500D01*
X130204588Y-84274500D01*
X129979089Y-84310215D01*
X129761946Y-84380770D01*
X129558521Y-84484421D01*
X129373811Y-84618622D01*
X129212372Y-84780061D01*
X129078171Y-84964771D01*
X128974520Y-85168196D01*
X128903965Y-85385339D01*
X128868250Y-85610837D01*
X120569250Y-85610837D01*
X120533534Y-85385339D01*
X120462979Y-85168196D01*
X120359328Y-84964771D01*
X120292546Y-84872854D01*
X120225129Y-84780063D01*
X120063687Y-84618621D01*
X119878978Y-84484421D01*
X119675553Y-84380770D01*
X119458410Y-84310215D01*
X119232912Y-84274500D01*
X119232907Y-84274500D01*
X117704593Y-84274500D01*
X117704588Y-84274500D01*
X117479089Y-84310215D01*
X117261946Y-84380770D01*
X117058521Y-84484421D01*
X116873811Y-84618622D01*
X116712372Y-84780061D01*
X116578171Y-84964771D01*
X116474520Y-85168196D01*
X116403965Y-85385339D01*
X116368250Y-85610837D01*
X98860000Y-85610837D01*
X98860000Y-72941153D01*
X103539500Y-72941153D01*
X103539500Y-73098846D01*
X103570261Y-73253489D01*
X103570264Y-73253501D01*
X103630602Y-73399172D01*
X103630609Y-73399185D01*
X103718210Y-73530288D01*
X103718213Y-73530292D01*
X103829707Y-73641786D01*
X103829711Y-73641789D01*
X103960814Y-73729390D01*
X103960827Y-73729397D01*
X104106498Y-73789735D01*
X104106503Y-73789737D01*
X104261153Y-73820499D01*
X104261156Y-73820500D01*
X104261158Y-73820500D01*
X104418844Y-73820500D01*
X104418845Y-73820499D01*
X104573497Y-73789737D01*
X104719179Y-73729394D01*
X104719185Y-73729390D01*
X104850875Y-73641398D01*
X104917553Y-73620520D01*
X104919766Y-73620500D01*
X122683331Y-73620500D01*
X122683347Y-73620501D01*
X122690943Y-73620501D01*
X122849054Y-73620501D01*
X122849057Y-73620501D01*
X123001785Y-73579577D01*
X123051904Y-73550639D01*
X123138716Y-73500520D01*
X123250520Y-73388716D01*
X123250520Y-73388714D01*
X123260728Y-73378507D01*
X123260729Y-73378504D01*
X123944665Y-72694570D01*
X124005984Y-72661088D01*
X124008151Y-72660637D01*
X124008840Y-72660500D01*
X124008842Y-72660500D01*
X124163497Y-72629737D01*
X124309179Y-72569394D01*
X124440289Y-72481789D01*
X124551789Y-72370289D01*
X124639394Y-72239179D01*
X124699737Y-72093497D01*
X124730500Y-71938842D01*
X124730500Y-71781158D01*
X124730500Y-71781155D01*
X124730499Y-71781153D01*
X124699738Y-71626510D01*
X124699738Y-71626508D01*
X124699737Y-71626503D01*
X124699735Y-71626498D01*
X124639397Y-71480827D01*
X124639390Y-71480814D01*
X124551789Y-71349711D01*
X124551786Y-71349707D01*
X124440292Y-71238213D01*
X124440288Y-71238210D01*
X124309185Y-71150609D01*
X124309172Y-71150602D01*
X124163501Y-71090264D01*
X124163489Y-71090261D01*
X124008845Y-71059500D01*
X124008842Y-71059500D01*
X123851158Y-71059500D01*
X123851155Y-71059500D01*
X123696510Y-71090261D01*
X123696498Y-71090264D01*
X123550827Y-71150602D01*
X123550814Y-71150609D01*
X123419711Y-71238210D01*
X123419707Y-71238213D01*
X123308213Y-71349707D01*
X123308210Y-71349711D01*
X123220609Y-71480814D01*
X123220602Y-71480827D01*
X123160264Y-71626498D01*
X123160261Y-71626508D01*
X123129362Y-71781848D01*
X123096977Y-71843759D01*
X123095426Y-71845337D01*
X122557584Y-72383181D01*
X122496261Y-72416666D01*
X122469903Y-72419500D01*
X104919766Y-72419500D01*
X104852727Y-72399815D01*
X104850875Y-72398602D01*
X104719185Y-72310609D01*
X104719172Y-72310602D01*
X104573501Y-72250264D01*
X104573489Y-72250261D01*
X104418845Y-72219500D01*
X104418842Y-72219500D01*
X104261158Y-72219500D01*
X104261155Y-72219500D01*
X104106510Y-72250261D01*
X104106498Y-72250264D01*
X103960827Y-72310602D01*
X103960814Y-72310609D01*
X103829711Y-72398210D01*
X103829707Y-72398213D01*
X103718213Y-72509707D01*
X103718210Y-72509711D01*
X103630609Y-72640814D01*
X103630602Y-72640827D01*
X103570264Y-72786498D01*
X103570261Y-72786510D01*
X103539500Y-72941153D01*
X98860000Y-72941153D01*
X98860000Y-58321153D01*
X103249500Y-58321153D01*
X103249500Y-58478846D01*
X103280261Y-58633489D01*
X103280264Y-58633501D01*
X103340602Y-58779172D01*
X103340609Y-58779185D01*
X103428210Y-58910288D01*
X103428213Y-58910292D01*
X103539707Y-59021786D01*
X103539711Y-59021789D01*
X103670814Y-59109390D01*
X103670827Y-59109397D01*
X103816498Y-59169735D01*
X103816503Y-59169737D01*
X103881147Y-59182595D01*
X103971849Y-59200638D01*
X104033760Y-59233023D01*
X104035338Y-59234573D01*
X114201284Y-69400520D01*
X114201286Y-69400521D01*
X114201290Y-69400524D01*
X114338209Y-69479573D01*
X114338216Y-69479577D01*
X114490943Y-69520501D01*
X114490945Y-69520501D01*
X114656654Y-69520501D01*
X114656670Y-69520500D01*
X126219903Y-69520500D01*
X126249343Y-69529144D01*
X126279330Y-69535668D01*
X126284345Y-69539422D01*
X126286942Y-69540185D01*
X126307584Y-69556819D01*
X126405425Y-69654660D01*
X126438910Y-69715983D01*
X126439361Y-69718149D01*
X126470261Y-69873491D01*
X126470264Y-69873501D01*
X126530602Y-70019172D01*
X126530609Y-70019185D01*
X126618210Y-70150288D01*
X126618213Y-70150292D01*
X126729707Y-70261786D01*
X126729711Y-70261789D01*
X126860814Y-70349390D01*
X126860827Y-70349397D01*
X127005931Y-70409500D01*
X127006503Y-70409737D01*
X127159967Y-70440263D01*
X127161153Y-70440499D01*
X127161156Y-70440500D01*
X127161158Y-70440500D01*
X127318844Y-70440500D01*
X127318845Y-70440499D01*
X127473497Y-70409737D01*
X127619179Y-70349394D01*
X127750289Y-70261789D01*
X127861789Y-70150289D01*
X127949394Y-70019179D01*
X128009737Y-69873497D01*
X128040500Y-69718842D01*
X128040500Y-69561158D01*
X128040500Y-69561155D01*
X128040499Y-69561153D01*
X128032413Y-69520501D01*
X128009737Y-69406503D01*
X128009735Y-69406498D01*
X127949397Y-69260827D01*
X127949390Y-69260814D01*
X127861789Y-69129711D01*
X127861786Y-69129707D01*
X127750292Y-69018213D01*
X127750288Y-69018210D01*
X127619185Y-68930609D01*
X127619172Y-68930602D01*
X127473501Y-68870264D01*
X127473491Y-68870261D01*
X127318149Y-68839361D01*
X127256238Y-68806976D01*
X127254660Y-68805425D01*
X127007590Y-68558355D01*
X127007588Y-68558352D01*
X126888717Y-68439481D01*
X126888716Y-68439480D01*
X126801904Y-68389360D01*
X126801904Y-68389359D01*
X126801900Y-68389358D01*
X126751785Y-68360423D01*
X126599057Y-68319499D01*
X126440943Y-68319499D01*
X126433347Y-68319499D01*
X126433331Y-68319500D01*
X114870098Y-68319500D01*
X114803059Y-68299815D01*
X114782417Y-68283181D01*
X104884573Y-58385337D01*
X104851088Y-58324014D01*
X104850637Y-58321847D01*
X104842576Y-58281321D01*
X104819737Y-58166503D01*
X104791450Y-58098211D01*
X104759397Y-58020827D01*
X104759390Y-58020814D01*
X104671789Y-57889711D01*
X104671786Y-57889707D01*
X104560292Y-57778213D01*
X104560288Y-57778210D01*
X104429185Y-57690609D01*
X104429172Y-57690602D01*
X104283501Y-57630264D01*
X104283489Y-57630261D01*
X104128845Y-57599500D01*
X104128842Y-57599500D01*
X103971158Y-57599500D01*
X103971155Y-57599500D01*
X103816510Y-57630261D01*
X103816498Y-57630264D01*
X103670827Y-57690602D01*
X103670814Y-57690609D01*
X103539711Y-57778210D01*
X103539707Y-57778213D01*
X103428213Y-57889707D01*
X103428210Y-57889711D01*
X103340609Y-58020814D01*
X103340602Y-58020827D01*
X103280264Y-58166498D01*
X103280261Y-58166510D01*
X103249500Y-58321153D01*
X98860000Y-58321153D01*
X98860000Y-53454000D01*
X98879685Y-53386961D01*
X98932489Y-53341206D01*
X98984000Y-53330000D01*
X120384544Y-53330000D01*
X120387473Y-53330860D01*
X120390442Y-53330140D01*
X120420785Y-53340641D01*
X120451583Y-53349685D01*
X120453582Y-53351992D01*
X120456470Y-53352992D01*
X120476324Y-53378237D01*
X120497338Y-53402489D01*
X120497772Y-53405510D01*
X120499661Y-53407912D01*
X120502714Y-53439878D01*
X120507282Y-53471647D01*
X120506013Y-53474424D01*
X120506304Y-53477465D01*
X120491595Y-53505996D01*
X120478257Y-53535203D01*
X120475264Y-53537673D01*
X120474288Y-53539568D01*
X120446546Y-53561386D01*
X120407970Y-53583658D01*
X120398095Y-53589360D01*
X120354689Y-53614420D01*
X120311285Y-53639479D01*
X120311282Y-53639481D01*
X119079481Y-54871282D01*
X119079480Y-54871284D01*
X119036193Y-54946261D01*
X119029361Y-54958094D01*
X119029359Y-54958096D01*
X119000425Y-55008209D01*
X119000424Y-55008210D01*
X119000423Y-55008215D01*
X118959499Y-55160943D01*
X118959499Y-55160945D01*
X118959499Y-55329046D01*
X118959500Y-55329059D01*
X118959500Y-57319902D01*
X118939815Y-57386941D01*
X118923181Y-57407583D01*
X117725339Y-58605425D01*
X117664016Y-58638910D01*
X117661850Y-58639361D01*
X117506508Y-58670261D01*
X117506498Y-58670264D01*
X117360827Y-58730602D01*
X117360814Y-58730609D01*
X117229711Y-58818210D01*
X117229707Y-58818213D01*
X117118213Y-58929707D01*
X117118210Y-58929711D01*
X117030609Y-59060814D01*
X117030602Y-59060827D01*
X116970264Y-59206498D01*
X116970261Y-59206510D01*
X116939500Y-59361153D01*
X116939500Y-59518846D01*
X116970261Y-59673489D01*
X116970264Y-59673501D01*
X117030602Y-59819172D01*
X117030609Y-59819185D01*
X117118210Y-59950288D01*
X117118213Y-59950292D01*
X117229707Y-60061786D01*
X117229711Y-60061789D01*
X117360814Y-60149390D01*
X117360827Y-60149397D01*
X117506498Y-60209735D01*
X117506503Y-60209737D01*
X117661153Y-60240499D01*
X117661156Y-60240500D01*
X117661158Y-60240500D01*
X117818844Y-60240500D01*
X117818845Y-60240499D01*
X117973497Y-60209737D01*
X118086166Y-60163067D01*
X118119172Y-60149397D01*
X118119172Y-60149396D01*
X118119179Y-60149394D01*
X118250289Y-60061789D01*
X118361789Y-59950289D01*
X118449394Y-59819179D01*
X118509737Y-59673497D01*
X118529113Y-59576085D01*
X118540638Y-59518150D01*
X118573023Y-59456239D01*
X118574517Y-59454717D01*
X120040520Y-57988716D01*
X120119577Y-57851784D01*
X120154580Y-57721153D01*
X122409500Y-57721153D01*
X122409500Y-57878846D01*
X122440261Y-58033489D01*
X122440264Y-58033501D01*
X122500602Y-58179172D01*
X122500609Y-58179185D01*
X122588210Y-58310288D01*
X122588213Y-58310292D01*
X122699707Y-58421786D01*
X122699711Y-58421789D01*
X122830814Y-58509390D01*
X122830827Y-58509397D01*
X122976498Y-58569735D01*
X122976503Y-58569737D01*
X123041147Y-58582595D01*
X123131849Y-58600638D01*
X123193760Y-58633023D01*
X123195339Y-58634574D01*
X126935139Y-62374374D01*
X126935149Y-62374385D01*
X126939479Y-62378715D01*
X126939480Y-62378716D01*
X127051284Y-62490520D01*
X127138095Y-62540639D01*
X127138097Y-62540641D01*
X127176151Y-62562611D01*
X127188215Y-62569577D01*
X127340943Y-62610500D01*
X127499057Y-62610500D01*
X133733331Y-62610500D01*
X133733347Y-62610501D01*
X133740943Y-62610501D01*
X133899054Y-62610501D01*
X133899057Y-62610501D01*
X134051785Y-62569577D01*
X134101904Y-62540639D01*
X134188716Y-62490520D01*
X134300520Y-62378716D01*
X134300520Y-62378714D01*
X134310728Y-62368507D01*
X134310730Y-62368504D01*
X135058506Y-61620728D01*
X135058511Y-61620724D01*
X135068714Y-61610520D01*
X135068716Y-61610520D01*
X135180520Y-61498716D01*
X135232028Y-61409500D01*
X135259577Y-61361785D01*
X135300501Y-61209057D01*
X135300501Y-61109764D01*
X135320186Y-61042725D01*
X135321399Y-61040873D01*
X135409390Y-60909185D01*
X135409390Y-60909184D01*
X135409394Y-60909179D01*
X135417383Y-60889893D01*
X135439316Y-60836941D01*
X135469737Y-60763497D01*
X135500500Y-60608842D01*
X135500500Y-60451158D01*
X135500500Y-60451155D01*
X135500499Y-60451153D01*
X137879500Y-60451153D01*
X137879500Y-60608846D01*
X137910261Y-60763489D01*
X137910264Y-60763501D01*
X137970602Y-60909172D01*
X137970609Y-60909185D01*
X138058210Y-61040288D01*
X138058213Y-61040292D01*
X138169707Y-61151786D01*
X138169711Y-61151789D01*
X138300814Y-61239390D01*
X138300827Y-61239397D01*
X138446498Y-61299735D01*
X138446503Y-61299737D01*
X138601153Y-61330499D01*
X138601156Y-61330500D01*
X138601158Y-61330500D01*
X138729973Y-61330500D01*
X138762066Y-61334725D01*
X138771990Y-61337384D01*
X138820943Y-61350501D01*
X138820945Y-61350501D01*
X138986653Y-61350501D01*
X138986669Y-61350500D01*
X142783331Y-61350500D01*
X142783347Y-61350501D01*
X142790943Y-61350501D01*
X142949055Y-61350501D01*
X142949057Y-61350501D01*
X142999817Y-61336899D01*
X143007934Y-61334725D01*
X143040027Y-61330500D01*
X143168844Y-61330500D01*
X143168845Y-61330499D01*
X143323497Y-61299737D01*
X143469179Y-61239394D01*
X143600289Y-61151789D01*
X143711789Y-61040289D01*
X143799394Y-60909179D01*
X143807383Y-60889893D01*
X143829316Y-60836941D01*
X143859737Y-60763497D01*
X143890500Y-60608842D01*
X143890500Y-60451158D01*
X143890500Y-60451155D01*
X143890499Y-60451153D01*
X143885936Y-60428213D01*
X143859737Y-60296503D01*
X143853010Y-60280263D01*
X143799397Y-60150827D01*
X143799390Y-60150814D01*
X143711789Y-60019711D01*
X143711786Y-60019707D01*
X143600292Y-59908213D01*
X143600288Y-59908210D01*
X143469185Y-59820609D01*
X143469172Y-59820602D01*
X143323501Y-59760264D01*
X143323489Y-59760261D01*
X143168845Y-59729500D01*
X143168842Y-59729500D01*
X143011158Y-59729500D01*
X143011155Y-59729500D01*
X142856510Y-59760261D01*
X142856498Y-59760264D01*
X142710827Y-59820602D01*
X142710814Y-59820609D01*
X142579711Y-59908210D01*
X142579707Y-59908213D01*
X142468213Y-60019707D01*
X142468210Y-60019711D01*
X142418311Y-60094391D01*
X142364699Y-60139196D01*
X142315209Y-60149500D01*
X139454791Y-60149500D01*
X139387752Y-60129815D01*
X139351689Y-60094391D01*
X139301789Y-60019711D01*
X139301786Y-60019707D01*
X139190292Y-59908213D01*
X139190288Y-59908210D01*
X139059185Y-59820609D01*
X139059172Y-59820602D01*
X138913501Y-59760264D01*
X138913489Y-59760261D01*
X138758845Y-59729500D01*
X138758842Y-59729500D01*
X138601158Y-59729500D01*
X138601155Y-59729500D01*
X138446510Y-59760261D01*
X138446498Y-59760264D01*
X138300827Y-59820602D01*
X138300814Y-59820609D01*
X138169711Y-59908210D01*
X138169707Y-59908213D01*
X138058213Y-60019707D01*
X138058210Y-60019711D01*
X137970609Y-60150814D01*
X137970602Y-60150827D01*
X137910264Y-60296498D01*
X137910261Y-60296510D01*
X137879500Y-60451153D01*
X135500499Y-60451153D01*
X135495936Y-60428213D01*
X135469737Y-60296503D01*
X135463010Y-60280263D01*
X135409397Y-60150827D01*
X135409390Y-60150814D01*
X135321789Y-60019711D01*
X135321786Y-60019707D01*
X135210292Y-59908213D01*
X135210288Y-59908210D01*
X135079185Y-59820609D01*
X135079172Y-59820602D01*
X134933501Y-59760264D01*
X134933489Y-59760261D01*
X134778845Y-59729500D01*
X134778842Y-59729500D01*
X134621158Y-59729500D01*
X134621155Y-59729500D01*
X134466510Y-59760261D01*
X134466498Y-59760264D01*
X134320827Y-59820602D01*
X134320814Y-59820609D01*
X134189711Y-59908210D01*
X134189707Y-59908213D01*
X134078213Y-60019707D01*
X134078210Y-60019711D01*
X133990609Y-60150814D01*
X133990602Y-60150827D01*
X133930264Y-60296498D01*
X133930261Y-60296510D01*
X133899500Y-60451153D01*
X133899500Y-60608846D01*
X133930261Y-60763489D01*
X133930264Y-60763501D01*
X133982617Y-60889893D01*
X133990086Y-60959362D01*
X133958811Y-61021841D01*
X133955737Y-61025026D01*
X133607584Y-61373181D01*
X133546261Y-61406666D01*
X133519903Y-61409500D01*
X127720097Y-61409500D01*
X127653058Y-61389815D01*
X127632416Y-61373181D01*
X124044574Y-57785339D01*
X124011089Y-57724016D01*
X124010638Y-57721849D01*
X123992419Y-57630261D01*
X123979737Y-57566503D01*
X123970208Y-57543497D01*
X123919397Y-57420827D01*
X123919390Y-57420814D01*
X123831789Y-57289711D01*
X123831786Y-57289707D01*
X123720292Y-57178213D01*
X123720288Y-57178210D01*
X123589185Y-57090609D01*
X123589172Y-57090602D01*
X123443501Y-57030264D01*
X123443489Y-57030261D01*
X123288845Y-56999500D01*
X123288842Y-56999500D01*
X123131158Y-56999500D01*
X123131155Y-56999500D01*
X122976510Y-57030261D01*
X122976498Y-57030264D01*
X122830827Y-57090602D01*
X122830814Y-57090609D01*
X122699711Y-57178210D01*
X122699707Y-57178213D01*
X122588213Y-57289707D01*
X122588210Y-57289711D01*
X122500609Y-57420814D01*
X122500602Y-57420827D01*
X122440264Y-57566498D01*
X122440261Y-57566510D01*
X122409500Y-57721153D01*
X120154580Y-57721153D01*
X120160501Y-57699057D01*
X120160501Y-57540942D01*
X120160500Y-57540938D01*
X120160500Y-55540097D01*
X120180185Y-55473058D01*
X120196819Y-55452416D01*
X120892416Y-54756819D01*
X120953739Y-54723334D01*
X120980097Y-54720500D01*
X134253331Y-54720500D01*
X134253347Y-54720501D01*
X134260943Y-54720501D01*
X134419054Y-54720501D01*
X134419057Y-54720501D01*
X134571785Y-54679577D01*
X134641200Y-54639500D01*
X134708716Y-54600520D01*
X134820520Y-54488716D01*
X134820520Y-54488714D01*
X134830724Y-54478511D01*
X134830727Y-54478506D01*
X135690520Y-53618716D01*
X135769577Y-53481785D01*
X135810501Y-53329057D01*
X135810501Y-53170942D01*
X135810501Y-53163347D01*
X135810500Y-53163329D01*
X135810500Y-37370097D01*
X135830185Y-37303058D01*
X135846819Y-37282416D01*
X136832416Y-36296819D01*
X136893739Y-36263334D01*
X136912800Y-36261284D01*
X136912782Y-36261097D01*
X136918836Y-36260500D01*
X136918842Y-36260500D01*
X137073497Y-36229737D01*
X137219179Y-36169394D01*
X137350289Y-36081789D01*
X137461789Y-35970289D01*
X137549394Y-35839179D01*
X137609737Y-35693497D01*
X137640500Y-35538842D01*
X137640500Y-35381158D01*
X137640500Y-35381155D01*
X137640499Y-35381153D01*
X137609738Y-35226510D01*
X137609738Y-35226508D01*
X137609737Y-35226503D01*
X137609735Y-35226498D01*
X137549397Y-35080827D01*
X137549390Y-35080814D01*
X137461789Y-34949711D01*
X137461786Y-34949707D01*
X137350292Y-34838213D01*
X137350288Y-34838210D01*
X137219185Y-34750609D01*
X137219172Y-34750602D01*
X137073501Y-34690264D01*
X137073489Y-34690261D01*
X136918845Y-34659500D01*
X136918842Y-34659500D01*
X136761158Y-34659500D01*
X136761155Y-34659500D01*
X136606510Y-34690261D01*
X136606498Y-34690264D01*
X136460827Y-34750602D01*
X136460814Y-34750609D01*
X136329711Y-34838210D01*
X136329707Y-34838213D01*
X136218213Y-34949707D01*
X136218210Y-34949711D01*
X136130609Y-35080814D01*
X136130602Y-35080827D01*
X136070264Y-35226498D01*
X136070261Y-35226508D01*
X136044327Y-35356884D01*
X136011942Y-35418795D01*
X136010391Y-35420373D01*
X134729481Y-36701282D01*
X134729479Y-36701285D01*
X134679361Y-36788094D01*
X134679359Y-36788096D01*
X134650425Y-36838209D01*
X134650424Y-36838210D01*
X134650423Y-36838215D01*
X134609499Y-36990943D01*
X134609499Y-36990945D01*
X134609499Y-37159046D01*
X134609500Y-37159059D01*
X134609500Y-52949902D01*
X134589815Y-53016941D01*
X134573181Y-53037583D01*
X134127584Y-53483181D01*
X134100656Y-53497884D01*
X134074838Y-53514477D01*
X134068637Y-53515368D01*
X134066261Y-53516666D01*
X134039903Y-53519500D01*
X133899819Y-53519500D01*
X133832780Y-53499815D01*
X133787025Y-53447011D01*
X133777081Y-53377853D01*
X133790039Y-53349478D01*
X133762547Y-39610288D01*
X133750248Y-33463964D01*
X133769799Y-33396886D01*
X133822511Y-33351026D01*
X133873964Y-33339717D01*
X159925364Y-33280284D01*
X159992447Y-33299816D01*
G37*
%TD.AperFunction*%
M02*
