M48
; DRILL file {KiCad 9.0.0} date 2025-04-05T15:42:55+0530
; FORMAT={-:-/ absolute / inch / decimal}
; #@! TF.CreationDate,2025-04-05T15:42:55+05:30
; #@! TF.GenerationSoftware,Kicad,Pcbnew,9.0.0
; #@! TF.FileFunction,Plated,1,2,PTH
FMAT,2
INCH
; #@! TA.AperFunction,Plated,PTH,ViaDrill
T1C0.0118
; #@! TA.AperFunction,Plated,PTH,ComponentDrill
T2C0.0394
; #@! TA.AperFunction,Plated,PTH,ComponentDrill
T3C0.0512
; #@! TA.AperFunction,Plated,PTH,ComponentDrill
T4C0.1024
%
G90
G05
T1
X4.0965Y-2.2992
X4.1079Y-2.8748
X4.472Y-4.5488
X4.4728Y-4.2287
X4.6354Y-2.3402
X4.7122Y-4.178
X4.8508Y-2.2756
X4.8791Y-2.8291
X5.0094Y-2.7417
X5.3031Y-2.3831
X5.3437Y-2.6071
X5.3874Y-1.3961
X5.4598Y-2.3831
X5.6335Y-2.3831
X5.7366Y-2.7732
X5.9878Y-2.8031
X5.989Y-1.9067
X6.1201Y-2.0783
X6.1437Y-2.0531
X6.1583Y-2.8035
X6.2386Y-1.5394
X6.3228Y-3.0689
X6.4941Y-2.6827
X6.5598Y-2.3118
X6.7882Y-2.4035
X7.1031Y-2.2563
X7.4767Y-2.2701
T2
X5.5229Y-3.3735
X5.5229Y-3.4719
X5.5229Y-3.5704
X6.0938Y-3.3735
X6.0938Y-3.5704
T3
X4.6641Y-3.375
X4.6641Y-3.5719
X5.1562Y-3.375
X5.1562Y-3.5719
T4
X5.8182Y-3.2515
X5.8182Y-3.6924
M30
