%TF.GenerationSoftware,KiCad,Pcbnew,9.0.0*%
%TF.CreationDate,2025-04-05T15:43:16+05:30*%
%TF.ProjectId,PixelDoro,50697865-6c44-46f7-926f-2e6b69636164,rev?*%
%TF.SameCoordinates,Original*%
%TF.FileFunction,Paste,Top*%
%TF.FilePolarity,Positive*%
%FSLAX46Y46*%
G04 Gerber Fmt 4.6, Leading zero omitted, Abs format (unit mm)*
G04 Created by KiCad (PCBNEW 9.0.0) date 2025-04-05 15:43:16*
%MOMM*%
%LPD*%
G01*
G04 APERTURE LIST*
G04 Aperture macros list*
%AMRoundRect*
0 Rectangle with rounded corners*
0 $1 Rounding radius*
0 $2 $3 $4 $5 $6 $7 $8 $9 X,Y pos of 4 corners*
0 Add a 4 corners polygon primitive as box body*
4,1,4,$2,$3,$4,$5,$6,$7,$8,$9,$2,$3,0*
0 Add four circle primitives for the rounded corners*
1,1,$1+$1,$2,$3*
1,1,$1+$1,$4,$5*
1,1,$1+$1,$6,$7*
1,1,$1+$1,$8,$9*
0 Add four rect primitives between the rounded corners*
20,1,$1+$1,$2,$3,$4,$5,0*
20,1,$1+$1,$4,$5,$6,$7,0*
20,1,$1+$1,$6,$7,$8,$9,0*
20,1,$1+$1,$8,$9,$2,$3,0*%
G04 Aperture macros list end*
%ADD10R,1.600000X0.850000*%
%ADD11RoundRect,0.500000X-0.875000X-0.500000X0.875000X-0.500000X0.875000X0.500000X-0.875000X0.500000X0*%
%ADD12RoundRect,0.275000X-0.275000X0.975000X-0.275000X-0.975000X0.275000X-0.975000X0.275000X0.975000X0*%
%ADD13C,1.700000*%
G04 APERTURE END LIST*
D10*
%TO.C,D12*%
X188118750Y-79212500D03*
X188118750Y-80962500D03*
X191618750Y-80962500D03*
X191618750Y-79212500D03*
%TD*%
%TO.C,D19*%
X169068750Y-114931250D03*
X169068750Y-116681250D03*
X172568750Y-116681250D03*
X172568750Y-114931250D03*
%TD*%
%TO.C,D2*%
X121443750Y-57781250D03*
X121443750Y-59531250D03*
X124943750Y-59531250D03*
X124943750Y-57781250D03*
%TD*%
%TO.C,D14*%
X188118750Y-93500000D03*
X188118750Y-95250000D03*
X191618750Y-95250000D03*
X191618750Y-93500000D03*
%TD*%
%TO.C,D1*%
X111918750Y-57781250D03*
X111918750Y-59531250D03*
X115418750Y-59531250D03*
X115418750Y-57781250D03*
%TD*%
%TO.C,D15*%
X188118750Y-100643750D03*
X188118750Y-102393750D03*
X191618750Y-102393750D03*
X191618750Y-100643750D03*
%TD*%
%TO.C,D25*%
X111918750Y-114931250D03*
X111918750Y-116681250D03*
X115418750Y-116681250D03*
X115418750Y-114931250D03*
%TD*%
%TO.C,D11*%
X188118750Y-72068750D03*
X188118750Y-73818750D03*
X191618750Y-73818750D03*
X191618750Y-72068750D03*
%TD*%
%TO.C,D24*%
X121443750Y-114931250D03*
X121443750Y-116681250D03*
X124943750Y-116681250D03*
X124943750Y-114931250D03*
%TD*%
%TO.C,D34*%
X102393750Y-57781250D03*
X102393750Y-59531250D03*
X105893750Y-59531250D03*
X105893750Y-57781250D03*
%TD*%
%TO.C,D22*%
X140493750Y-114931250D03*
X140493750Y-116681250D03*
X143993750Y-116681250D03*
X143993750Y-114931250D03*
%TD*%
%TO.C,D13*%
X188118750Y-86356250D03*
X188118750Y-88106250D03*
X191618750Y-88106250D03*
X191618750Y-86356250D03*
%TD*%
%TO.C,D38*%
X163187500Y-68181250D03*
X163187500Y-69931250D03*
X166687500Y-69931250D03*
X166687500Y-68181250D03*
%TD*%
%TO.C,D32*%
X102393750Y-72068750D03*
X102393750Y-73818750D03*
X105893750Y-73818750D03*
X105893750Y-72068750D03*
%TD*%
%TO.C,D27*%
X102393750Y-107787500D03*
X102393750Y-109537500D03*
X105893750Y-109537500D03*
X105893750Y-107787500D03*
%TD*%
%TO.C,D5*%
X150018750Y-57781250D03*
X150018750Y-59531250D03*
X153518750Y-59531250D03*
X153518750Y-57781250D03*
%TD*%
%TO.C,D10*%
X188118750Y-64925000D03*
X188118750Y-66675000D03*
X191618750Y-66675000D03*
X191618750Y-64925000D03*
%TD*%
D11*
%TO.C,U1*%
X139161250Y-35242500D03*
X139161250Y-37782500D03*
X139161250Y-40322500D03*
X139161250Y-42862500D03*
X139161250Y-45402500D03*
X139161250Y-47942500D03*
X139161250Y-50482500D03*
X155326250Y-50482500D03*
X155326250Y-47942500D03*
X155326250Y-45402500D03*
X155326250Y-42862500D03*
X155326250Y-40322500D03*
X155326250Y-37782500D03*
X155326250Y-35242500D03*
D12*
X146073250Y-51502500D03*
X148613250Y-51502500D03*
D13*
X146073250Y-34484500D03*
X148613250Y-34484500D03*
X146073250Y-37024500D03*
X148613250Y-37024500D03*
%TD*%
D10*
%TO.C,D9*%
X188118750Y-57781250D03*
X188118750Y-59531250D03*
X191618750Y-59531250D03*
X191618750Y-57781250D03*
%TD*%
%TO.C,D30*%
X102393750Y-86356250D03*
X102393750Y-88106250D03*
X105893750Y-88106250D03*
X105893750Y-86356250D03*
%TD*%
%TO.C,D20*%
X159543750Y-114931250D03*
X159543750Y-116681250D03*
X163043750Y-116681250D03*
X163043750Y-114931250D03*
%TD*%
%TO.C,D37*%
X153662500Y-68181250D03*
X153662500Y-69931250D03*
X157162500Y-69931250D03*
X157162500Y-68181250D03*
%TD*%
%TO.C,STATUS LED*%
X113950000Y-103460000D03*
X113950000Y-105210000D03*
X117450000Y-105210000D03*
X117450000Y-103460000D03*
%TD*%
%TO.C,D16*%
X188118750Y-107787500D03*
X188118750Y-109537500D03*
X191618750Y-109537500D03*
X191618750Y-107787500D03*
%TD*%
%TO.C,D3*%
X130968750Y-57781250D03*
X130968750Y-59531250D03*
X134468750Y-59531250D03*
X134468750Y-57781250D03*
%TD*%
%TO.C,D21*%
X150018750Y-114931250D03*
X150018750Y-116681250D03*
X153518750Y-116681250D03*
X153518750Y-114931250D03*
%TD*%
%TO.C,D26*%
X102393750Y-114931250D03*
X102393750Y-116681250D03*
X105893750Y-116681250D03*
X105893750Y-114931250D03*
%TD*%
%TO.C,D33*%
X102393750Y-64925000D03*
X102393750Y-66675000D03*
X105893750Y-66675000D03*
X105893750Y-64925000D03*
%TD*%
%TO.C,D6*%
X159543750Y-57781250D03*
X159543750Y-59531250D03*
X163043750Y-59531250D03*
X163043750Y-57781250D03*
%TD*%
%TO.C,D35*%
X125087500Y-68181250D03*
X125087500Y-69931250D03*
X128587500Y-69931250D03*
X128587500Y-68181250D03*
%TD*%
%TO.C,D17*%
X188118750Y-114931250D03*
X188118750Y-116681250D03*
X191618750Y-116681250D03*
X191618750Y-114931250D03*
%TD*%
%TO.C,D36*%
X134612500Y-68181250D03*
X134612500Y-69931250D03*
X138112500Y-69931250D03*
X138112500Y-68181250D03*
%TD*%
%TO.C,D8*%
X178593750Y-57781250D03*
X178593750Y-59531250D03*
X182093750Y-59531250D03*
X182093750Y-57781250D03*
%TD*%
%TO.C,D7*%
X169068750Y-57781250D03*
X169068750Y-59531250D03*
X172568750Y-59531250D03*
X172568750Y-57781250D03*
%TD*%
%TO.C,D28*%
X102393750Y-100643750D03*
X102393750Y-102393750D03*
X105893750Y-102393750D03*
X105893750Y-100643750D03*
%TD*%
%TO.C,D31*%
X102393750Y-79212500D03*
X102393750Y-80962500D03*
X105893750Y-80962500D03*
X105893750Y-79212500D03*
%TD*%
%TO.C,D23*%
X130968750Y-114931250D03*
X130968750Y-116681250D03*
X134468750Y-116681250D03*
X134468750Y-114931250D03*
%TD*%
%TO.C,D29*%
X102393750Y-93500000D03*
X102393750Y-95250000D03*
X105893750Y-95250000D03*
X105893750Y-93500000D03*
%TD*%
%TO.C,D18*%
X178593750Y-114931250D03*
X178593750Y-116681250D03*
X182093750Y-116681250D03*
X182093750Y-114931250D03*
%TD*%
%TO.C,D4*%
X140493750Y-57781250D03*
X140493750Y-59531250D03*
X143993750Y-59531250D03*
X143993750Y-57781250D03*
%TD*%
M02*
